GentiumPlusMaster-Regular.ufo
<glyph name="SupInfinity" format="2">
  <advance width="947"/>
  <unicode hex="E00A"/>
  <outline>
    <contour>
      <point x="285" y="796"/>
      <point x="334" y="818"/>
      <point x="480" y="942" type="curve" smooth="yes"/>
      <point x="591" y="1037"/>
      <point x="636" y="1057"/>
      <point x="707" y="1057" type="curve" smooth="yes"/>
      <point x="773" y="1057"/>
      <point x="804" y="999"/>
      <point x="804" y="967" type="curve" smooth="yes"/>
      <point x="804" y="936"/>
      <point x="794" y="885"/>
      <point x="710" y="885" type="curve" smooth="yes"/>
      <point x="617" y="885"/>
      <point x="566" y="948"/>
      <point x="529" y="993" type="curve" smooth="yes"/>
      <point x="482" y="1051"/>
      <point x="398" y="1137"/>
      <point x="288" y="1137" type="curve" smooth="yes"/>
      <point x="160" y="1137"/>
      <point x="46" y="1033"/>
      <point x="46" y="942" type="curve" smooth="yes"/>
      <point x="46" y="865"/>
      <point x="125" y="796"/>
      <point x="202" y="796" type="curve" smooth="yes"/>
    </contour>
    <contour>
      <point x="788" y="796"/>
      <point x="902" y="900"/>
      <point x="902" y="991" type="curve" smooth="yes"/>
      <point x="902" y="1068"/>
      <point x="823" y="1137"/>
      <point x="746" y="1137" type="curve" smooth="yes"/>
      <point x="663" y="1137"/>
      <point x="592" y="1093"/>
      <point x="458" y="986" type="curve" smooth="yes"/>
      <point x="337" y="888"/>
      <point x="312" y="876"/>
      <point x="241" y="876" type="curve" smooth="yes"/>
      <point x="174" y="876"/>
      <point x="144" y="934"/>
      <point x="144" y="966" type="curve" smooth="yes"/>
      <point x="144" y="997"/>
      <point x="154" y="1048"/>
      <point x="237" y="1048" type="curve" smooth="yes"/>
      <point x="330" y="1048"/>
      <point x="377" y="986"/>
      <point x="414" y="940" type="curve" smooth="yes"/>
      <point x="461" y="882"/>
      <point x="550" y="796"/>
      <point x="660" y="796" type="curve" smooth="yes"/>
    </contour>
  </outline>
</glyph>
<glyph name="SupUpArrwhd" format="2">
  <advance width="629"/>
  <unicode hex="E01F"/>
  <outline>
    <contour>
      <point x="575" y="712"/>
      <point x="598" y="731" type="curve"/>
      <point x="351" y="1304" type="line"/>
      <point x="325" y="1293"/>
      <point x="281" y="1270"/>
      <point x="258" y="1251" type="curve"/>
      <point x="31" y="705" type="line"/>
      <point x="48" y="689" type="line"/>
      <point x="66" y="697"/>
      <point x="104" y="715"/>
      <point x="123" y="731" type="curve"/>
      <point x="299" y="1163" type="line"/>
      <point x="498" y="705" type="line"/>
      <point x="524" y="689" type="line"/>
      <point x="555" y="702"/>
    </contour>
  </outline>
</glyph>
<glyph name="SupMultSgn" format="2">
  <advance width="588"/>
  <unicode hex="E022"/>
  <outline>
    <contour>
      <point x="503" y="781"/>
      <point x="522" y="788" type="curve"/>
      <point x="522" y="808" type="line"/>
      <point x="131" y="1144" type="line"/>
      <point x="111" y="1140"/>
      <point x="84" y="1132"/>
      <point x="66" y="1125" type="curve"/>
      <point x="66" y="1105" type="line"/>
      <point x="458" y="769" type="line"/>
      <point x="475" y="773"/>
    </contour>
    <contour>
      <point x="65" y="808" type="line"/>
      <point x="65" y="788" type="line"/>
      <point x="84" y="781"/>
      <point x="113" y="773"/>
      <point x="130" y="769" type="curve"/>
      <point x="522" y="1105" type="line"/>
      <point x="522" y="1125" type="line"/>
      <point x="503" y="1132"/>
      <point x="477" y="1140"/>
      <point x="456" y="1144" type="curve"/>
    </contour>
  </outline>
</glyph>
<glyph name="SupMiddleDot" format="2">
  <advance width="210"/>
  <unicode hex="E023"/>
  <outline>
    <contour>
      <point x="175" y="1008"/>
      <point x="175" y="1053" type="curve"/>
      <point x="175" y="1090"/>
      <point x="155" y="1110"/>
      <point x="115" y="1110" type="curve" smooth="yes"/>
      <point x="71" y="1110"/>
      <point x="35" y="1074"/>
      <point x="35" y="1028" type="curve" smooth="yes"/>
      <point x="35" y="991"/>
      <point x="52" y="970"/>
      <point x="94" y="970" type="curve" smooth="yes"/>
      <point x="140" y="970"/>
    </contour>
  </outline>
</glyph>
<glyph name="SupSolidus" format="2">
  <advance width="672"/>
  <unicode hex="E024"/>
  <outline>
    <contour>
      <point x="148" y="450" type="curve"/>
      <point x="636" y="1567" type="line"/>
      <point x="610" y="1580" type="line"/>
      <point x="584" y="1574"/>
      <point x="550" y="1564"/>
      <point x="525" y="1551" type="curve"/>
      <point x="34" y="434" type="line"/>
      <point x="60" y="419" type="line"/>
      <point x="83" y="425"/>
      <point x="129" y="439"/>
    </contour>
  </outline>
</glyph>
<glyph name="SupAlmostEqTo" format="2">
  <advance width="629"/>
  <unicode hex="E029"/>
  <outline>
    <contour>
      <point x="543" y="1002"/>
      <point x="590" y="1067" type="curve"/>
      <point x="552" y="1112" type="line"/>
      <point x="524" y="1079"/>
      <point x="478" y="1050"/>
      <point x="435" y="1050" type="curve" smooth="yes"/>
      <point x="377" y="1050"/>
      <point x="293" y="1109"/>
      <point x="209" y="1109" type="curve" smooth="yes"/>
      <point x="143" y="1109"/>
      <point x="86" y="1076"/>
      <point x="39" y="1011" type="curve"/>
      <point x="76" y="968" type="line"/>
      <point x="118" y="1006"/>
      <point x="148" y="1029"/>
      <point x="192" y="1029" type="curve" smooth="yes"/>
      <point x="268" y="1029"/>
      <point x="342" y="970"/>
      <point x="421" y="970" type="curve" smooth="yes"/>
      <point x="486" y="970"/>
    </contour>
    <contour>
      <point x="543" y="836"/>
      <point x="590" y="901" type="curve"/>
      <point x="552" y="946" type="line"/>
      <point x="524" y="913"/>
      <point x="478" y="884"/>
      <point x="435" y="884" type="curve" smooth="yes"/>
      <point x="377" y="884"/>
      <point x="293" y="943"/>
      <point x="209" y="943" type="curve" smooth="yes"/>
      <point x="143" y="943"/>
      <point x="86" y="910"/>
      <point x="39" y="845" type="curve"/>
      <point x="76" y="802" type="line"/>
      <point x="118" y="840"/>
      <point x="148" y="863"/>
      <point x="192" y="863" type="curve" smooth="yes"/>
      <point x="268" y="863"/>
      <point x="342" y="804"/>
      <point x="421" y="804" type="curve" smooth="yes"/>
      <point x="486" y="804"/>
    </contour>
  </outline>
</glyph>
<glyph name="SupGTSgn" format="2">
  <advance width="629"/>
  <unicode hex="E02A"/>
  <outline>
    <contour>
      <point x="587" y="995" type="curve"/>
      <point x="570" y="1009" type="line"/>
      <point x="102" y="1159" type="line"/>
      <point x="85" y="1147"/>
      <point x="64" y="1135"/>
      <point x="43" y="1120" type="curve"/>
      <point x="55" y="1097" type="line"/>
      <point x="450" y="971" type="line"/>
      <point x="64" y="847" type="line"/>
      <point x="57" y="834"/>
      <point x="49" y="804"/>
      <point x="43" y="789" type="curve"/>
      <point x="60" y="774" type="line"/>
      <point x="565" y="934" type="line"/>
      <point x="573" y="952"/>
      <point x="582" y="980"/>
    </contour>
  </outline>
</glyph>
<glyph name="SupLTSgn" format="2">
  <advance width="629"/>
  <unicode hex="E02B"/>
  <outline>
    <contour>
      <point x="582" y="1128"/>
      <point x="587" y="1144" type="curve"/>
      <point x="569" y="1159" type="line"/>
      <point x="64" y="997" type="line"/>
      <point x="56" y="981"/>
      <point x="48" y="954"/>
      <point x="43" y="938" type="curve"/>
      <point x="60" y="924" type="line"/>
      <point x="566" y="1084" type="line"/>
      <point x="572" y="1099"/>
    </contour>
    <contour>
      <point x="566" y="797"/>
      <point x="587" y="813" type="curve"/>
      <point x="575" y="835" type="line"/>
      <point x="64" y="997" type="line"/>
      <point x="56" y="981"/>
      <point x="48" y="954"/>
      <point x="43" y="938" type="curve"/>
      <point x="60" y="924" type="line"/>
      <point x="528" y="774" type="line"/>
      <point x="556" y="789"/>
    </contour>
  </outline>
</glyph>
<glyph name="SupGTOrEqTo" format="2">
  <advance width="629"/>
  <unicode hex="E02C"/>
  <outline>
    <contour>
      <point x="64" y="1207"/>
      <point x="43" y="1192" type="curve"/>
      <point x="55" y="1169" type="line"/>
      <point x="450" y="1043" type="line"/>
      <point x="64" y="919" type="line"/>
      <point x="57" y="906"/>
      <point x="49" y="876"/>
      <point x="43" y="861" type="curve"/>
      <point x="60" y="846" type="line"/>
      <point x="565" y="1006" type="line"/>
      <point x="575" y="1025"/>
      <point x="582" y="1048"/>
      <point x="587" y="1067" type="curve"/>
      <point x="570" y="1081" type="line"/>
      <point x="102" y="1231" type="line"/>
      <point x="85" y="1219"/>
    </contour>
    <contour>
      <point x="582" y="774"/>
      <point x="587" y="791" type="curve"/>
      <point x="569" y="806" type="line"/>
      <point x="64" y="806" type="line"/>
      <point x="56" y="790"/>
      <point x="48" y="772"/>
      <point x="43" y="756" type="curve"/>
      <point x="60" y="740" type="line"/>
      <point x="566" y="740" type="line"/>
      <point x="572" y="755"/>
    </contour>
  </outline>
</glyph>
<glyph name="SupLTOrEqTo" format="2">
  <advance width="629"/>
  <unicode hex="E02D"/>
  <outline>
    <contour>
      <point x="528" y="836" type="line"/>
      <point x="556" y="851"/>
      <point x="566" y="869"/>
      <point x="587" y="885" type="curve"/>
      <point x="575" y="907" type="line"/>
      <point x="178" y="1033" type="line"/>
      <point x="566" y="1156" type="line"/>
      <point x="572" y="1171"/>
      <point x="587" y="1210"/>
      <point x="592" y="1226" type="curve"/>
      <point x="574" y="1241" type="line"/>
      <point x="69" y="1079" type="line"/>
      <point x="60" y="1061"/>
      <point x="48" y="1022"/>
      <point x="43" y="1004" type="curve"/>
      <point x="48" y="998"/>
      <point x="55" y="990"/>
      <point x="60" y="986" type="curve"/>
    </contour>
    <contour>
      <point x="60" y="730" type="line"/>
      <point x="566" y="730" type="line"/>
      <point x="572" y="745"/>
      <point x="582" y="774"/>
      <point x="587" y="791" type="curve"/>
      <point x="569" y="806" type="line"/>
      <point x="64" y="806" type="line"/>
      <point x="56" y="790"/>
      <point x="48" y="762"/>
      <point x="43" y="746" type="curve"/>
    </contour>
  </outline>
</glyph>
<glyph name="SupNotGTSgn" format="2">
  <advance width="629"/>
  <unicode hex="E02E"/>
  <outline>
    <contour>
      <point x="592" y="1005" type="curve"/>
      <point x="575" y="1019" type="line"/>
      <point x="107" y="1169" type="line"/>
      <point x="90" y="1157"/>
      <point x="64" y="1135"/>
      <point x="43" y="1120" type="curve"/>
      <point x="55" y="1097" type="line"/>
      <point x="450" y="971" type="line"/>
      <point x="64" y="847" type="line"/>
      <point x="57" y="834"/>
      <point x="44" y="794"/>
      <point x="38" y="779" type="curve"/>
      <point x="55" y="764" type="line"/>
      <point x="560" y="924" type="line"/>
      <point x="568" y="942"/>
      <point x="587" y="990"/>
    </contour>
    <contour>
      <point x="156" y="710" type="curve"/>
      <point x="525" y="1213" type="line"/>
      <point x="505" y="1233" type="line"/>
      <point x="476" y="1227"/>
      <point x="428" y="1216"/>
      <point x="402" y="1203" type="curve"/>
      <point x="34" y="700" type="line"/>
      <point x="51" y="679" type="line"/>
      <point x="74" y="685"/>
      <point x="139" y="699"/>
    </contour>
  </outline>
</glyph>
<glyph name="SupNotLTSgn" format="2">
  <advance width="629"/>
  <unicode hex="E02F"/>
  <outline>
    <contour>
      <point x="582" y="1128"/>
      <point x="587" y="1144" type="curve"/>
      <point x="569" y="1159" type="line"/>
      <point x="64" y="997" type="line"/>
      <point x="56" y="981"/>
      <point x="48" y="954"/>
      <point x="43" y="938" type="curve"/>
      <point x="60" y="924" type="line"/>
      <point x="566" y="1084" type="line"/>
      <point x="572" y="1099"/>
    </contour>
    <contour>
      <point x="566" y="797"/>
      <point x="587" y="813" type="curve"/>
      <point x="575" y="835" type="line"/>
      <point x="64" y="997" type="line"/>
      <point x="56" y="981"/>
      <point x="48" y="954"/>
      <point x="43" y="938" type="curve"/>
      <point x="60" y="924" type="line"/>
      <point x="528" y="774" type="line"/>
      <point x="556" y="789"/>
    </contour>
    <contour>
      <point x="186" y="734" type="curve"/>
      <point x="555" y="1237" type="line"/>
      <point x="535" y="1257" type="line"/>
      <point x="506" y="1251"/>
      <point x="468" y="1240"/>
      <point x="442" y="1227" type="curve"/>
      <point x="74" y="724" type="line"/>
      <point x="91" y="703" type="line"/>
      <point x="114" y="709"/>
      <point x="169" y="723"/>
    </contour>
  </outline>
</glyph>
<glyph name="SupFullStop" format="2">
  <advance width="328"/>
  <unicode hex="E030"/>
  <outline>
    <contour>
      <point x="258" y="639"/>
      <point x="258" y="694" type="curve"/>
      <point x="258" y="737"/>
      <point x="235" y="762"/>
      <point x="189" y="762" type="curve" smooth="yes"/>
      <point x="136" y="762"/>
      <point x="92" y="717"/>
      <point x="92" y="663" type="curve" smooth="yes"/>
      <point x="92" y="620"/>
      <point x="112" y="596"/>
      <point x="162" y="596" type="curve" smooth="yes"/>
      <point x="216" y="596"/>
    </contour>
  </outline>
</glyph>
<glyph name="SupComma" format="2">
  <advance width="328"/>
  <unicode hex="E031"/>
  <outline>
    <contour>
      <point x="273" y="599"/>
      <point x="273" y="662" type="curve"/>
      <point x="273" y="707"/>
      <point x="261" y="739"/>
      <point x="216" y="757" type="curve"/>
      <point x="183" y="759"/>
      <point x="78" y="722"/>
      <point x="62" y="703" type="curve"/>
      <point x="73" y="675" type="line"/>
      <point x="133" y="679"/>
      <point x="158" y="655"/>
      <point x="158" y="620" type="curve" smooth="yes"/>
      <point x="158" y="551"/>
      <point x="136" y="510"/>
      <point x="85" y="458" type="curve"/>
      <point x="116" y="437" type="line"/>
      <point x="214" y="499"/>
    </contour>
  </outline>
</glyph>
<glyph name="SupColon" format="2">
  <advance width="328"/>
  <unicode hex="E032"/>
  <outline>
    <contour>
      <point x="268" y="639"/>
      <point x="268" y="694" type="curve"/>
      <point x="268" y="737"/>
      <point x="235" y="772"/>
      <point x="189" y="772" type="curve" smooth="yes"/>
      <point x="136" y="772"/>
      <point x="82" y="717"/>
      <point x="82" y="663" type="curve" smooth="yes"/>
      <point x="82" y="620"/>
      <point x="112" y="586"/>
      <point x="162" y="586" type="curve" smooth="yes"/>
      <point x="216" y="586"/>
    </contour>
    <contour>
      <point x="268" y="1074"/>
      <point x="268" y="1129" type="curve"/>
      <point x="268" y="1172"/>
      <point x="235" y="1207"/>
      <point x="189" y="1207" type="curve" smooth="yes"/>
      <point x="136" y="1207"/>
      <point x="82" y="1152"/>
      <point x="82" y="1098" type="curve" smooth="yes"/>
      <point x="82" y="1055"/>
      <point x="112" y="1021"/>
      <point x="162" y="1021" type="curve" smooth="yes"/>
      <point x="216" y="1021"/>
    </contour>
  </outline>
</glyph>
<glyph name="SupSemicolon" format="2">
  <advance width="328"/>
  <unicode hex="E033"/>
  <outline>
    <contour>
      <point x="273" y="599"/>
      <point x="273" y="662" type="curve"/>
      <point x="273" y="707"/>
      <point x="261" y="739"/>
      <point x="216" y="757" type="curve"/>
      <point x="183" y="759"/>
      <point x="78" y="722"/>
      <point x="62" y="703" type="curve"/>
      <point x="73" y="675" type="line"/>
      <point x="133" y="679"/>
      <point x="158" y="655"/>
      <point x="158" y="620" type="curve" smooth="yes"/>
      <point x="158" y="551"/>
      <point x="136" y="510"/>
      <point x="85" y="458" type="curve"/>
      <point x="116" y="437" type="line"/>
      <point x="214" y="499"/>
    </contour>
    <contour>
      <point x="258" y="1074"/>
      <point x="258" y="1129" type="curve"/>
      <point x="258" y="1172"/>
      <point x="235" y="1197"/>
      <point x="189" y="1197" type="curve" smooth="yes"/>
      <point x="136" y="1197"/>
      <point x="92" y="1152"/>
      <point x="92" y="1098" type="curve" smooth="yes"/>
      <point x="92" y="1055"/>
      <point x="112" y="1031"/>
      <point x="162" y="1031" type="curve" smooth="yes"/>
      <point x="216" y="1031"/>
    </contour>
  </outline>
</glyph>
<glyph name="SupDblSolidus" format="2">
  <advance width="944"/>
  <unicode hex="E034"/>
  <outline>
    <contour>
      <point x="148" y="450" type="curve"/>
      <point x="636" y="1567" type="line"/>
      <point x="610" y="1580" type="line"/>
      <point x="584" y="1574"/>
      <point x="550" y="1564"/>
      <point x="525" y="1551" type="curve"/>
      <point x="34" y="434" type="line"/>
      <point x="60" y="419" type="line"/>
      <point x="83" y="425"/>
      <point x="129" y="439"/>
    </contour>
    <contour>
      <point x="420" y="450" type="curve"/>
      <point x="909" y="1567" type="line"/>
      <point x="883" y="1580" type="line"/>
      <point x="856" y="1574"/>
      <point x="822" y="1564"/>
      <point x="797" y="1551" type="curve"/>
      <point x="307" y="434" type="line"/>
      <point x="332" y="419" type="line"/>
      <point x="356" y="425"/>
      <point x="401" y="439"/>
    </contour>
  </outline>
</glyph>
<glyph name="SupPerpendicular" format="2">
  <advance width="707"/>
  <unicode hex="E035"/>
  <outline>
    <contour>
      <point x="328" y="1188"/>
      <point x="310" y="1180" type="curve"/>
      <point x="310" y="670" type="line"/>
      <point x="328" y="645" type="line"/>
      <point x="347" y="648"/>
      <point x="381" y="667"/>
      <point x="397" y="673" type="curve"/>
      <point x="397" y="1186" type="line"/>
      <point x="380" y="1200" type="line"/>
      <point x="356" y="1195"/>
    </contour>
    <contour>
      <point x="27" y="641"/>
      <point x="21" y="623" type="curve"/>
      <point x="38" y="610" type="line"/>
      <point x="666" y="610" type="line"/>
      <point x="673" y="624"/>
      <point x="682" y="646"/>
      <point x="687" y="673" type="curve"/>
      <point x="669" y="687" type="line"/>
      <point x="43" y="687" type="line"/>
      <point x="36" y="675"/>
    </contour>
  </outline>
</glyph>
<glyph name="SupDegreeSgn" format="2">
  <advance width="513"/>
  <unicode hex="E036"/>
  <outline>
    <contour>
      <point x="425" y="1149"/>
      <point x="425" y="1247" type="curve"/>
      <point x="425" y="1308"/>
      <point x="361" y="1361"/>
      <point x="283" y="1361" type="curve" smooth="yes"/>
      <point x="190" y="1361"/>
      <point x="88" y="1288"/>
      <point x="88" y="1189" type="curve" smooth="yes"/>
      <point x="88" y="1127"/>
      <point x="148" y="1075"/>
      <point x="230" y="1075" type="curve" smooth="yes"/>
      <point x="321" y="1075"/>
    </contour>
    <contour>
      <point x="334" y="1264"/>
      <point x="334" y="1217" type="curve"/>
      <point x="334" y="1162"/>
      <point x="293" y="1131"/>
      <point x="248" y="1131" type="curve" smooth="yes"/>
      <point x="202" y="1131"/>
      <point x="180" y="1174"/>
      <point x="180" y="1219" type="curve" smooth="yes"/>
      <point x="180" y="1272"/>
      <point x="218" y="1305"/>
      <point x="265" y="1305" type="curve" smooth="yes"/>
      <point x="310" y="1305"/>
    </contour>
  </outline>
</glyph>
<glyph name="WSPSupEqualSlash" format="2">
  <advance width="679"/>
  <unicode hex="E040"/>
  <outline>
    <contour>
      <point x="591" y="911" type="line"/>
      <point x="596" y="925"/>
      <point x="606" y="946"/>
      <point x="611" y="962" type="curve"/>
      <point x="594" y="977" type="line"/>
      <point x="90" y="977" type="line"/>
      <point x="81" y="962"/>
      <point x="73" y="942"/>
      <point x="68" y="926" type="curve"/>
      <point x="85" y="911" type="line"/>
    </contour>
    <contour>
      <point x="591" y="713" type="line"/>
      <point x="596" y="728"/>
      <point x="606" y="747"/>
      <point x="611" y="764" type="curve"/>
      <point x="594" y="779" type="line"/>
      <point x="90" y="779" type="line"/>
      <point x="81" y="763"/>
      <point x="73" y="745"/>
      <point x="68" y="729" type="curve"/>
      <point x="85" y="713" type="line"/>
    </contour>
    <contour>
      <point x="110" y="320" type="line"/>
      <point x="133" y="326"/>
      <point x="154" y="340"/>
      <point x="173" y="351" type="curve"/>
      <point x="595" y="1361" type="line"/>
      <point x="569" y="1374" type="line"/>
      <point x="542" y="1368"/>
      <point x="533" y="1359"/>
      <point x="508" y="1345" type="curve"/>
      <point x="84" y="335" type="line"/>
    </contour>
  </outline>
</glyph>
<glyph name="WSPSupBoxSlash" format="2">
  <advance width="679"/>
  <unicode hex="E041"/>
  <outline>
    <contour>
      <point x="114" y="622" type="line"/>
      <point x="132" y="626"/>
      <point x="154" y="631"/>
      <point x="172" y="638" type="curve"/>
      <point x="172" y="1023" type="line"/>
      <point x="154" y="1036" type="line"/>
      <point x="136" y="1033"/>
      <point x="113" y="996"/>
      <point x="98" y="991" type="curve"/>
      <point x="98" y="633" type="line"/>
    </contour>
    <contour>
      <point x="561" y="979" type="line"/>
      <point x="567" y="990"/>
      <point x="576" y="1013"/>
      <point x="581" y="1029" type="curve"/>
      <point x="564" y="1042" type="line"/>
      <point x="118" y="1042" type="line"/>
      <point x="111" y="1028"/>
      <point x="103" y="1008"/>
      <point x="98" y="991" type="curve"/>
      <point x="115" y="979" type="line"/>
    </contour>
    <contour>
      <point x="581" y="670" type="curve"/>
      <point x="581" y="1029" type="line"/>
      <point x="564" y="1038" type="line"/>
      <point x="546" y="1035"/>
      <point x="522" y="1031"/>
      <point x="507" y="1026" type="curve"/>
      <point x="507" y="633" type="line"/>
      <point x="524" y="620" type="line"/>
      <point x="541" y="624"/>
      <point x="564" y="663"/>
    </contour>
    <contour>
      <point x="561" y="620" type="line"/>
      <point x="567" y="631"/>
      <point x="576" y="654"/>
      <point x="581" y="670" type="curve"/>
      <point x="564" y="683" type="line"/>
      <point x="118" y="683" type="line"/>
      <point x="111" y="669"/>
      <point x="103" y="649"/>
      <point x="98" y="633" type="curve"/>
      <point x="115" y="620" type="line"/>
    </contour>
    <contour>
      <point x="110" y="320" type="line"/>
      <point x="133" y="326"/>
      <point x="154" y="340"/>
      <point x="173" y="351" type="curve"/>
      <point x="595" y="1361" type="line"/>
      <point x="569" y="1374" type="line"/>
      <point x="542" y="1368"/>
      <point x="533" y="1359"/>
      <point x="508" y="1345" type="curve"/>
      <point x="84" y="335" type="line"/>
    </contour>
  </outline>
</glyph>
<glyph name="WSPSupCircleSlash" format="2">
  <advance width="679"/>
  <unicode hex="E042"/>
  <outline>
    <contour>
      <point x="340" y="602" type="curve" smooth="yes"/>
      <point x="488" y="602"/>
      <point x="608" y="705"/>
      <point x="608" y="832" type="curve" smooth="yes"/>
      <point x="608" y="959"/>
      <point x="488" y="1062"/>
      <point x="340" y="1062" type="curve" smooth="yes"/>
      <point x="191" y="1062"/>
      <point x="71" y="959"/>
      <point x="71" y="832" type="curve" smooth="yes"/>
      <point x="71" y="705"/>
      <point x="191" y="602"/>
    </contour>
    <contour>
      <point x="340" y="666" type="curve" smooth="yes"/>
      <point x="232" y="666"/>
      <point x="146" y="740"/>
      <point x="146" y="832" type="curve" smooth="yes"/>
      <point x="146" y="924"/>
      <point x="232" y="997"/>
      <point x="340" y="997" type="curve" smooth="yes"/>
      <point x="447" y="997"/>
      <point x="533" y="924"/>
      <point x="533" y="832" type="curve" smooth="yes"/>
      <point x="533" y="740"/>
      <point x="447" y="666"/>
    </contour>
    <contour>
      <point x="110" y="320" type="line"/>
      <point x="133" y="326"/>
      <point x="154" y="340"/>
      <point x="173" y="351" type="curve"/>
      <point x="595" y="1361" type="line"/>
      <point x="569" y="1374" type="line"/>
      <point x="542" y="1368"/>
      <point x="533" y="1359"/>
      <point x="508" y="1345" type="curve"/>
      <point x="84" y="335" type="line"/>
    </contour>
  </outline>
</glyph>
<glyph name="WSPSupFlagSlash" format="2">
  <advance width="840"/>
  <unicode hex="E043"/>
  <outline>
    <contour>
      <point x="340" y="602" type="curve" smooth="yes"/>
      <point x="488" y="602"/>
      <point x="608" y="705"/>
      <point x="608" y="832" type="curve" smooth="yes"/>
      <point x="608" y="959"/>
      <point x="488" y="1062"/>
      <point x="340" y="1062" type="curve" smooth="yes"/>
      <point x="191" y="1062"/>
      <point x="71" y="959"/>
      <point x="71" y="832" type="curve" smooth="yes"/>
      <point x="71" y="705"/>
      <point x="191" y="602"/>
    </contour>
    <contour>
      <point x="340" y="666" type="curve" smooth="yes"/>
      <point x="232" y="666"/>
      <point x="146" y="740"/>
      <point x="146" y="832" type="curve" smooth="yes"/>
      <point x="146" y="924"/>
      <point x="232" y="997"/>
      <point x="340" y="997" type="curve" smooth="yes"/>
      <point x="447" y="997"/>
      <point x="533" y="924"/>
      <point x="533" y="832" type="curve" smooth="yes"/>
      <point x="533" y="740"/>
      <point x="447" y="666"/>
    </contour>
    <contour>
      <point x="110" y="320" type="line"/>
      <point x="133" y="326"/>
      <point x="154" y="340"/>
      <point x="173" y="351" type="curve"/>
      <point x="595" y="1361" type="line"/>
      <point x="569" y="1374" type="line"/>
      <point x="542" y="1368"/>
      <point x="533" y="1359"/>
      <point x="508" y="1345" type="curve"/>
      <point x="84" y="335" type="line"/>
    </contour>
    <contour>
      <point x="820" y="1313" type="line"/>
      <point x="826" y="1324"/>
      <point x="835" y="1347"/>
      <point x="840" y="1363" type="curve"/>
      <point x="823" y="1376" type="line"/>
      <point x="522" y="1376" type="line"/>
      <point x="514" y="1362"/>
      <point x="507" y="1342"/>
      <point x="502" y="1326" type="curve"/>
      <point x="519" y="1313" type="line"/>
    </contour>
  </outline>
</glyph>
<glyph name="WSPSupDblFlagSlash" format="2">
  <advance width="840"/>
  <unicode hex="E044"/>
  <outline>
    <contour>
      <point x="811" y="1303" type="line"/>
      <point x="817" y="1314"/>
      <point x="830" y="1347"/>
      <point x="835" y="1363" type="curve"/>
      <point x="818" y="1376" type="line"/>
      <point x="517" y="1376" type="line"/>
      <point x="509" y="1362"/>
      <point x="498" y="1332"/>
      <point x="493" y="1316" type="curve"/>
      <point x="510" y="1303" type="line"/>
    </contour>
    <contour>
      <point x="748" y="1153" type="line"/>
      <point x="754" y="1164"/>
      <point x="767" y="1197"/>
      <point x="772" y="1213" type="curve"/>
      <point x="755" y="1226" type="line"/>
      <point x="457" y="1226" type="line"/>
      <point x="450" y="1212"/>
      <point x="438" y="1182"/>
      <point x="433" y="1166" type="curve"/>
      <point x="450" y="1153" type="line"/>
    </contour>
    <contour>
      <point x="105" y="320" type="line"/>
      <point x="128" y="326"/>
      <point x="159" y="342"/>
      <point x="178" y="353" type="curve"/>
      <point x="600" y="1363" type="line"/>
      <point x="574" y="1376" type="line"/>
      <point x="547" y="1370"/>
      <point x="528" y="1359"/>
      <point x="503" y="1345" type="curve"/>
      <point x="79" y="335" type="line"/>
    </contour>
    <contour>
      <point x="340" y="592" type="curve" smooth="yes"/>
      <point x="488" y="592"/>
      <point x="608" y="705"/>
      <point x="608" y="832" type="curve" smooth="yes"/>
      <point x="608" y="959"/>
      <point x="488" y="1072"/>
      <point x="340" y="1072" type="curve" smooth="yes"/>
      <point x="191" y="1072"/>
      <point x="71" y="959"/>
      <point x="71" y="832" type="curve" smooth="yes"/>
      <point x="71" y="705"/>
      <point x="191" y="592"/>
    </contour>
    <contour>
      <point x="340" y="666" type="curve" smooth="yes"/>
      <point x="232" y="666"/>
      <point x="156" y="740"/>
      <point x="156" y="832" type="curve" smooth="yes"/>
      <point x="156" y="924"/>
      <point x="232" y="997"/>
      <point x="340" y="997" type="curve" smooth="yes"/>
      <point x="447" y="997"/>
      <point x="523" y="924"/>
      <point x="523" y="832" type="curve" smooth="yes"/>
      <point x="523" y="740"/>
      <point x="447" y="666"/>
    </contour>
  </outline>
</glyph>
<glyph name="SupVertLine" format="2">
  <advance width="350"/>
  <unicode hex="E050"/>
  <outline>
    <contour>
      <point x="207" y="339"/>
      <point x="224" y="351" type="curve"/>
      <point x="224" y="1609" type="line"/>
      <point x="199" y="1622" type="line"/>
      <point x="172" y="1616"/>
      <point x="152" y="1606"/>
      <point x="126" y="1593" type="curve"/>
      <point x="126" y="334" type="line"/>
      <point x="150" y="320" type="line"/>
      <point x="174" y="327"/>
    </contour>
  </outline>
</glyph>
<glyph name="WSPLtnSupSmLBaseline" format="2">
  <advance width="411"/>
  <unicode hex="E10C"/>
  <outline>
    <contour>
      <point x="226" y="602" type="curve" smooth="yes"/>
      <point x="262" y="602"/>
      <point x="331" y="624"/>
      <point x="426" y="701" type="curve"/>
      <point x="414" y="732" type="line"/>
      <point x="354" y="695"/>
      <point x="307" y="684"/>
      <point x="297" y="684" type="curve" smooth="yes"/>
      <point x="255" y="684"/>
      <point x="245" y="694"/>
      <point x="245" y="802" type="curve" smooth="yes"/>
      <point x="245" y="1532" type="line"/>
      <point x="220" y="1550" type="line"/>
      <point x="175" y="1529"/>
      <point x="100" y="1509"/>
      <point x="41" y="1502" type="curve"/>
      <point x="41" y="1478" type="line"/>
      <point x="142" y="1470"/>
      <point x="140" y="1458"/>
      <point x="140" y="1376" type="curve" smooth="yes"/>
      <point x="140" y="742" type="line" smooth="yes"/>
      <point x="140" y="646"/>
      <point x="156" y="602"/>
    </contour>
  </outline>
</glyph>
<glyph name="WSPModCapISerif" format="2">
  <advance width="427"/>
  <unicode hex="E13B"/>
  <anchor x="206" y="620" name="H"/>
  <anchor x="206" y="560" name="L"/>
  <anchor x="241" y="620" name="O"/>
  <anchor x="406" y="1280" name="R"/>
  <anchor x="206" y="1442" name="U"/>
  <outline>
    <contour>
      <point x="49" y="620" type="line"/>
      <point x="364" y="620" type="line"/>
      <point x="364" y="656" type="line"/>
      <point x="297" y="677"/>
      <point x="272" y="693"/>
      <point x="272" y="702" type="curve" smooth="yes"/>
      <point x="272" y="1293" type="line" smooth="yes"/>
      <point x="272" y="1304"/>
      <point x="301" y="1329"/>
      <point x="364" y="1340" type="curve"/>
      <point x="364" y="1376" type="line"/>
      <point x="49" y="1376" type="line"/>
      <point x="49" y="1340" type="line"/>
      <point x="116" y="1329"/>
      <point x="140" y="1303"/>
      <point x="140" y="1293" type="curve" smooth="yes"/>
      <point x="140" y="702" type="line" smooth="yes"/>
      <point x="140" y="692"/>
      <point x="112" y="677"/>
      <point x="49" y="656" type="curve"/>
    </contour>
  </outline>
</glyph>
<glyph name="GrSupSmAlpha" format="2">
  <advance width="753"/>
  <unicode hex="E140"/>
  <anchor x="357" y="560" name="L"/>
  <anchor x="364" y="1250" name="U"/>
  <outline>
    <contour>
      <point x="267" y="602" type="curve" smooth="yes"/>
      <point x="332" y="602"/>
      <point x="405" y="657"/>
      <point x="476" y="776" type="curve"/>
      <point x="495" y="646"/>
      <point x="521" y="602"/>
      <point x="559" y="602" type="curve" smooth="yes"/>
      <point x="598" y="602"/>
      <point x="664" y="628"/>
      <point x="728" y="675" type="curve"/>
      <point x="725" y="698"/>
      <point x="722" y="705"/>
      <point x="720" y="712" type="curve"/>
      <point x="686" y="701"/>
      <point x="654" y="696"/>
      <point x="639" y="696" type="curve" smooth="yes"/>
      <point x="616" y="696"/>
      <point x="598" y="700"/>
      <point x="562" y="901" type="curve"/>
      <point x="611" y="1083"/>
      <point x="654" y="1130"/>
      <point x="725" y="1164" type="curve"/>
      <point x="720" y="1170"/>
      <point x="718" y="1178"/>
      <point x="711" y="1196" type="curve"/>
      <point x="667" y="1185"/>
      <point x="606" y="1177"/>
      <point x="566" y="1170" type="curve"/>
      <point x="569" y="1123"/>
      <point x="557" y="1061"/>
      <point x="539" y="997" type="curve"/>
      <point x="503" y="1129"/>
      <point x="421" y="1196"/>
      <point x="336" y="1196" type="curve" smooth="yes"/>
      <point x="171" y="1196"/>
      <point x="46" y="1041"/>
      <point x="46" y="867" type="curve" smooth="yes"/>
      <point x="46" y="693"/>
      <point x="150" y="602"/>
    </contour>
    <contour>
      <point x="293" y="701" type="curve" smooth="yes"/>
      <point x="205" y="701"/>
      <point x="164" y="802"/>
      <point x="164" y="916" type="curve" smooth="yes"/>
      <point x="164" y="1063"/>
      <point x="229" y="1123"/>
      <point x="300" y="1123" type="curve" smooth="yes"/>
      <point x="383" y="1123"/>
      <point x="437" y="1050"/>
      <point x="462" y="870" type="curve"/>
      <point x="422" y="783"/>
      <point x="365" y="701"/>
    </contour>
  </outline>
</glyph>
<glyph name="GrSupSmEpsilon" format="2">
  <advance width="603"/>
  <unicode hex="E144"/>
  <anchor x="340" y="1250" name="U"/>
  <outline>
    <contour>
      <point x="533" y="1096"/>
      <point x="568" y="1149" type="curve"/>
      <point x="561" y="1157"/>
      <point x="556" y="1174"/>
      <point x="546" y="1178" type="curve"/>
      <point x="540" y="1177"/>
      <point x="511" y="1173"/>
      <point x="505" y="1173" type="curve" smooth="yes"/>
      <point x="454" y="1173"/>
      <point x="405" y="1196"/>
      <point x="322" y="1196" type="curve" smooth="yes"/>
      <point x="225" y="1196"/>
      <point x="67" y="1128"/>
      <point x="67" y="1026" type="curve" smooth="yes"/>
      <point x="67" y="967"/>
      <point x="114" y="929"/>
      <point x="188" y="907" type="curve"/>
      <point x="104" y="878"/>
      <point x="39" y="824"/>
      <point x="39" y="754" type="curve" smooth="yes"/>
      <point x="39" y="667"/>
      <point x="141" y="602"/>
      <point x="287" y="602" type="curve" smooth="yes"/>
      <point x="410" y="602"/>
      <point x="483" y="631"/>
      <point x="578" y="703" type="curve"/>
      <point x="561" y="745" type="line"/>
      <point x="471" y="701"/>
      <point x="406" y="690"/>
      <point x="341" y="690" type="curve" smooth="yes"/>
      <point x="240" y="690"/>
      <point x="168" y="731"/>
      <point x="168" y="786" type="curve" smooth="yes"/>
      <point x="168" y="828"/>
      <point x="229" y="888"/>
      <point x="359" y="888" type="curve" smooth="yes"/>
      <point x="382" y="888"/>
      <point x="400" y="885"/>
      <point x="427" y="879" type="curve"/>
      <point x="463" y="945" type="line"/>
      <point x="449" y="957" type="line"/>
      <point x="421" y="952"/>
      <point x="386" y="948"/>
      <point x="361" y="948" type="curve" smooth="yes"/>
      <point x="236" y="948"/>
      <point x="178" y="997"/>
      <point x="178" y="1047" type="curve" smooth="yes"/>
      <point x="178" y="1098"/>
      <point x="216" y="1126"/>
      <point x="293" y="1126" type="curve" smooth="yes"/>
      <point x="369" y="1126"/>
      <point x="457" y="1066"/>
      <point x="477" y="1066" type="curve" smooth="yes"/>
      <point x="490" y="1066"/>
    </contour>
  </outline>
</glyph>
<glyph name="GrSupSmZeta" format="2">
  <advance width="573"/>
  <unicode hex="E145"/>
  <outline>
    <contour>
      <point x="360" y="1327"/>
      <point x="566" y="1459" type="curve"/>
      <point x="564" y="1470"/>
      <point x="557" y="1485"/>
      <point x="556" y="1495" type="curve"/>
      <point x="402" y="1477"/>
      <point x="298" y="1477"/>
      <point x="250" y="1477" type="curve" smooth="yes"/>
      <point x="190" y="1477"/>
      <point x="172" y="1531"/>
      <point x="166" y="1548" type="curve"/>
      <point x="162" y="1548"/>
      <point x="158" y="1549"/>
      <point x="154" y="1549" type="curve" smooth="yes"/>
      <point x="144" y="1549"/>
      <point x="134" y="1546"/>
      <point x="125" y="1544" type="curve"/>
      <point x="130" y="1516"/>
      <point x="144" y="1429"/>
      <point x="144" y="1429" type="curve"/>
      <point x="147" y="1407"/>
      <point x="186" y="1399"/>
      <point x="210" y="1399" type="curve" smooth="yes"/>
      <point x="242" y="1399"/>
      <point x="329" y="1404"/>
      <point x="428" y="1430" type="curve"/>
      <point x="204" y="1239"/>
      <point x="56" y="1039"/>
      <point x="56" y="832" type="curve" smooth="yes"/>
      <point x="56" y="552"/>
      <point x="442" y="666"/>
      <point x="442" y="527" type="curve" smooth="yes"/>
      <point x="442" y="487"/>
      <point x="414" y="436"/>
      <point x="344" y="357" type="curve"/>
      <point x="352" y="348"/>
      <point x="362" y="340"/>
      <point x="375" y="336" type="curve"/>
      <point x="510" y="452"/>
      <point x="551" y="514"/>
      <point x="551" y="573" type="curve" smooth="yes"/>
      <point x="551" y="751"/>
      <point x="168" y="645"/>
      <point x="168" y="868" type="curve" smooth="yes"/>
      <point x="168" y="1077"/>
    </contour>
  </outline>
</glyph>
<glyph name="GrSupSmEta" format="2">
  <advance width="765"/>
  <unicode hex="E146"/>
  <anchor x="194" y="560" name="L"/>
  <anchor x="413" y="1250" name="U"/>
  <outline>
    <contour>
      <point x="613" y="1196"/>
      <point x="508" y="1196" type="curve" smooth="yes"/>
      <point x="421" y="1196"/>
      <point x="333" y="1138"/>
      <point x="242" y="1026" type="curve"/>
      <point x="243" y="1026"/>
      <point x="236" y="1175"/>
      <point x="236" y="1175" type="curve"/>
      <point x="236" y="1175"/>
      <point x="211" y="1196"/>
      <point x="211" y="1196" type="curve"/>
      <point x="150" y="1173"/>
      <point x="105" y="1156"/>
      <point x="38" y="1148" type="curve"/>
      <point x="38" y="1124" type="line"/>
      <point x="139" y="1116"/>
      <point x="141" y="1113"/>
      <point x="141" y="1029" type="curve" smooth="yes"/>
      <point x="141" y="1027"/>
      <point x="141" y="754"/>
      <point x="141" y="752" type="curve"/>
      <point x="141" y="716"/>
      <point x="137" y="652"/>
      <point x="134" y="620" type="curve"/>
      <point x="161" y="602" type="line"/>
      <point x="195" y="615"/>
      <point x="228" y="623"/>
      <point x="260" y="633" type="curve"/>
      <point x="252" y="674"/>
      <point x="246" y="706"/>
      <point x="246" y="762" type="curve"/>
      <point x="246" y="762"/>
      <point x="246" y="950"/>
      <point x="246" y="949" type="curve"/>
      <point x="349" y="1087"/>
      <point x="416" y="1118"/>
      <point x="469" y="1118" type="curve" smooth="yes"/>
      <point x="542" y="1118"/>
      <point x="551" y="1058"/>
      <point x="551" y="980" type="curve" smooth="yes"/>
      <point x="551" y="979"/>
      <point x="551" y="549"/>
      <point x="551" y="547" type="curve" smooth="yes"/>
      <point x="551" y="501"/>
      <point x="549" y="405"/>
      <point x="547" y="373" type="curve"/>
      <point x="574" y="356" type="line"/>
      <point x="607" y="369"/>
      <point x="649" y="381"/>
      <point x="689" y="393" type="curve"/>
      <point x="659" y="423"/>
      <point x="656" y="503"/>
      <point x="656" y="649" type="curve" smooth="yes"/>
      <point x="656" y="661"/>
      <point x="656" y="1027"/>
      <point x="656" y="1034" type="curve" smooth="yes"/>
      <point x="656" y="1139"/>
    </contour>
  </outline>
</glyph>
<glyph name="GrSupSmTheta" format="2">
  <advance width="716"/>
  <unicode hex="E147"/>
  <anchor x="353" y="560" name="L"/>
  <anchor x="353" y="1592" name="U"/>
  <outline>
    <contour>
      <point x="654" y="801"/>
      <point x="652" y="1047" type="curve" smooth="yes"/>
      <point x="650" y="1293"/>
      <point x="556" y="1490"/>
      <point x="365" y="1490" type="curve" smooth="yes"/>
      <point x="192" y="1490"/>
      <point x="62" y="1279"/>
      <point x="63" y="1034" type="curve"/>
      <point x="63" y="788"/>
      <point x="160" y="602"/>
      <point x="344" y="602" type="curve" smooth="yes"/>
      <point x="527" y="602"/>
    </contour>
    <contour>
      <point x="503" y="674"/>
      <point x="368" y="674" type="curve" smooth="yes"/>
      <point x="249" y="674"/>
      <point x="186" y="832"/>
      <point x="176" y="1022" type="curve"/>
      <point x="284" y="1030"/>
      <point x="419" y="1030"/>
      <point x="540" y="1023" type="curve"/>
      <point x="547" y="796"/>
    </contour>
    <contour>
      <point x="223" y="1418"/>
      <point x="350" y="1418" type="curve" smooth="yes"/>
      <point x="459" y="1418"/>
      <point x="520" y="1270"/>
      <point x="536" y="1087" type="curve"/>
      <point x="424" y="1081"/>
      <point x="304" y="1078"/>
      <point x="175" y="1088" type="curve"/>
      <point x="176" y="1306"/>
    </contour>
  </outline>
</glyph>
<glyph name="GrSupSmIota" format="2">
  <advance width="422"/>
  <unicode hex="E148"/>
  <anchor x="207" y="1250" name="U"/>
  <outline>
    <contour>
      <point x="320" y="618"/>
      <point x="405" y="675" type="curve"/>
      <point x="398" y="713" type="line"/>
      <point x="340" y="688"/>
      <point x="315" y="683"/>
      <point x="301" y="683" type="curve" smooth="yes"/>
      <point x="282" y="683"/>
      <point x="268" y="692"/>
      <point x="270" y="803" type="curve" smooth="yes"/>
      <point x="277" y="1172" type="line"/>
      <point x="254" y="1196" type="line"/>
      <point x="193" y="1173"/>
      <point x="109" y="1156"/>
      <point x="49" y="1147" type="curve"/>
      <point x="49" y="1113" type="line"/>
      <point x="143" y="1113"/>
      <point x="147" y="1095"/>
      <point x="145" y="1011" type="curve" smooth="yes"/>
      <point x="139" y="742" type="line" smooth="yes"/>
      <point x="137" y="645"/>
      <point x="165" y="602"/>
      <point x="230" y="602" type="curve" smooth="yes"/>
      <point x="260" y="602"/>
    </contour>
  </outline>
</glyph>
<glyph name="GrSupSmKappa" format="2">
  <advance width="732"/>
  <unicode hex="E149"/>
  <outline>
    <contour>
      <point x="662" y="1190"/>
      <point x="657" y="1196" type="curve"/>
      <point x="583" y="1196"/>
      <point x="519" y="1177"/>
      <point x="238" y="870" type="curve"/>
      <point x="238" y="913"/>
      <point x="238" y="1176"/>
      <point x="238" y="1176" type="curve"/>
      <point x="238" y="1176"/>
      <point x="218" y="1196"/>
      <point x="218" y="1196" type="curve"/>
      <point x="172" y="1180"/>
      <point x="99" y="1157"/>
      <point x="30" y="1148" type="curve"/>
      <point x="30" y="1124" type="line"/>
      <point x="133" y="1116"/>
      <point x="133" y="1111"/>
      <point x="133" y="1024" type="curve" smooth="yes"/>
      <point x="133" y="954"/>
      <point x="133" y="851"/>
      <point x="133" y="771" type="curve" smooth="yes"/>
      <point x="133" y="707"/>
      <point x="130" y="646"/>
      <point x="124" y="620" type="curve"/>
      <point x="150" y="601" type="line"/>
      <point x="178" y="612"/>
      <point x="225" y="627"/>
      <point x="249" y="635" type="curve"/>
      <point x="244" y="667"/>
      <point x="238" y="748"/>
      <point x="238" y="795" type="curve"/>
      <point x="486" y="1047"/>
      <point x="524" y="1071"/>
      <point x="608" y="1082" type="curve"/>
      <point x="629" y="1101"/>
      <point x="652" y="1139"/>
      <point x="671" y="1179" type="curve"/>
      <point x="672" y="1177"/>
    </contour>
    <contour>
      <point x="646" y="628"/>
      <point x="722" y="669" type="curve"/>
      <point x="720" y="677"/>
      <point x="717" y="687"/>
      <point x="715" y="696" type="curve"/>
      <point x="678" y="685"/>
      <point x="661" y="679"/>
      <point x="629" y="679" type="curve" smooth="yes"/>
      <point x="556" y="679"/>
      <point x="497" y="957"/>
      <point x="408" y="957" type="curve" smooth="yes"/>
      <point x="383" y="957"/>
      <point x="251" y="946"/>
      <point x="169" y="738" type="curve"/>
      <point x="181" y="724"/>
      <point x="195" y="725"/>
      <point x="195" y="725" type="curve"/>
      <point x="210" y="787"/>
      <point x="309" y="882"/>
      <point x="358" y="882" type="curve" smooth="yes"/>
      <point x="431" y="882"/>
      <point x="481" y="601"/>
      <point x="557" y="601" type="curve" smooth="yes"/>
      <point x="582" y="601"/>
    </contour>
  </outline>
</glyph>
<glyph name="GrSupSmLamda" format="2">
  <advance width="758"/>
  <unicode hex="E14A"/>
  <anchor x="389" y="560" name="L"/>
  <anchor x="389" y="1634" name="U"/>
  <outline>
    <contour>
      <point x="695" y="630"/>
      <point x="765" y="675" type="curve"/>
      <point x="758" y="702" type="line"/>
      <point x="712" y="684"/>
      <point x="700" y="680"/>
      <point x="678" y="680" type="curve" smooth="yes"/>
      <point x="626" y="680"/>
      <point x="566" y="844"/>
      <point x="491" y="1081" type="curve" smooth="yes"/>
      <point x="362" y="1492"/>
      <point x="332" y="1526"/>
      <point x="267" y="1526" type="curve" smooth="yes"/>
      <point x="228" y="1526"/>
      <point x="173" y="1500"/>
      <point x="79" y="1418" type="curve"/>
      <point x="96" y="1387" type="line"/>
      <point x="141" y="1418"/>
      <point x="173" y="1430"/>
      <point x="206" y="1430" type="curve" smooth="yes"/>
      <point x="256" y="1430"/>
      <point x="298" y="1391"/>
      <point x="400" y="1066" type="curve" smooth="yes"/>
      <point x="522" y="677"/>
      <point x="547" y="602"/>
      <point x="621" y="602" type="curve" smooth="yes"/>
      <point x="652" y="602"/>
    </contour>
    <contour>
      <point x="322" y="1001"/>
      <point x="400" y="1181" type="curve"/>
      <point x="396" y="1193"/>
      <point x="377" y="1273"/>
      <point x="357" y="1288" type="curve"/>
      <point x="302" y="1120"/>
      <point x="163" y="784"/>
      <point x="14" y="621" type="curve"/>
      <point x="35" y="602" type="line"/>
      <point x="68" y="610"/>
      <point x="138" y="627"/>
      <point x="174" y="636" type="curve"/>
      <point x="251" y="843"/>
    </contour>
  </outline>
</glyph>
<glyph name="GrSupSmMu" format="2">
  <advance width="773"/>
  <unicode hex="E14B"/>
  <outline>
    <contour>
      <point x="760" y="669" type="curve"/>
      <point x="752" y="707" type="line"/>
      <point x="722" y="697"/>
      <point x="709" y="690"/>
      <point x="688" y="690" type="curve" smooth="yes"/>
      <point x="669" y="690"/>
      <point x="661" y="716"/>
      <point x="661" y="791" type="curve" smooth="yes"/>
      <point x="661" y="815"/>
      <point x="661" y="1062"/>
      <point x="661" y="1075" type="curve"/>
      <point x="662" y="1125"/>
      <point x="669" y="1152"/>
      <point x="672" y="1173" type="curve"/>
      <point x="672" y="1173"/>
      <point x="653" y="1196"/>
      <point x="653" y="1196" type="curve"/>
      <point x="615" y="1183"/>
      <point x="550" y="1170"/>
      <point x="509" y="1160" type="curve"/>
      <point x="522" y="1145"/>
      <point x="536" y="1095"/>
      <point x="536" y="1069" type="curve" smooth="yes"/>
      <point x="536" y="1050"/>
      <point x="536" y="767"/>
      <point x="536" y="750" type="curve" smooth="yes"/>
      <point x="536" y="672"/>
      <point x="552" y="602"/>
      <point x="604" y="602" type="curve" smooth="yes"/>
      <point x="636" y="602"/>
      <point x="704" y="639"/>
    </contour>
    <contour>
      <point x="589" y="778" type="curve"/>
      <point x="578" y="842" type="line"/>
      <point x="488" y="722"/>
      <point x="423" y="708"/>
      <point x="366" y="708" type="curve" smooth="yes"/>
      <point x="288" y="708"/>
      <point x="248" y="794"/>
      <point x="248" y="850" type="curve" smooth="yes"/>
      <point x="248" y="858"/>
      <point x="248" y="1165"/>
      <point x="248" y="1170" type="curve"/>
      <point x="240" y="1179"/>
      <point x="222" y="1196"/>
      <point x="221" y="1196" type="curve"/>
      <point x="172" y="1174"/>
      <point x="115" y="1167"/>
      <point x="43" y="1156" type="curve"/>
      <point x="43" y="1122" type="line"/>
      <point x="121" y="1115"/>
      <point x="123" y="1110"/>
      <point x="123" y="1049" type="curve" smooth="yes"/>
      <point x="123" y="1041"/>
      <point x="123" y="897"/>
      <point x="123" y="885" type="curve" smooth="yes"/>
      <point x="123" y="718"/>
      <point x="243" y="602"/>
      <point x="343" y="602" type="curve" smooth="yes"/>
      <point x="407" y="602"/>
      <point x="498" y="662"/>
    </contour>
    <contour>
      <point x="191" y="822"/>
      <point x="191" y="895" type="curve"/>
      <point x="186" y="927"/>
      <point x="123" y="989"/>
      <point x="123" y="989" type="curve"/>
      <point x="123" y="946"/>
      <point x="123" y="355"/>
      <point x="123" y="337" type="curve"/>
      <point x="150" y="320" type="line"/>
      <point x="173" y="330"/>
      <point x="260" y="354"/>
      <point x="288" y="362" type="curve"/>
      <point x="239" y="412"/>
      <point x="191" y="512"/>
      <point x="191" y="690" type="curve"/>
      <point x="192" y="783"/>
    </contour>
  </outline>
</glyph>
<glyph name="GrSupSmNu" format="2">
  <advance width="728"/>
  <unicode hex="E14C"/>
  <outline>
    <contour>
      <point x="639" y="1014"/>
      <point x="672" y="1177" type="curve"/>
      <point x="667" y="1182"/>
      <point x="657" y="1192"/>
      <point x="650" y="1196" type="curve"/>
      <point x="612" y="1188"/>
      <point x="571" y="1179"/>
      <point x="528" y="1168" type="curve"/>
      <point x="562" y="1060"/>
      <point x="524" y="873"/>
      <point x="394" y="717" type="curve"/>
      <point x="347" y="891"/>
      <point x="267" y="1057"/>
      <point x="237" y="1119" type="curve" smooth="yes"/>
      <point x="207" y="1176"/>
      <point x="178" y="1196"/>
      <point x="156" y="1196" type="curve"/>
      <point x="115" y="1177"/>
      <point x="66" y="1158"/>
      <point x="7" y="1146" type="curve"/>
      <point x="7" y="1123" type="line"/>
      <point x="7" y="1123"/>
      <point x="68" y="1125"/>
      <point x="89" y="1117" type="curve" smooth="yes"/>
      <point x="106" y="1110"/>
      <point x="130" y="1093"/>
      <point x="144" y="1066" type="curve" smooth="yes"/>
      <point x="181" y="991"/>
      <point x="261" y="819"/>
      <point x="317" y="620" type="curve"/>
      <point x="345" y="601" type="line"/>
      <point x="363" y="609"/>
      <point x="395" y="620"/>
      <point x="410" y="627" type="curve"/>
      <point x="585" y="880"/>
    </contour>
  </outline>
</glyph>
<glyph name="GrSupSmXi" format="2">
  <advance width="628"/>
  <unicode hex="E14D"/>
  <outline>
    <contour>
      <point x="364" y="1417"/>
      <point x="598" y="1472" type="curve"/>
      <point x="596" y="1485"/>
      <point x="592" y="1517"/>
      <point x="584" y="1530" type="curve"/>
      <point x="439" y="1520"/>
      <point x="364" y="1517"/>
      <point x="290" y="1517" type="curve" smooth="yes"/>
      <point x="241" y="1517"/>
      <point x="226" y="1528"/>
      <point x="203" y="1580" type="curve"/>
      <point x="190" y="1580"/>
      <point x="168" y="1569"/>
      <point x="156" y="1565" type="curve"/>
      <point x="187" y="1448"/>
      <point x="193" y="1435"/>
      <point x="230" y="1435" type="curve" smooth="yes"/>
      <point x="246" y="1435"/>
      <point x="349" y="1445"/>
      <point x="395" y="1454" type="curve"/>
      <point x="225" y="1394"/>
      <point x="134" y="1326"/>
      <point x="134" y="1245" type="curve" smooth="yes"/>
      <point x="134" y="1196"/>
      <point x="172" y="1135"/>
      <point x="312" y="1111" type="curve"/>
      <point x="155" y="1062"/>
      <point x="46" y="931"/>
      <point x="46" y="812" type="curve" smooth="yes"/>
      <point x="46" y="524"/>
      <point x="491" y="653"/>
      <point x="491" y="487" type="curve" smooth="yes"/>
      <point x="491" y="453"/>
      <point x="472" y="418"/>
      <point x="414" y="357" type="curve"/>
      <point x="423" y="348"/>
      <point x="441" y="340"/>
      <point x="456" y="336" type="curve"/>
      <point x="581" y="439"/>
      <point x="623" y="505"/>
      <point x="623" y="552" type="curve" smooth="yes"/>
      <point x="623" y="730"/>
      <point x="171" y="646"/>
      <point x="171" y="839" type="curve" smooth="yes"/>
      <point x="171" y="951"/>
      <point x="289" y="1080"/>
      <point x="536" y="1106" type="curve"/>
      <point x="533" y="1122"/>
      <point x="533" y="1149"/>
      <point x="531" y="1164" type="curve"/>
      <point x="515" y="1163"/>
      <point x="497" y="1161"/>
      <point x="477" y="1161" type="curve" smooth="yes"/>
      <point x="370" y="1161"/>
      <point x="262" y="1182"/>
      <point x="262" y="1265" type="curve" smooth="yes"/>
      <point x="262" y="1347"/>
    </contour>
  </outline>
</glyph>
<glyph name="GrSupSmOmicron" format="2">
  <advance width="714"/>
  <unicode hex="E14E"/>
  <anchor x="375" y="1250" name="U"/>
  <outline>
    <contour>
      <point x="664" y="751"/>
      <point x="664" y="911" type="curve"/>
      <point x="664" y="1075"/>
      <point x="547" y="1196"/>
      <point x="371" y="1196" type="curve" smooth="yes"/>
      <point x="196" y="1196"/>
      <point x="49" y="1045"/>
      <point x="49" y="886" type="curve" smooth="yes"/>
      <point x="49" y="723"/>
      <point x="170" y="602"/>
      <point x="344" y="602" type="curve" smooth="yes"/>
      <point x="514" y="602"/>
    </contour>
    <contour>
      <point x="536" y="1020"/>
      <point x="536" y="893" type="curve"/>
      <point x="536" y="756"/>
      <point x="484" y="678"/>
      <point x="370" y="678" type="curve" smooth="yes"/>
      <point x="278" y="678"/>
      <point x="178" y="777"/>
      <point x="178" y="904" type="curve" smooth="yes"/>
      <point x="178" y="1032"/>
      <point x="227" y="1120"/>
      <point x="351" y="1120" type="curve" smooth="yes"/>
      <point x="442" y="1120"/>
    </contour>
  </outline>
</glyph>
<glyph name="GrSupSmPi" format="2">
  <advance width="754"/>
  <unicode hex="E14F"/>
  <anchor x="404" y="560" name="L"/>
  <anchor x="404" y="1250" name="U"/>
  <outline>
    <contour>
      <point x="597" y="1079" type="curve" smooth="yes"/>
      <point x="641" y="1079"/>
      <point x="692" y="1122"/>
      <point x="741" y="1179" type="curve"/>
      <point x="721" y="1196" type="line"/>
      <point x="692" y="1179"/>
      <point x="659" y="1178"/>
      <point x="620" y="1178" type="curve" smooth="yes"/>
      <point x="493" y="1178"/>
      <point x="389" y="1178"/>
      <point x="176" y="1178" type="curve" smooth="yes"/>
      <point x="118" y="1178"/>
      <point x="68" y="1135"/>
      <point x="14" y="1080" type="curve"/>
      <point x="30" y="1048" type="line"/>
      <point x="83" y="1080"/>
      <point x="114" y="1086"/>
      <point x="173" y="1086" type="curve" smooth="yes"/>
      <point x="357" y="1086"/>
      <point x="441" y="1079"/>
    </contour>
    <contour>
      <point x="554" y="601" type="curve" smooth="yes"/>
      <point x="595" y="601"/>
      <point x="636" y="618"/>
      <point x="732" y="686" type="curve"/>
      <point x="717" y="722" type="line"/>
      <point x="653" y="701"/>
      <point x="631" y="698"/>
      <point x="603" y="698" type="curve" smooth="yes"/>
      <point x="560" y="698"/>
      <point x="552" y="748"/>
      <point x="552" y="894" type="curve" smooth="yes"/>
      <point x="552" y="972"/>
      <point x="555" y="1060"/>
      <point x="569" y="1137" type="curve"/>
      <point x="479" y="1130" type="line"/>
      <point x="459" y="936"/>
      <point x="446" y="836"/>
      <point x="446" y="780" type="curve" smooth="yes"/>
      <point x="446" y="670"/>
      <point x="489" y="601"/>
    </contour>
    <contour>
      <point x="274" y="800" type="curve" smooth="yes"/>
      <point x="274" y="930"/>
      <point x="282" y="1061"/>
      <point x="295" y="1165" type="curve"/>
      <point x="295" y="1165"/>
      <point x="234" y="1158"/>
      <point x="214" y="1151" type="curve"/>
      <point x="178" y="759"/>
      <point x="161" y="729"/>
      <point x="81" y="632" type="curve"/>
      <point x="81" y="632"/>
      <point x="96" y="606"/>
      <point x="101" y="601" type="curve"/>
      <point x="143" y="611"/>
      <point x="256" y="636"/>
      <point x="281" y="650" type="curve"/>
      <point x="276" y="694"/>
      <point x="274" y="743"/>
    </contour>
  </outline>
</glyph>
<glyph name="GrSupSmRho" format="2">
  <advance width="685"/>
  <unicode hex="E150"/>
  <anchor x="361" y="1250" name="U"/>
  <outline>
    <contour>
      <point x="623" y="762"/>
      <point x="623" y="934" type="curve" smooth="yes"/>
      <point x="623" y="1067"/>
      <point x="538" y="1196"/>
      <point x="378" y="1196" type="curve" smooth="yes"/>
      <point x="234" y="1196"/>
      <point x="98" y="1079"/>
      <point x="98" y="863" type="curve" smooth="yes"/>
      <point x="98" y="748"/>
      <point x="98" y="415"/>
      <point x="98" y="334" type="curve"/>
      <point x="106" y="327"/>
      <point x="108" y="324"/>
      <point x="118" y="320" type="curve"/>
      <point x="157" y="334"/>
      <point x="189" y="345"/>
      <point x="232" y="357" type="curve"/>
      <point x="204" y="400"/>
      <point x="203" y="541"/>
      <point x="203" y="663" type="curve" smooth="yes"/>
      <point x="203" y="677"/>
      <point x="203" y="804"/>
      <point x="203" y="870" type="curve" smooth="yes"/>
      <point x="203" y="1067"/>
      <point x="270" y="1133"/>
      <point x="339" y="1133" type="curve" smooth="yes"/>
      <point x="435" y="1133"/>
      <point x="518" y="1041"/>
      <point x="518" y="887" type="curve" smooth="yes"/>
      <point x="518" y="754"/>
      <point x="465" y="680"/>
      <point x="368" y="680" type="curve" smooth="yes"/>
      <point x="314" y="680"/>
      <point x="276" y="698"/>
      <point x="166" y="769" type="curve"/>
      <point x="119" y="764"/>
      <point x="162" y="738"/>
      <point x="145" y="727" type="curve"/>
      <point x="265" y="620"/>
      <point x="329" y="602"/>
      <point x="370" y="602" type="curve" smooth="yes"/>
      <point x="482" y="602"/>
    </contour>
  </outline>
</glyph>
<glyph name="GrSupSmSigma" format="2">
  <advance width="686"/>
  <unicode hex="E151"/>
  <anchor x="336" y="560" name="L"/>
  <anchor x="336" y="1250" name="U"/>
  <outline>
    <contour>
      <point x="564" y="1093" type="curve" smooth="yes"/>
      <point x="612" y="1093"/>
      <point x="629" y="1102"/>
      <point x="686" y="1179" type="curve"/>
      <point x="668" y="1196" type="line"/>
      <point x="640" y="1178"/>
      <point x="636" y="1178"/>
      <point x="580" y="1178" type="curve" smooth="yes"/>
      <point x="502" y="1178"/>
      <point x="444" y="1178"/>
      <point x="365" y="1178" type="curve" smooth="yes"/>
      <point x="189" y="1178"/>
      <point x="56" y="1024"/>
      <point x="56" y="877" type="curve" smooth="yes"/>
      <point x="56" y="732"/>
      <point x="169" y="602"/>
      <point x="322" y="602" type="curve" smooth="yes"/>
      <point x="503" y="602"/>
      <point x="606" y="779"/>
      <point x="606" y="874" type="curve" smooth="yes"/>
      <point x="606" y="963"/>
      <point x="562" y="1027"/>
      <point x="458" y="1091" type="curve"/>
      <point x="440" y="1100"/>
      <point x="385" y="1105"/>
      <point x="383" y="1105" type="curve"/>
      <point x="384" y="1105" type="line"/>
      <point x="434" y="1065"/>
      <point x="503" y="969"/>
      <point x="503" y="848" type="curve" smooth="yes"/>
      <point x="503" y="766"/>
      <point x="472" y="671"/>
      <point x="354" y="671" type="curve" smooth="yes"/>
      <point x="235" y="671"/>
      <point x="154" y="810"/>
      <point x="154" y="927" type="curve" smooth="yes"/>
      <point x="154" y="1015"/>
      <point x="203" y="1097"/>
      <point x="309" y="1097" type="curve" smooth="yes"/>
      <point x="350" y="1097"/>
      <point x="496" y="1093"/>
    </contour>
  </outline>
</glyph>
<glyph name="GrSupSmTau" format="2">
  <advance width="616"/>
  <unicode hex="E152"/>
  <outline>
    <contour>
      <point x="569" y="1116"/>
      <point x="617" y="1168" type="curve"/>
      <point x="598" y="1196" type="line"/>
      <point x="577" y="1181"/>
      <point x="542" y="1178"/>
      <point x="496" y="1178" type="curve" smooth="yes"/>
      <point x="431" y="1178"/>
      <point x="363" y="1178"/>
      <point x="182" y="1178" type="curve" smooth="yes"/>
      <point x="122" y="1178"/>
      <point x="66" y="1129"/>
      <point x="21" y="1083" type="curve"/>
      <point x="36" y="1052" type="line"/>
      <point x="83" y="1077"/>
      <point x="111" y="1087"/>
      <point x="149" y="1087" type="curve" smooth="yes"/>
      <point x="178" y="1087" type="line" smooth="yes"/>
      <point x="252" y="1087"/>
      <point x="407" y="1081"/>
      <point x="481" y="1081" type="curve" smooth="yes"/>
      <point x="530" y="1081"/>
    </contour>
    <contour>
      <point x="438" y="635"/>
      <point x="543" y="696" type="curve"/>
      <point x="526" y="733" type="line"/>
      <point x="451" y="706"/>
      <point x="413" y="696"/>
      <point x="378" y="696" type="curve" smooth="yes"/>
      <point x="324" y="696"/>
      <point x="318" y="784"/>
      <point x="318" y="835" type="curve" smooth="yes"/>
      <point x="318" y="914"/>
      <point x="319" y="1015"/>
      <point x="328" y="1144" type="curve"/>
      <point x="238" y="1147" type="line"/>
      <point x="225" y="999"/>
      <point x="200" y="861"/>
      <point x="200" y="757" type="curve" smooth="yes"/>
      <point x="200" y="684"/>
      <point x="239" y="602"/>
      <point x="316" y="602" type="curve" smooth="yes"/>
      <point x="376" y="602"/>
    </contour>
  </outline>
</glyph>
<glyph name="GrSupSmUpsilon" format="2">
  <advance width="728"/>
  <unicode hex="E153"/>
  <anchor x="388" y="1250" name="U"/>
  <outline>
    <contour>
      <point x="327" y="601" type="curve" smooth="yes"/>
      <point x="529" y="601"/>
      <point x="680" y="817"/>
      <point x="681" y="984" type="curve"/>
      <point x="682" y="1104"/>
      <point x="642" y="1180"/>
      <point x="583" y="1196" type="curve"/>
      <point x="547" y="1189"/>
      <point x="465" y="1163"/>
      <point x="430" y="1149" type="curve"/>
      <point x="442" y="1117" type="line"/>
      <point x="525" y="1101"/>
      <point x="564" y="1049"/>
      <point x="563" y="952" type="curve" smooth="yes"/>
      <point x="563" y="849"/>
      <point x="497" y="685"/>
      <point x="371" y="685" type="curve" smooth="yes"/>
      <point x="299" y="685"/>
      <point x="242" y="735"/>
      <point x="242" y="877" type="curve" smooth="yes"/>
      <point x="242" y="1008"/>
      <point x="263" y="1132"/>
      <point x="251" y="1173" type="curve"/>
      <point x="251" y="1173"/>
      <point x="231" y="1196"/>
      <point x="231" y="1196" type="curve"/>
      <point x="168" y="1173"/>
      <point x="103" y="1161"/>
      <point x="38" y="1156" type="curve"/>
      <point x="38" y="1122" type="line"/>
      <point x="117" y="1120"/>
      <point x="126" y="1104"/>
      <point x="126" y="1061" type="curve" smooth="yes"/>
      <point x="126" y="973"/>
      <point x="117" y="926"/>
      <point x="117" y="841" type="curve" smooth="yes"/>
      <point x="117" y="661"/>
      <point x="237" y="601"/>
    </contour>
  </outline>
</glyph>
<glyph name="GrSupPhiSym" format="2">
  <advance width="976"/>
  <unicode hex="E154"/>
  <outline>
    <contour>
      <point x="797" y="1187"/>
      <point x="534" y="1200" type="curve"/>
      <point x="540" y="1274"/>
      <point x="545" y="1363"/>
      <point x="554" y="1420" type="curve"/>
      <point x="552" y="1425"/>
      <point x="543" y="1435"/>
      <point x="536" y="1440" type="curve"/>
      <point x="503" y="1431"/>
      <point x="459" y="1420"/>
      <point x="419" y="1402" type="curve"/>
      <point x="425" y="1354"/>
      <point x="430" y="1256"/>
      <point x="434" y="1199" type="curve"/>
      <point x="198" y="1183"/>
      <point x="56" y="1058"/>
      <point x="56" y="901" type="curve" smooth="yes"/>
      <point x="56" y="723"/>
      <point x="220" y="613"/>
      <point x="433" y="602" type="curve"/>
      <point x="427" y="508"/>
      <point x="421" y="413"/>
      <point x="410" y="346" type="curve"/>
      <point x="419" y="338"/>
      <point x="422" y="334"/>
      <point x="432" y="330" type="curve"/>
      <point x="467" y="343"/>
      <point x="505" y="354"/>
      <point x="540" y="364" type="curve"/>
      <point x="536" y="413"/>
      <point x="528" y="528"/>
      <point x="526" y="601" type="curve"/>
      <point x="731" y="609"/>
      <point x="920" y="717"/>
      <point x="918" y="901" type="curve" smooth="yes"/>
      <point x="917" y="1056"/>
    </contour>
    <contour>
      <point x="805" y="1036"/>
      <point x="805" y="886" type="curve" smooth="yes"/>
      <point x="805" y="761"/>
      <point x="709" y="654"/>
      <point x="524" y="649" type="curve"/>
      <point x="524" y="696"/>
      <point x="522" y="744"/>
      <point x="522" y="793" type="curve" smooth="yes"/>
      <point x="522" y="910"/>
      <point x="526" y="1033"/>
      <point x="532" y="1151" type="curve"/>
      <point x="685" y="1135"/>
    </contour>
    <contour>
      <point x="246" y="1146"/>
      <point x="437" y="1155" type="curve"/>
      <point x="441" y="1077"/>
      <point x="444" y="996"/>
      <point x="444" y="915" type="curve" smooth="yes"/>
      <point x="444" y="826"/>
      <point x="440" y="738"/>
      <point x="436" y="653" type="curve"/>
      <point x="266" y="677"/>
      <point x="165" y="787"/>
      <point x="165" y="911" type="curve" smooth="yes"/>
      <point x="165" y="1021"/>
    </contour>
  </outline>
</glyph>
<glyph name="GrSupSmPsi" format="2">
  <advance width="946"/>
  <unicode hex="E157"/>
  <outline>
    <contour>
      <point x="548" y="1261"/>
      <point x="571" y="1420" type="curve"/>
      <point x="569" y="1425"/>
      <point x="559" y="1435"/>
      <point x="553" y="1440" type="curve"/>
      <point x="520" y="1431"/>
      <point x="483" y="1420"/>
      <point x="438" y="1404" type="curve"/>
      <point x="454" y="1277"/>
      <point x="465" y="1078"/>
      <point x="465" y="913" type="curve" smooth="yes"/>
      <point x="465" y="706"/>
      <point x="451" y="485"/>
      <point x="428" y="346" type="curve"/>
      <point x="438" y="338"/>
      <point x="440" y="334"/>
      <point x="451" y="330" type="curve"/>
      <point x="484" y="341"/>
      <point x="528" y="354"/>
      <point x="558" y="363" type="curve"/>
      <point x="545" y="450"/>
      <point x="536" y="642"/>
      <point x="536" y="793" type="curve" smooth="yes"/>
      <point x="536" y="1008"/>
    </contour>
    <contour>
      <point x="861" y="1141"/>
      <point x="834" y="1189" type="curve"/>
      <point x="821" y="1192"/>
      <point x="818" y="1192"/>
      <point x="805" y="1197" type="curve"/>
      <point x="774" y="1181"/>
      <point x="731" y="1158"/>
      <point x="701" y="1139" type="curve"/>
      <point x="760" y="1100"/>
      <point x="782" y="1011"/>
      <point x="782" y="945" type="curve" smooth="yes"/>
      <point x="782" y="796"/>
      <point x="681" y="662"/>
      <point x="522" y="662" type="curve" smooth="yes"/>
      <point x="306" y="662"/>
      <point x="248" y="774"/>
      <point x="248" y="910" type="curve" smooth="yes"/>
      <point x="248" y="969"/>
      <point x="258" y="1043"/>
      <point x="258" y="1104" type="curve" smooth="yes"/>
      <point x="258" y="1172"/>
      <point x="244" y="1188"/>
      <point x="222" y="1196" type="curve"/>
      <point x="181" y="1178"/>
      <point x="121" y="1164"/>
      <point x="41" y="1156" type="curve"/>
      <point x="41" y="1132" type="line"/>
      <point x="135" y="1127"/>
      <point x="153" y="1102"/>
      <point x="153" y="1065" type="curve" smooth="yes"/>
      <point x="153" y="1007"/>
      <point x="144" y="938"/>
      <point x="144" y="883" type="curve" smooth="yes"/>
      <point x="144" y="744"/>
      <point x="223" y="596"/>
      <point x="494" y="596" type="curve" smooth="yes"/>
      <point x="760" y="596"/>
      <point x="876" y="837"/>
      <point x="876" y="1012" type="curve" smooth="yes"/>
      <point x="876" y="1069"/>
    </contour>
  </outline>
</glyph>
<glyph name="GrSupSmOmega" format="2">
  <advance width="1004"/>
  <unicode hex="E158"/>
  <anchor x="503" y="560" name="L"/>
  <anchor x="524" y="1250" name="U"/>
  <outline>
    <contour>
      <point x="951" y="715"/>
      <point x="951" y="901" type="curve" smooth="yes"/>
      <point x="951" y="1024"/>
      <point x="863" y="1144"/>
      <point x="760" y="1200" type="curve"/>
      <point x="751" y="1197"/>
      <point x="715" y="1178"/>
      <point x="706" y="1173" type="curve"/>
      <point x="790" y="1074"/>
      <point x="820" y="999"/>
      <point x="820" y="885" type="curve" smooth="yes"/>
      <point x="820" y="776"/>
      <point x="774" y="684"/>
      <point x="684" y="684" type="curve" smooth="yes"/>
      <point x="582" y="684"/>
      <point x="563" y="758"/>
      <point x="560" y="838" type="curve" smooth="yes"/>
      <point x="558" y="931"/>
      <point x="579" y="1010"/>
      <point x="579" y="1010" type="curve"/>
      <point x="579" y="1010"/>
      <point x="566" y="1022"/>
      <point x="559" y="1030" type="curve"/>
      <point x="529" y="1019"/>
      <point x="476" y="998"/>
      <point x="437" y="985" type="curve"/>
      <point x="444" y="961"/>
      <point x="453" y="893"/>
      <point x="454" y="834" type="curve" smooth="yes"/>
      <point x="453" y="756"/>
      <point x="405" y="684"/>
      <point x="338" y="684" type="curve" smooth="yes"/>
      <point x="235" y="684"/>
      <point x="185" y="781"/>
      <point x="185" y="895" type="curve" smooth="yes"/>
      <point x="185" y="991"/>
      <point x="208" y="1077"/>
      <point x="312" y="1173" type="curve"/>
      <point x="305" y="1178"/>
      <point x="265" y="1196"/>
      <point x="258" y="1200" type="curve"/>
      <point x="138" y="1137"/>
      <point x="53" y="1003"/>
      <point x="53" y="874" type="curve" smooth="yes"/>
      <point x="53" y="702"/>
      <point x="162" y="602"/>
      <point x="295" y="602" type="curve" smooth="yes"/>
      <point x="418" y="602"/>
      <point x="475" y="673"/>
      <point x="505" y="744" type="curve"/>
      <point x="526" y="670"/>
      <point x="580" y="602"/>
      <point x="685" y="602" type="curve" smooth="yes"/>
      <point x="806" y="602"/>
    </contour>
  </outline>
</glyph>
<glyph name="GrSupCapAlpha" format="2">
  <advance width="853"/>
  <unicode hex="E160"/>
  <anchor x="161" y="1376" name="G"/>
  <anchor x="413" y="560" name="L"/>
  <anchor x="413" y="1442" name="U"/>
  <outline>
    <contour>
      <point x="267" y="882" type="line"/>
      <point x="546" y="882" type="line"/>
      <point x="622" y="697" type="line"/>
      <point x="634" y="671"/>
      <point x="615" y="659"/>
      <point x="543" y="656" type="curve"/>
      <point x="543" y="620" type="line"/>
      <point x="839" y="620" type="line"/>
      <point x="839" y="656" type="line"/>
      <point x="778" y="662"/>
      <point x="765" y="674"/>
      <point x="757" y="697" type="curve"/>
      <point x="463" y="1410" type="line"/>
      <point x="438" y="1399"/>
      <point x="381" y="1377"/>
      <point x="359" y="1357" type="curve"/>
      <point x="101" y="697" type="line"/>
      <point x="90" y="673"/>
      <point x="63" y="665"/>
      <point x="0" y="656" type="curve"/>
      <point x="0" y="620" type="line"/>
      <point x="291" y="620" type="line"/>
      <point x="291" y="656" type="line"/>
      <point x="215" y="663"/>
      <point x="181" y="672"/>
      <point x="189" y="697" type="curve"/>
    </contour>
    <contour>
      <point x="521" y="946" type="line"/>
      <point x="288" y="946" type="line"/>
      <point x="403" y="1240" type="line"/>
    </contour>
  </outline>
</glyph>
<glyph name="GrSupCapBeta" format="2">
  <advance width="788"/>
  <unicode hex="E161"/>
  <outline>
    <contour>
      <point x="711" y="697"/>
      <point x="711" y="834" type="curve"/>
      <point x="711" y="945"/>
      <point x="620" y="1034"/>
      <point x="500" y="1054" type="curve"/>
      <point x="582" y="1081"/>
      <point x="634" y="1146"/>
      <point x="634" y="1232" type="curve" smooth="yes"/>
      <point x="634" y="1333"/>
      <point x="516" y="1394"/>
      <point x="328" y="1394" type="curve" smooth="yes"/>
      <point x="227" y="1394"/>
      <point x="102" y="1375"/>
      <point x="29" y="1358" type="curve"/>
      <point x="34" y="1321" type="line"/>
      <point x="113" y="1333"/>
      <point x="216" y="1344"/>
      <point x="289" y="1344" type="curve" smooth="yes"/>
      <point x="470" y="1344"/>
      <point x="525" y="1282"/>
      <point x="525" y="1203" type="curve" smooth="yes"/>
      <point x="525" y="1134"/>
      <point x="484" y="1055"/>
      <point x="272" y="1055" type="curve" smooth="yes"/>
      <point x="204" y="1055" type="line"/>
      <point x="211" y="996" type="line"/>
      <point x="255" y="1002"/>
      <point x="302" y="1010"/>
      <point x="364" y="1010" type="curve" smooth="yes"/>
      <point x="526" y="1010"/>
      <point x="596" y="901"/>
      <point x="596" y="813" type="curve" smooth="yes"/>
      <point x="596" y="723"/>
      <point x="510" y="662"/>
      <point x="376" y="662" type="curve" smooth="yes"/>
      <point x="334" y="662"/>
      <point x="270" y="666"/>
      <point x="241" y="679" type="curve"/>
      <point x="86" y="620" type="line"/>
      <point x="86" y="620"/>
      <point x="309" y="612"/>
      <point x="391" y="612" type="curve" smooth="yes"/>
      <point x="580" y="612"/>
    </contour>
    <contour>
      <point x="34" y="620" type="line"/>
      <point x="350" y="620" type="line"/>
      <point x="350" y="646" type="line"/>
      <point x="282" y="657"/>
      <point x="248" y="673"/>
      <point x="248" y="682" type="curve" smooth="yes"/>
      <point x="248" y="1359" type="line"/>
      <point x="136" y="1346" type="line"/>
      <point x="136" y="682" type="line" smooth="yes"/>
      <point x="136" y="672"/>
      <point x="97" y="657"/>
      <point x="34" y="646" type="curve"/>
    </contour>
  </outline>
</glyph>
<glyph name="GrSupCapGamma" format="2">
  <advance width="681"/>
  <unicode hex="E162"/>
  <anchor x="370" y="560" name="L"/>
  <anchor x="370" y="1442" name="U"/>
  <outline>
    <contour>
      <point x="647" y="1320"/>
      <point x="650" y="1361" type="curve"/>
      <point x="628" y="1376" type="line"/>
      <point x="232" y="1376" type="line"/>
      <point x="212" y="1312" type="line"/>
      <point x="522" y="1312" type="line" smooth="yes"/>
      <point x="558" y="1312"/>
      <point x="565" y="1270"/>
      <point x="570" y="1168" type="curve"/>
      <point x="614" y="1168" type="line"/>
      <point x="628" y="1214"/>
    </contour>
    <contour>
      <point x="34" y="620" type="line"/>
      <point x="386" y="620" type="line"/>
      <point x="386" y="656" type="line"/>
      <point x="284" y="672"/>
      <point x="258" y="682"/>
      <point x="258" y="692" type="curve" smooth="yes"/>
      <point x="258" y="1316" type="line" smooth="yes"/>
      <point x="258" y="1327"/>
      <point x="297" y="1329"/>
      <point x="350" y="1340" type="curve"/>
      <point x="350" y="1376" type="line"/>
      <point x="232" y="1376" type="line"/>
      <point x="34" y="1376" type="line"/>
      <point x="34" y="1340" type="line"/>
      <point x="102" y="1329"/>
      <point x="126" y="1313"/>
      <point x="126" y="1303" type="curve" smooth="yes"/>
      <point x="126" y="692" type="line" smooth="yes"/>
      <point x="126" y="682"/>
      <point x="97" y="667"/>
      <point x="34" y="656" type="curve"/>
    </contour>
  </outline>
</glyph>
<glyph name="GrSupCapDelta" format="2">
  <advance width="821"/>
  <unicode hex="E163"/>
  <outline>
    <contour>
      <point x="751" y="620" type="line"/>
      <point x="766" y="651" type="line"/>
      <point x="766" y="651"/>
      <point x="526" y="1174"/>
      <point x="428" y="1410" type="curve"/>
      <point x="405" y="1399"/>
      <point x="368" y="1382"/>
      <point x="347" y="1362" type="curve"/>
      <point x="262" y="1153"/>
      <point x="41" y="651"/>
      <point x="41" y="651" type="curve"/>
      <point x="52" y="620" type="line"/>
    </contour>
    <contour>
      <point x="617" y="720"/>
      <point x="617" y="720" type="curve"/>
      <point x="629" y="689"/>
      <point x="631" y="689"/>
      <point x="539" y="689" type="curve" smooth="yes"/>
      <point x="232" y="689" type="line" smooth="yes"/>
      <point x="144" y="689"/>
      <point x="144" y="689"/>
      <point x="156" y="720" type="curve"/>
      <point x="156" y="720"/>
      <point x="298" y="1047"/>
      <point x="383" y="1249" type="curve"/>
      <point x="460" y="1069"/>
    </contour>
  </outline>
</glyph>
<glyph name="GrSupCapEpsilon" format="2">
  <advance width="711"/>
  <unicode hex="E164"/>
  <anchor x="0" y="1376" name="G"/>
  <outline>
    <contour>
      <point x="620" y="1320"/>
      <point x="622" y="1361" type="curve"/>
      <point x="599" y="1376" type="line"/>
      <point x="232" y="1376" type="line"/>
      <point x="212" y="1322" type="line"/>
      <point x="505" y="1322" type="line" smooth="yes"/>
      <point x="539" y="1322"/>
      <point x="558" y="1300"/>
      <point x="562" y="1226" type="curve"/>
      <point x="594" y="1226" type="line"/>
      <point x="605" y="1257"/>
    </contour>
    <contour>
      <point x="535" y="1022"/>
      <point x="550" y="1044" type="curve"/>
      <point x="532" y="1061" type="line"/>
      <point x="218" y="1061" type="line"/>
      <point x="202" y="1011" type="line"/>
      <point x="347" y="1011" type="line" smooth="yes"/>
      <point x="426" y="1011"/>
      <point x="457" y="1001"/>
      <point x="486" y="978" type="curve"/>
      <point x="506" y="990"/>
    </contour>
    <contour>
      <point x="661" y="697"/>
      <point x="668" y="766" type="curve"/>
      <point x="638" y="777" type="line"/>
      <point x="598" y="684"/>
      <point x="568" y="674"/>
      <point x="482" y="674" type="curve" smooth="yes"/>
      <point x="391" y="674" type="line" smooth="yes"/>
      <point x="268" y="674"/>
      <point x="248" y="689"/>
      <point x="248" y="712" type="curve" smooth="yes"/>
      <point x="248" y="1326" type="line" smooth="yes"/>
      <point x="248" y="1337"/>
      <point x="287" y="1339"/>
      <point x="350" y="1350" type="curve"/>
      <point x="350" y="1376" type="line"/>
      <point x="232" y="1376" type="line"/>
      <point x="34" y="1376" type="line"/>
      <point x="34" y="1350" type="line"/>
      <point x="102" y="1339"/>
      <point x="136" y="1323"/>
      <point x="136" y="1313" type="curve" smooth="yes"/>
      <point x="136" y="682" type="line" smooth="yes"/>
      <point x="136" y="672"/>
      <point x="97" y="657"/>
      <point x="34" y="646" type="curve"/>
      <point x="34" y="620" type="line"/>
      <point x="639" y="620" type="line"/>
      <point x="647" y="643"/>
    </contour>
  </outline>
</glyph>
<glyph name="GrSupCapZeta" format="2">
  <advance width="749"/>
  <unicode hex="E165"/>
  <outline>
    <contour>
      <point x="691" y="754"/>
      <point x="694" y="806" type="curve"/>
      <point x="645" y="814" type="line"/>
      <point x="610" y="716"/>
      <point x="589" y="690"/>
      <point x="549" y="690" type="curve" smooth="yes"/>
      <point x="213" y="690" type="line"/>
      <point x="687" y="1340" type="line"/>
      <point x="669" y="1376" type="line"/>
      <point x="238" y="1376" type="line" smooth="yes"/>
      <point x="183" y="1376"/>
      <point x="156" y="1376"/>
      <point x="105" y="1386" type="curve"/>
      <point x="85" y="1195" type="line"/>
      <point x="135" y="1188" type="line"/>
      <point x="155" y="1271"/>
      <point x="198" y="1306"/>
      <point x="228" y="1306" type="curve" smooth="yes"/>
      <point x="519" y="1306" type="line"/>
      <point x="41" y="657" type="line"/>
      <point x="62" y="620" type="line"/>
      <point x="685" y="620" type="line"/>
      <point x="687" y="677"/>
    </contour>
  </outline>
</glyph>
<glyph name="GrSupCapEta" format="2">
  <advance width="937"/>
  <unicode hex="E166"/>
  <anchor x="0" y="1376" name="G"/>
  <anchor x="462" y="560" name="L"/>
  <outline>
    <contour>
      <point x="573" y="620" type="line"/>
      <point x="889" y="620" type="line"/>
      <point x="889" y="656" type="line"/>
      <point x="822" y="667"/>
      <point x="798" y="683"/>
      <point x="798" y="692" type="curve" smooth="yes"/>
      <point x="798" y="1303" type="line" smooth="yes"/>
      <point x="798" y="1314"/>
      <point x="826" y="1329"/>
      <point x="889" y="1340" type="curve"/>
      <point x="889" y="1376" type="line"/>
      <point x="573" y="1376" type="line"/>
      <point x="573" y="1340" type="line"/>
      <point x="640" y="1329"/>
      <point x="666" y="1313"/>
      <point x="666" y="1303" type="curve" smooth="yes"/>
      <point x="666" y="692" type="line" smooth="yes"/>
      <point x="666" y="682"/>
      <point x="636" y="667"/>
      <point x="573" y="656" type="curve"/>
    </contour>
    <contour>
      <point x="239" y="984" type="line"/>
      <point x="680" y="984" type="line"/>
      <point x="680" y="1048" type="line"/>
      <point x="239" y="1048" type="line"/>
    </contour>
    <contour>
      <point x="34" y="620" type="line"/>
      <point x="350" y="620" type="line"/>
      <point x="350" y="656" type="line"/>
      <point x="282" y="667"/>
      <point x="258" y="683"/>
      <point x="258" y="692" type="curve" smooth="yes"/>
      <point x="258" y="1303" type="line" smooth="yes"/>
      <point x="258" y="1314"/>
      <point x="287" y="1329"/>
      <point x="350" y="1340" type="curve"/>
      <point x="350" y="1376" type="line"/>
      <point x="34" y="1376" type="line"/>
      <point x="34" y="1340" type="line"/>
      <point x="102" y="1329"/>
      <point x="126" y="1313"/>
      <point x="126" y="1303" type="curve" smooth="yes"/>
      <point x="126" y="692" type="line" smooth="yes"/>
      <point x="126" y="682"/>
      <point x="97" y="667"/>
      <point x="34" y="656" type="curve"/>
    </contour>
  </outline>
</glyph>
<glyph name="GrSupCapTheta" format="2">
  <advance width="886"/>
  <unicode hex="E167"/>
  <anchor x="431" y="560" name="L"/>
  <anchor x="431" y="1442" name="U"/>
  <outline>
    <contour>
      <point x="833" y="791"/>
      <point x="833" y="1008" type="curve" smooth="yes"/>
      <point x="833" y="1204"/>
      <point x="700" y="1394"/>
      <point x="457" y="1394" type="curve" smooth="yes"/>
      <point x="230" y="1394"/>
      <point x="39" y="1205"/>
      <point x="39" y="987" type="curve" smooth="yes"/>
      <point x="39" y="786"/>
      <point x="182" y="602"/>
      <point x="416" y="602" type="curve" smooth="yes"/>
      <point x="639" y="602"/>
    </contour>
    <contour>
      <point x="705" y="1163"/>
      <point x="705" y="997" type="curve" smooth="yes"/>
      <point x="705" y="786"/>
      <point x="594" y="684"/>
      <point x="438" y="684" type="curve" smooth="yes"/>
      <point x="292" y="684"/>
      <point x="168" y="825"/>
      <point x="168" y="1005" type="curve" smooth="yes"/>
      <point x="168" y="1200"/>
      <point x="266" y="1315"/>
      <point x="438" y="1315" type="curve" smooth="yes"/>
      <point x="598" y="1315"/>
    </contour>
    <contour>
      <point x="604" y="896" type="line"/>
      <point x="625" y="1122" type="line"/>
      <point x="585" y="1122" type="line"/>
      <point x="572" y="1065"/>
      <point x="541" y="1054"/>
      <point x="529" y="1054" type="curve" smooth="yes"/>
      <point x="350" y="1054" type="line" smooth="yes"/>
      <point x="337" y="1054"/>
      <point x="321" y="1068"/>
      <point x="308" y="1122" type="curve"/>
      <point x="268" y="1122" type="line"/>
      <point x="246" y="896" type="line"/>
      <point x="286" y="896" type="line"/>
      <point x="298" y="954"/>
      <point x="324" y="966"/>
      <point x="336" y="966" type="curve" smooth="yes"/>
      <point x="514" y="966" type="line" smooth="yes"/>
      <point x="526" y="966"/>
      <point x="551" y="950"/>
      <point x="564" y="896" type="curve"/>
    </contour>
  </outline>
</glyph>
<glyph name="GrSupCapIota" format="2">
  <advance width="454"/>
  <unicode hex="E168"/>
  <anchor x="14" y="1376" name="G"/>
  <anchor x="220" y="1442" name="U"/>
  <outline>
    <contour>
      <point x="63" y="620" type="line"/>
      <point x="378" y="620" type="line"/>
      <point x="378" y="656" type="line"/>
      <point x="311" y="667"/>
      <point x="286" y="683"/>
      <point x="286" y="692" type="curve" smooth="yes"/>
      <point x="286" y="1303" type="line" smooth="yes"/>
      <point x="286" y="1314"/>
      <point x="315" y="1329"/>
      <point x="378" y="1340" type="curve"/>
      <point x="378" y="1376" type="line"/>
      <point x="63" y="1376" type="line"/>
      <point x="63" y="1340" type="line"/>
      <point x="130" y="1329"/>
      <point x="154" y="1313"/>
      <point x="154" y="1303" type="curve" smooth="yes"/>
      <point x="154" y="692" type="line" smooth="yes"/>
      <point x="154" y="682"/>
      <point x="126" y="667"/>
      <point x="63" y="656" type="curve"/>
    </contour>
  </outline>
</glyph>
<glyph name="GrSupCapKappa" format="2">
  <advance width="828"/>
  <unicode hex="E169"/>
  <outline>
    <contour>
      <point x="717" y="1334"/>
      <point x="777" y="1340" type="curve"/>
      <point x="777" y="1376" type="line"/>
      <point x="483" y="1376" type="line"/>
      <point x="483" y="1340" type="line"/>
      <point x="556" y="1335"/>
      <point x="572" y="1331"/>
      <point x="530" y="1287" type="curve" smooth="yes"/>
      <point x="260" y="1006" type="line"/>
      <point x="357" y="1006" type="line"/>
      <point x="673" y="1303" type="line" smooth="yes"/>
      <point x="702" y="1330"/>
    </contour>
    <contour>
      <point x="767" y="627"/>
      <point x="822" y="642" type="curve"/>
      <point x="817" y="678" type="line"/>
      <point x="769" y="673"/>
      <point x="732" y="674"/>
      <point x="700" y="706" type="curve" smooth="yes"/>
      <point x="354" y="1053" type="line"/>
      <point x="260" y="1006" type="line"/>
      <point x="588" y="637" type="line" smooth="yes"/>
      <point x="606" y="617"/>
      <point x="636" y="612"/>
      <point x="664" y="612" type="curve" smooth="yes"/>
      <point x="708" y="612"/>
    </contour>
    <contour>
      <point x="34" y="620" type="line"/>
      <point x="350" y="620" type="line"/>
      <point x="350" y="656" type="line"/>
      <point x="282" y="667"/>
      <point x="258" y="683"/>
      <point x="258" y="692" type="curve" smooth="yes"/>
      <point x="258" y="1303" type="line" smooth="yes"/>
      <point x="258" y="1314"/>
      <point x="287" y="1329"/>
      <point x="350" y="1340" type="curve"/>
      <point x="350" y="1376" type="line"/>
      <point x="34" y="1376" type="line"/>
      <point x="34" y="1340" type="line"/>
      <point x="102" y="1329"/>
      <point x="126" y="1313"/>
      <point x="126" y="1303" type="curve" smooth="yes"/>
      <point x="126" y="692" type="line" smooth="yes"/>
      <point x="126" y="682"/>
      <point x="97" y="667"/>
      <point x="34" y="656" type="curve"/>
    </contour>
  </outline>
</glyph>
<glyph name="GrSupCapLamda" format="2">
  <advance width="853"/>
  <unicode hex="E16A"/>
  <outline>
    <contour>
      <point x="0" y="656" type="curve"/>
      <point x="0" y="620" type="line"/>
      <point x="291" y="620" type="line"/>
      <point x="291" y="656" type="line"/>
      <point x="215" y="663"/>
      <point x="190" y="673"/>
      <point x="199" y="697" type="curve" smooth="yes"/>
      <point x="407" y="1239" type="line"/>
      <point x="622" y="697" type="line"/>
      <point x="634" y="671"/>
      <point x="615" y="659"/>
      <point x="543" y="656" type="curve"/>
      <point x="543" y="620" type="line"/>
      <point x="839" y="620" type="line"/>
      <point x="839" y="656" type="line"/>
      <point x="778" y="662"/>
      <point x="766" y="674"/>
      <point x="757" y="697" type="curve" smooth="yes"/>
      <point x="463" y="1410" type="line"/>
      <point x="438" y="1399"/>
      <point x="383" y="1382"/>
      <point x="361" y="1362" type="curve"/>
      <point x="101" y="697" type="line"/>
      <point x="90" y="673"/>
      <point x="63" y="665"/>
    </contour>
  </outline>
</glyph>
<glyph name="GrSupCapMu" format="2">
  <advance width="1155"/>
  <unicode hex="E16B"/>
  <outline>
    <contour>
      <point x="780" y="620" type="line"/>
      <point x="1099" y="620" type="line"/>
      <point x="1099" y="646" type="line"/>
      <point x="1032" y="657"/>
      <point x="997" y="673"/>
      <point x="997" y="682" type="curve" smooth="yes"/>
      <point x="990" y="1348" type="line"/>
      <point x="882" y="1314" type="line"/>
      <point x="889" y="682" type="line" smooth="yes"/>
      <point x="889" y="672"/>
      <point x="844" y="657"/>
      <point x="780" y="646" type="curve"/>
    </contour>
    <contour>
      <point x="1022" y="1350"/>
      <point x="1085" y="1350" type="curve"/>
      <point x="1085" y="1376" type="line"/>
      <point x="885" y="1376" type="line" smooth="yes"/>
      <point x="867" y="1376"/>
      <point x="864" y="1374"/>
      <point x="840" y="1326" type="curve" smooth="yes"/>
      <point x="569" y="777" type="line" smooth="yes"/>
      <point x="556" y="751"/>
      <point x="552" y="721"/>
      <point x="573" y="620" type="curve"/>
      <point x="576" y="620" type="line"/>
      <point x="891" y="1261" type="line" smooth="yes"/>
      <point x="911" y="1302"/>
    </contour>
    <contour>
      <point x="589" y="754"/>
      <point x="576" y="778" type="curve"/>
      <point x="294" y="1326" type="line" smooth="yes"/>
      <point x="272" y="1369"/>
      <point x="268" y="1376"/>
      <point x="249" y="1376" type="curve" smooth="yes"/>
      <point x="49" y="1376" type="line"/>
      <point x="49" y="1350" type="line"/>
      <point x="100" y="1350"/>
      <point x="186" y="1329"/>
      <point x="222" y="1257" type="curve" smooth="yes"/>
      <point x="542" y="620" type="line"/>
      <point x="573" y="620" type="line"/>
      <point x="596" y="721"/>
    </contour>
    <contour>
      <point x="42" y="620" type="line"/>
      <point x="326" y="620" type="line"/>
      <point x="326" y="646" type="line"/>
      <point x="258" y="657"/>
      <point x="224" y="673"/>
      <point x="224" y="682" type="curve" smooth="yes"/>
      <point x="232" y="1353" type="line"/>
      <point x="150" y="1338" type="line"/>
      <point x="144" y="682" type="line" smooth="yes"/>
      <point x="144" y="672"/>
      <point x="106" y="657"/>
      <point x="42" y="646" type="curve"/>
    </contour>
  </outline>
</glyph>
<glyph name="GrSupCapNu" format="2">
  <advance width="930"/>
  <unicode hex="E16C"/>
  <outline>
    <contour>
      <point x="829" y="1332"/>
      <point x="896" y="1340" type="curve"/>
      <point x="896" y="1376" type="line"/>
      <point x="608" y="1376" type="line"/>
      <point x="608" y="1340" type="line"/>
      <point x="682" y="1331"/>
      <point x="705" y="1313"/>
      <point x="705" y="1303" type="curve" smooth="yes"/>
      <point x="705" y="662" type="line"/>
      <point x="799" y="639" type="line"/>
      <point x="799" y="1303" type="line" smooth="yes"/>
      <point x="799" y="1314"/>
    </contour>
    <contour>
      <point x="753" y="606"/>
      <point x="799" y="601" type="curve"/>
      <point x="799" y="691" type="line"/>
      <point x="799" y="691"/>
      <point x="741" y="760"/>
      <point x="721" y="783" type="curve" smooth="yes"/>
      <point x="261" y="1329" type="line" smooth="yes"/>
      <point x="225" y="1371"/>
      <point x="221" y="1376"/>
      <point x="193" y="1376" type="curve" smooth="yes"/>
      <point x="34" y="1376" type="line"/>
      <point x="34" y="1340" type="line"/>
      <point x="83" y="1334"/>
      <point x="117" y="1316"/>
      <point x="157" y="1270" type="curve" smooth="yes"/>
      <point x="701" y="632" type="line" smooth="yes"/>
      <point x="712" y="619"/>
    </contour>
    <contour>
      <point x="34" y="620" type="line"/>
      <point x="323" y="620" type="line"/>
      <point x="323" y="656" type="line"/>
      <point x="251" y="664"/>
      <point x="225" y="683"/>
      <point x="225" y="692" type="curve" smooth="yes"/>
      <point x="225" y="1353" type="line"/>
      <point x="131" y="1328" type="line"/>
      <point x="131" y="692" type="line" smooth="yes"/>
      <point x="131" y="682"/>
      <point x="103" y="663"/>
      <point x="34" y="656" type="curve"/>
    </contour>
  </outline>
</glyph>
<glyph name="GrSupCapXi" format="2">
  <advance width="740"/>
  <unicode hex="E16D"/>
  <outline>
    <contour>
      <point x="676" y="1320"/>
      <point x="677" y="1361" type="curve"/>
      <point x="655" y="1376" type="line"/>
      <point x="335" y="1376" type="line"/>
      <point x="314" y="1298" type="line"/>
      <point x="556" y="1298" type="line" smooth="yes"/>
      <point x="598" y="1298"/>
      <point x="613" y="1275"/>
      <point x="631" y="1207" type="curve"/>
      <point x="662" y="1207" type="line"/>
      <point x="671" y="1259"/>
    </contour>
    <contour>
      <point x="176" y="1298" type="curve" smooth="yes"/>
      <point x="440" y="1298" type="line"/>
      <point x="421" y="1376" type="line"/>
      <point x="94" y="1376" type="line"/>
      <point x="85" y="1334"/>
      <point x="76" y="1263"/>
      <point x="73" y="1216" type="curve"/>
      <point x="103" y="1205" type="line"/>
      <point x="133" y="1278"/>
      <point x="137" y="1298"/>
    </contour>
    <contour>
      <point x="526" y="901" type="line"/>
      <point x="546" y="1117" type="line"/>
      <point x="516" y="1117" type="line"/>
      <point x="503" y="1060"/>
      <point x="472" y="1049"/>
      <point x="460" y="1049" type="curve" smooth="yes"/>
      <point x="276" y="1049" type="line" smooth="yes"/>
      <point x="264" y="1049"/>
      <point x="246" y="1063"/>
      <point x="234" y="1117" type="curve"/>
      <point x="204" y="1117" type="line"/>
      <point x="183" y="901" type="line"/>
      <point x="214" y="901" type="line"/>
      <point x="226" y="959"/>
      <point x="251" y="972"/>
      <point x="262" y="972" type="curve" smooth="yes"/>
      <point x="446" y="972" type="line" smooth="yes"/>
      <point x="458" y="972"/>
      <point x="483" y="955"/>
      <point x="496" y="901" type="curve"/>
    </contour>
    <contour>
      <point x="684" y="733"/>
      <point x="688" y="780" type="curve"/>
      <point x="658" y="791" type="line"/>
      <point x="625" y="715"/>
      <point x="623" y="703"/>
      <point x="586" y="703" type="curve" smooth="yes"/>
      <point x="301" y="703" type="line"/>
      <point x="318" y="620" type="line"/>
      <point x="672" y="620" type="line"/>
      <point x="679" y="662"/>
    </contour>
    <contour>
      <point x="402" y="620" type="line"/>
      <point x="427" y="703" type="line"/>
      <point x="156" y="703" type="line" smooth="yes"/>
      <point x="115" y="703"/>
      <point x="96" y="722"/>
      <point x="75" y="789" type="curve"/>
      <point x="42" y="789" type="line"/>
      <point x="37" y="733"/>
      <point x="35" y="675"/>
      <point x="34" y="636" type="curve"/>
      <point x="57" y="620" type="line"/>
    </contour>
  </outline>
</glyph>
<glyph name="GrSupCapOmicron" format="2">
  <advance width="860"/>
  <unicode hex="E16E"/>
  <anchor x="35" y="1376" name="G"/>
  <outline>
    <contour>
      <point x="797" y="791"/>
      <point x="797" y="1008" type="curve"/>
      <point x="797" y="1204"/>
      <point x="674" y="1394"/>
      <point x="443" y="1394" type="curve" smooth="yes"/>
      <point x="223" y="1394"/>
      <point x="49" y="1205"/>
      <point x="49" y="987" type="curve" smooth="yes"/>
      <point x="49" y="786"/>
      <point x="178" y="602"/>
      <point x="402" y="602" type="curve" smooth="yes"/>
      <point x="615" y="602"/>
    </contour>
    <contour>
      <point x="668" y="1163"/>
      <point x="668" y="997" type="curve"/>
      <point x="668" y="786"/>
      <point x="568" y="684"/>
      <point x="423" y="684" type="curve" smooth="yes"/>
      <point x="289" y="684"/>
      <point x="178" y="825"/>
      <point x="178" y="1005" type="curve" smooth="yes"/>
      <point x="178" y="1200"/>
      <point x="267" y="1315"/>
      <point x="423" y="1315" type="curve" smooth="yes"/>
      <point x="572" y="1315"/>
    </contour>
  </outline>
</glyph>
<glyph name="GrSupCapPi" format="2">
  <advance width="902"/>
  <unicode hex="E16F"/>
  <outline>
    <contour>
      <point x="34" y="620" type="line"/>
      <point x="350" y="620" type="line"/>
      <point x="350" y="656" type="line"/>
      <point x="282" y="667"/>
      <point x="258" y="683"/>
      <point x="258" y="692" type="curve" smooth="yes"/>
      <point x="258" y="1274" type="line" smooth="yes"/>
      <point x="258" y="1293"/>
      <point x="293" y="1314"/>
      <point x="381" y="1316" type="curve"/>
      <point x="497" y="1316" type="line" smooth="yes"/>
      <point x="589" y="1316"/>
      <point x="630" y="1293"/>
      <point x="630" y="1274" type="curve" smooth="yes"/>
      <point x="630" y="692" type="line" smooth="yes"/>
      <point x="630" y="682"/>
      <point x="602" y="667"/>
      <point x="539" y="656" type="curve"/>
      <point x="539" y="620" type="line"/>
      <point x="855" y="620" type="line"/>
      <point x="855" y="656" type="line"/>
      <point x="787" y="667"/>
      <point x="762" y="683"/>
      <point x="762" y="692" type="curve" smooth="yes"/>
      <point x="762" y="1303" type="line" smooth="yes"/>
      <point x="762" y="1314"/>
      <point x="791" y="1329"/>
      <point x="855" y="1340" type="curve"/>
      <point x="855" y="1376" type="line"/>
      <point x="34" y="1376" type="line"/>
      <point x="34" y="1340" type="line"/>
      <point x="102" y="1329"/>
      <point x="126" y="1313"/>
      <point x="126" y="1303" type="curve" smooth="yes"/>
      <point x="126" y="692" type="line" smooth="yes"/>
      <point x="126" y="682"/>
      <point x="97" y="667"/>
      <point x="34" y="656" type="curve"/>
    </contour>
  </outline>
</glyph>
<glyph name="GrSupCapRho" format="2">
  <advance width="749"/>
  <unicode hex="E170"/>
  <anchor x="0" y="1376" name="G"/>
  <outline>
    <contour>
      <point x="687" y="1015"/>
      <point x="687" y="1182" type="curve"/>
      <point x="687" y="1319"/>
      <point x="558" y="1394"/>
      <point x="357" y="1394" type="curve" smooth="yes"/>
      <point x="244" y="1394"/>
      <point x="119" y="1379"/>
      <point x="29" y="1358" type="curve"/>
      <point x="34" y="1311" type="line"/>
      <point x="125" y="1325"/>
      <point x="219" y="1334"/>
      <point x="317" y="1334" type="curve" smooth="yes"/>
      <point x="461" y="1334"/>
      <point x="559" y="1288"/>
      <point x="559" y="1157" type="curve" smooth="yes"/>
      <point x="559" y="1044"/>
      <point x="466" y="991"/>
      <point x="380" y="991" type="curve" smooth="yes"/>
      <point x="347" y="991"/>
      <point x="321" y="994"/>
      <point x="282" y="1009" type="curve"/>
      <point x="298" y="954" type="line"/>
      <point x="330" y="942"/>
      <point x="358" y="936"/>
      <point x="401" y="936" type="curve" smooth="yes"/>
      <point x="510" y="936"/>
    </contour>
    <contour>
      <point x="34" y="620" type="line"/>
      <point x="371" y="620" type="line"/>
      <point x="371" y="656" type="line"/>
      <point x="274" y="670"/>
      <point x="258" y="683"/>
      <point x="258" y="692" type="curve" smooth="yes"/>
      <point x="258" y="1346" type="line"/>
      <point x="126" y="1346" type="line"/>
      <point x="126" y="692" type="line" smooth="yes"/>
      <point x="126" y="682"/>
      <point x="97" y="667"/>
      <point x="34" y="656" type="curve"/>
    </contour>
  </outline>
</glyph>
<glyph name="GrSupCapSigma" format="2">
  <advance width="744"/>
  <unicode hex="E171"/>
  <outline>
    <contour>
      <point x="702" y="763"/>
      <point x="706" y="827" type="curve"/>
      <point x="669" y="834" type="line"/>
      <point x="635" y="729"/>
      <point x="624" y="703"/>
      <point x="566" y="703" type="curve" smooth="yes"/>
      <point x="179" y="703" type="line"/>
      <point x="457" y="1024" type="line"/>
      <point x="218" y="1315" type="line"/>
      <point x="546" y="1315" type="line" smooth="yes"/>
      <point x="573" y="1315"/>
      <point x="606" y="1317"/>
      <point x="640" y="1198" type="curve"/>
      <point x="680" y="1205" type="line"/>
      <point x="677" y="1386" type="line"/>
      <point x="621" y="1376"/>
      <point x="580" y="1376"/>
      <point x="528" y="1376" type="curve" smooth="yes"/>
      <point x="56" y="1376" type="line"/>
      <point x="56" y="1350" type="line"/>
      <point x="347" y="1001" type="line"/>
      <point x="41" y="646" type="line"/>
      <point x="63" y="620" type="line"/>
      <point x="688" y="620" type="line"/>
      <point x="692" y="663"/>
    </contour>
  </outline>
</glyph>
<glyph name="GrSupCapTau" format="2">
  <advance width="789"/>
  <unicode hex="E172"/>
  <outline>
    <contour>
      <point x="757" y="1320"/>
      <point x="758" y="1361" type="curve"/>
      <point x="737" y="1376" type="line"/>
      <point x="383" y="1376" type="line"/>
      <point x="363" y="1321" type="line"/>
      <point x="640" y="1321" type="line" smooth="yes"/>
      <point x="682" y="1321"/>
      <point x="688" y="1287"/>
      <point x="706" y="1219" type="curve"/>
      <point x="737" y="1219" type="line"/>
      <point x="748" y="1270"/>
    </contour>
    <contour>
      <point x="120" y="1321" type="curve" smooth="yes"/>
      <point x="489" y="1321" type="line"/>
      <point x="469" y="1376" type="line"/>
      <point x="30" y="1376" type="line"/>
      <point x="20" y="1334"/>
      <point x="11" y="1275"/>
      <point x="7" y="1228" type="curve"/>
      <point x="37" y="1217" type="line"/>
      <point x="79" y="1311"/>
      <point x="92" y="1321"/>
    </contour>
    <contour>
      <point x="214" y="620" type="line"/>
      <point x="556" y="620" type="line"/>
      <point x="556" y="646" type="line"/>
      <point x="470" y="661"/>
      <point x="442" y="679"/>
      <point x="442" y="689" type="curve" smooth="yes"/>
      <point x="442" y="1326" type="line" smooth="yes"/>
      <point x="442" y="1336"/>
      <point x="479" y="1339"/>
      <point x="542" y="1350" type="curve"/>
      <point x="542" y="1376" type="line"/>
      <point x="228" y="1376" type="line"/>
      <point x="228" y="1350" type="line"/>
      <point x="295" y="1339"/>
      <point x="330" y="1335"/>
      <point x="330" y="1326" type="curve" smooth="yes"/>
      <point x="330" y="689" type="line" smooth="yes"/>
      <point x="330" y="678"/>
      <point x="300" y="661"/>
      <point x="214" y="646" type="curve"/>
    </contour>
  </outline>
</glyph>
<glyph name="GrSupCapUpsilon" format="2">
  <advance width="835"/>
  <unicode hex="E173"/>
  <anchor x="-70" y="1376" name="G"/>
  <anchor x="423" y="1442" name="U"/>
  <outline>
    <contour>
      <point x="769" y="1290" type="curve"/>
      <point x="822" y="1369" type="line"/>
      <point x="808" y="1390" type="line"/>
      <point x="727" y="1407"/>
      <point x="650" y="1373"/>
      <point x="585" y="1282" type="curve" smooth="yes"/>
      <point x="536" y="1211"/>
      <point x="476" y="1063"/>
      <point x="446" y="963" type="curve"/>
      <point x="409" y="1089"/>
      <point x="353" y="1212"/>
      <point x="246" y="1332" type="curve" smooth="yes"/>
      <point x="223" y="1359"/>
      <point x="192" y="1394"/>
      <point x="153" y="1394" type="curve" smooth="yes"/>
      <point x="115" y="1394"/>
      <point x="55" y="1388"/>
      <point x="0" y="1382" type="curve"/>
      <point x="3" y="1356" type="line"/>
      <point x="80" y="1356"/>
      <point x="145" y="1296"/>
      <point x="182" y="1245" type="curve" smooth="yes"/>
      <point x="252" y="1153"/>
      <point x="367" y="979"/>
      <point x="367" y="795" type="curve" smooth="yes"/>
      <point x="367" y="689" type="line" smooth="yes"/>
      <point x="367" y="678"/>
      <point x="337" y="661"/>
      <point x="252" y="646" type="curve"/>
      <point x="252" y="620" type="line"/>
      <point x="595" y="620" type="line"/>
      <point x="595" y="646" type="line"/>
      <point x="507" y="661"/>
      <point x="479" y="679"/>
      <point x="479" y="689" type="curve" smooth="yes"/>
      <point x="479" y="795" type="line" smooth="yes"/>
      <point x="479" y="958"/>
      <point x="561" y="1123"/>
      <point x="605" y="1194" type="curve" smooth="yes"/>
      <point x="664" y="1285"/>
      <point x="717" y="1296"/>
    </contour>
  </outline>
</glyph>
<glyph name="GrSupCapPhi" format="2">
  <advance width="938"/>
  <unicode hex="E174"/>
  <outline>
    <contour>
      <point x="864" y="829"/>
      <point x="864" y="1007" type="curve" smooth="yes"/>
      <point x="864" y="1196"/>
      <point x="675" y="1276"/>
      <point x="477" y="1276" type="curve" smooth="yes"/>
      <point x="225" y="1276"/>
      <point x="59" y="1152"/>
      <point x="59" y="994" type="curve" smooth="yes"/>
      <point x="59" y="783"/>
      <point x="276" y="721"/>
      <point x="467" y="721" type="curve" smooth="yes"/>
      <point x="678" y="721"/>
    </contour>
    <contour>
      <point x="304" y="620" type="line"/>
      <point x="620" y="620" type="line"/>
      <point x="620" y="656" type="line"/>
      <point x="553" y="667"/>
      <point x="528" y="683"/>
      <point x="528" y="692" type="curve" smooth="yes"/>
      <point x="528" y="1303" type="line" smooth="yes"/>
      <point x="528" y="1314"/>
      <point x="557" y="1329"/>
      <point x="620" y="1340" type="curve"/>
      <point x="620" y="1376" type="line"/>
      <point x="304" y="1376" type="line"/>
      <point x="304" y="1340" type="line"/>
      <point x="372" y="1329"/>
      <point x="396" y="1313"/>
      <point x="396" y="1303" type="curve" smooth="yes"/>
      <point x="396" y="692" type="line" smooth="yes"/>
      <point x="396" y="682"/>
      <point x="368" y="667"/>
      <point x="304" y="656" type="curve"/>
    </contour>
    <contour>
      <point x="742" y="1147"/>
      <point x="742" y="996" type="curve" smooth="yes"/>
      <point x="742" y="876"/>
      <point x="662" y="784"/>
      <point x="482" y="784" type="curve" smooth="yes"/>
      <point x="349" y="784"/>
      <point x="182" y="836"/>
      <point x="182" y="1005" type="curve" smooth="yes"/>
      <point x="182" y="1110"/>
      <point x="256" y="1216"/>
      <point x="441" y="1216" type="curve" smooth="yes"/>
      <point x="597" y="1216"/>
    </contour>
  </outline>
</glyph>
<glyph name="GrSupCapChi" format="2">
  <advance width="882"/>
  <unicode hex="E176"/>
  <outline>
    <contour>
      <point x="758" y="1334"/>
      <point x="826" y="1340" type="curve"/>
      <point x="826" y="1376" type="line"/>
      <point x="509" y="1376" type="line"/>
      <point x="509" y="1340" type="line"/>
      <point x="592" y="1335"/>
      <point x="622" y="1325"/>
      <point x="596" y="1290" type="curve" smooth="yes"/>
      <point x="400" y="1029" type="line"/>
      <point x="444" y="941" type="line"/>
      <point x="703" y="1290" type="line" smooth="yes"/>
      <point x="728" y="1323"/>
    </contour>
    <contour>
      <point x="545" y="620" type="line"/>
      <point x="860" y="620" type="line"/>
      <point x="860" y="656" type="line"/>
      <point x="806" y="662"/>
      <point x="788" y="672"/>
      <point x="760" y="706" type="curve" smooth="yes"/>
      <point x="280" y="1290" type="line" smooth="yes"/>
      <point x="252" y="1325"/>
      <point x="265" y="1334"/>
      <point x="344" y="1340" type="curve"/>
      <point x="344" y="1376" type="line"/>
      <point x="29" y="1376" type="line"/>
      <point x="29" y="1340" type="line"/>
      <point x="90" y="1332"/>
      <point x="99" y="1325"/>
      <point x="128" y="1290" type="curve" smooth="yes"/>
      <point x="608" y="706" type="line" smooth="yes"/>
      <point x="634" y="674"/>
      <point x="626" y="663"/>
      <point x="545" y="656" type="curve"/>
    </contour>
    <contour>
      <point x="251" y="706" type="curve" smooth="yes"/>
      <point x="447" y="967" type="line"/>
      <point x="412" y="1071" type="line"/>
      <point x="144" y="706" type="line" smooth="yes"/>
      <point x="120" y="674"/>
      <point x="82" y="659"/>
      <point x="22" y="656" type="curve"/>
      <point x="22" y="620" type="line"/>
      <point x="337" y="620" type="line"/>
      <point x="337" y="656" type="line"/>
      <point x="251" y="661"/>
      <point x="225" y="671"/>
    </contour>
  </outline>
</glyph>
<glyph name="GrSupCapPsi" format="2">
  <advance width="987"/>
  <unicode hex="E177"/>
  <outline>
    <contour>
      <point x="907" y="1351" type="curve" smooth="yes"/>
      <point x="985" y="1356" type="line"/>
      <point x="988" y="1382" type="line"/>
      <point x="939" y="1387"/>
      <point x="855" y="1394"/>
      <point x="830" y="1394" type="curve" smooth="yes"/>
      <point x="764" y="1394"/>
      <point x="751" y="1345"/>
      <point x="738" y="1178" type="curve" smooth="yes"/>
      <point x="729" y="1054"/>
      <point x="674" y="970"/>
      <point x="486" y="970" type="curve" smooth="yes"/>
      <point x="337" y="970"/>
      <point x="239" y="1015"/>
      <point x="235" y="1178" type="curve" smooth="yes"/>
      <point x="231" y="1354"/>
      <point x="202" y="1394"/>
      <point x="140" y="1394" type="curve" smooth="yes"/>
      <point x="111" y="1394"/>
      <point x="36" y="1387"/>
      <point x="-16" y="1382" type="curve"/>
      <point x="-13" y="1356" type="line"/>
      <point x="58" y="1351" type="line" smooth="yes"/>
      <point x="102" y="1348"/>
      <point x="115" y="1312"/>
      <point x="123" y="1136" type="curve" smooth="yes"/>
      <point x="130" y="990"/>
      <point x="238" y="911"/>
      <point x="486" y="911" type="curve" smooth="yes"/>
      <point x="721" y="911"/>
      <point x="841" y="1028"/>
      <point x="848" y="1146" type="curve" smooth="yes"/>
      <point x="860" y="1321"/>
      <point x="874" y="1348"/>
    </contour>
    <contour>
      <point x="328" y="620" type="line"/>
      <point x="644" y="620" type="line"/>
      <point x="644" y="646" type="line"/>
      <point x="576" y="657"/>
      <point x="542" y="673"/>
      <point x="542" y="682" type="curve" smooth="yes"/>
      <point x="542" y="1313" type="line" smooth="yes"/>
      <point x="542" y="1324"/>
      <point x="580" y="1339"/>
      <point x="644" y="1350" type="curve"/>
      <point x="644" y="1376" type="line"/>
      <point x="328" y="1376" type="line"/>
      <point x="328" y="1350" type="line"/>
      <point x="396" y="1339"/>
      <point x="430" y="1323"/>
      <point x="430" y="1313" type="curve" smooth="yes"/>
      <point x="430" y="682" type="line" smooth="yes"/>
      <point x="430" y="672"/>
      <point x="391" y="657"/>
      <point x="328" y="646" type="curve"/>
    </contour>
  </outline>
</glyph>
<glyph name="GrSupCapOmega" format="2">
  <advance width="907"/>
  <unicode hex="E178"/>
  <anchor x="46" y="1376" name="G"/>
  <anchor x="447" y="560" name="L"/>
  <outline>
    <contour>
      <point x="819" y="921"/>
      <point x="819" y="1077" type="curve" smooth="yes"/>
      <point x="819" y="1272"/>
      <point x="675" y="1394"/>
      <point x="470" y="1394" type="curve" smooth="yes"/>
      <point x="218" y="1394"/>
      <point x="77" y="1221"/>
      <point x="77" y="1063" type="curve" smooth="yes"/>
      <point x="77" y="921"/>
      <point x="142" y="799"/>
      <point x="396" y="644" type="curve"/>
      <point x="403" y="686" type="line"/>
      <point x="216" y="868"/>
      <point x="189" y="927"/>
      <point x="189" y="1070" type="curve" smooth="yes"/>
      <point x="189" y="1159"/>
      <point x="255" y="1340"/>
      <point x="447" y="1340" type="curve" smooth="yes"/>
      <point x="618" y="1340"/>
      <point x="707" y="1209"/>
      <point x="707" y="1063" type="curve" smooth="yes"/>
      <point x="707" y="927"/>
      <point x="654" y="868"/>
      <point x="491" y="686" type="curve"/>
      <point x="498" y="644" type="line"/>
      <point x="711" y="806"/>
    </contour>
    <contour>
      <point x="819" y="732"/>
      <point x="823" y="779" type="curve"/>
      <point x="792" y="790" type="line"/>
      <point x="759" y="714"/>
      <point x="751" y="686"/>
      <point x="713" y="686" type="curve" smooth="yes"/>
      <point x="491" y="686" type="line"/>
      <point x="491" y="620" type="line"/>
      <point x="800" y="620" type="line"/>
      <point x="810" y="662"/>
    </contour>
    <contour>
      <point x="78" y="620" type="line"/>
      <point x="403" y="620" type="line"/>
      <point x="403" y="686" type="line"/>
      <point x="176" y="686" type="line" smooth="yes"/>
      <point x="136" y="686"/>
      <point x="125" y="720"/>
      <point x="109" y="788" type="curve"/>
      <point x="78" y="788" type="line"/>
      <point x="64" y="738"/>
      <point x="57" y="675"/>
      <point x="56" y="636" type="curve"/>
    </contour>
  </outline>
</glyph>
<glyph name="SubInfinity" format="2">
  <advance width="947"/>
  <unicode hex="E20A"/>
  <outline>
    <contour>
      <point x="285" y="-14"/>
      <point x="334" y="8"/>
      <point x="480" y="122" type="curve" smooth="yes"/>
      <point x="595" y="212"/>
      <point x="636" y="237"/>
      <point x="707" y="237" type="curve" smooth="yes"/>
      <point x="778" y="237"/>
      <point x="814" y="179"/>
      <point x="814" y="147" type="curve" smooth="yes"/>
      <point x="814" y="116"/>
      <point x="799" y="65"/>
      <point x="710" y="65" type="curve" smooth="yes"/>
      <point x="617" y="65"/>
      <point x="556" y="128"/>
      <point x="519" y="173" type="curve" smooth="yes"/>
      <point x="472" y="231"/>
      <point x="398" y="307"/>
      <point x="288" y="307" type="curve" smooth="yes"/>
      <point x="165" y="307"/>
      <point x="56" y="213"/>
      <point x="56" y="122" type="curve" smooth="yes"/>
      <point x="56" y="45"/>
      <point x="130" y="-14"/>
      <point x="202" y="-14" type="curve" smooth="yes"/>
    </contour>
    <contour>
      <point x="783" y="-14"/>
      <point x="892" y="80"/>
      <point x="892" y="171" type="curve" smooth="yes"/>
      <point x="892" y="248"/>
      <point x="818" y="307"/>
      <point x="746" y="307" type="curve" smooth="yes"/>
      <point x="663" y="307"/>
      <point x="592" y="273"/>
      <point x="458" y="166" type="curve" smooth="yes"/>
      <point x="337" y="68"/>
      <point x="312" y="56"/>
      <point x="241" y="56" type="curve" smooth="yes"/>
      <point x="169" y="56"/>
      <point x="134" y="114"/>
      <point x="134" y="146" type="curve" smooth="yes"/>
      <point x="134" y="177"/>
      <point x="149" y="228"/>
      <point x="237" y="228" type="curve" smooth="yes"/>
      <point x="330" y="228"/>
      <point x="387" y="166"/>
      <point x="424" y="120" type="curve" smooth="yes"/>
      <point x="471" y="62"/>
      <point x="550" y="-14"/>
      <point x="660" y="-14" type="curve" smooth="yes"/>
    </contour>
  </outline>
</glyph>
<glyph name="SubUpArrwhd" format="2">
  <advance width="629"/>
  <unicode hex="E21F"/>
  <outline>
    <contour>
      <point x="575" y="-108"/>
      <point x="598" y="-89" type="curve"/>
      <point x="351" y="484" type="line"/>
      <point x="325" y="473"/>
      <point x="281" y="450"/>
      <point x="258" y="431" type="curve"/>
      <point x="31" y="-115" type="line"/>
      <point x="48" y="-131" type="line"/>
      <point x="66" y="-123"/>
      <point x="104" y="-105"/>
      <point x="123" y="-89" type="curve"/>
      <point x="299" y="343" type="line"/>
      <point x="498" y="-115" type="line"/>
      <point x="524" y="-131" type="line"/>
      <point x="555" y="-118"/>
    </contour>
  </outline>
</glyph>
<glyph name="SubMultSgn" format="2">
  <advance width="588"/>
  <unicode hex="E222"/>
  <outline>
    <contour>
      <point x="513" y="-34"/>
      <point x="532" y="-27" type="curve"/>
      <point x="532" y="-7" type="line"/>
      <point x="141" y="329" type="line"/>
      <point x="121" y="325"/>
      <point x="74" y="307"/>
      <point x="56" y="300" type="curve"/>
      <point x="56" y="280" type="line"/>
      <point x="448" y="-56" type="line"/>
      <point x="465" y="-52"/>
    </contour>
    <contour>
      <point x="55" y="-7" type="line"/>
      <point x="55" y="-27" type="line"/>
      <point x="74" y="-34"/>
      <point x="123" y="-52"/>
      <point x="140" y="-56" type="curve"/>
      <point x="532" y="280" type="line"/>
      <point x="532" y="300" type="line"/>
      <point x="513" y="307"/>
      <point x="467" y="325"/>
      <point x="446" y="329" type="curve"/>
    </contour>
  </outline>
</glyph>
<glyph name="SubMiddleDot" format="2">
  <advance width="210"/>
  <unicode hex="E223"/>
  <outline>
    <contour>
      <point x="175" y="188"/>
      <point x="175" y="233" type="curve"/>
      <point x="175" y="270"/>
      <point x="155" y="290"/>
      <point x="115" y="290" type="curve" smooth="yes"/>
      <point x="71" y="290"/>
      <point x="35" y="254"/>
      <point x="35" y="208" type="curve" smooth="yes"/>
      <point x="35" y="171"/>
      <point x="52" y="150"/>
      <point x="94" y="150" type="curve" smooth="yes"/>
      <point x="140" y="150"/>
    </contour>
  </outline>
</glyph>
<glyph name="SubSolidus" format="2">
  <advance width="672"/>
  <unicode hex="E224"/>
  <outline>
    <contour>
      <point x="148" y="-370" type="curve"/>
      <point x="636" y="747" type="line"/>
      <point x="610" y="760" type="line"/>
      <point x="584" y="754"/>
      <point x="550" y="744"/>
      <point x="525" y="731" type="curve"/>
      <point x="34" y="-386" type="line"/>
      <point x="60" y="-401" type="line"/>
      <point x="83" y="-395"/>
      <point x="129" y="-381"/>
    </contour>
  </outline>
</glyph>
<glyph name="SubAlmostEqTo" format="2">
  <advance width="629"/>
  <unicode hex="E229"/>
  <outline>
    <contour>
      <point x="543" y="182"/>
      <point x="590" y="247" type="curve"/>
      <point x="552" y="292" type="line"/>
      <point x="524" y="259"/>
      <point x="478" y="230"/>
      <point x="435" y="230" type="curve" smooth="yes"/>
      <point x="377" y="230"/>
      <point x="293" y="289"/>
      <point x="209" y="289" type="curve" smooth="yes"/>
      <point x="143" y="289"/>
      <point x="86" y="256"/>
      <point x="39" y="191" type="curve"/>
      <point x="76" y="148" type="line"/>
      <point x="118" y="186"/>
      <point x="148" y="209"/>
      <point x="192" y="209" type="curve" smooth="yes"/>
      <point x="268" y="209"/>
      <point x="342" y="150"/>
      <point x="421" y="150" type="curve" smooth="yes"/>
      <point x="486" y="150"/>
    </contour>
    <contour>
      <point x="543" y="16"/>
      <point x="590" y="81" type="curve"/>
      <point x="552" y="126" type="line"/>
      <point x="524" y="93"/>
      <point x="478" y="64"/>
      <point x="435" y="64" type="curve" smooth="yes"/>
      <point x="377" y="64"/>
      <point x="293" y="123"/>
      <point x="209" y="123" type="curve" smooth="yes"/>
      <point x="143" y="123"/>
      <point x="86" y="90"/>
      <point x="39" y="25" type="curve"/>
      <point x="76" y="-18" type="line"/>
      <point x="118" y="20"/>
      <point x="148" y="43"/>
      <point x="192" y="43" type="curve" smooth="yes"/>
      <point x="268" y="43"/>
      <point x="342" y="-16"/>
      <point x="421" y="-16" type="curve" smooth="yes"/>
      <point x="486" y="-16"/>
    </contour>
  </outline>
</glyph>
<glyph name="SubGTSgn" format="2">
  <advance width="629"/>
  <unicode hex="E22A"/>
  <outline>
    <contour>
      <point x="587" y="175" type="curve"/>
      <point x="570" y="189" type="line"/>
      <point x="102" y="339" type="line"/>
      <point x="85" y="327"/>
      <point x="64" y="315"/>
      <point x="43" y="300" type="curve"/>
      <point x="55" y="277" type="line"/>
      <point x="450" y="151" type="line"/>
      <point x="64" y="27" type="line"/>
      <point x="57" y="14"/>
      <point x="49" y="-16"/>
      <point x="43" y="-31" type="curve"/>
      <point x="60" y="-46" type="line"/>
      <point x="565" y="114" type="line"/>
      <point x="573" y="132"/>
      <point x="582" y="160"/>
    </contour>
  </outline>
</glyph>
<glyph name="SubLTSgn" format="2">
  <advance width="629"/>
  <unicode hex="E22B"/>
  <outline>
    <contour>
      <point x="582" y="318"/>
      <point x="587" y="334" type="curve"/>
      <point x="569" y="349" type="line"/>
      <point x="64" y="187" type="line"/>
      <point x="56" y="171"/>
      <point x="38" y="124"/>
      <point x="33" y="108" type="curve"/>
      <point x="50" y="94" type="line"/>
      <point x="566" y="264" type="line"/>
      <point x="572" y="279"/>
    </contour>
    <contour>
      <point x="566" y="-23"/>
      <point x="587" y="-7" type="curve"/>
      <point x="575" y="15" type="line"/>
      <point x="64" y="187" type="line"/>
      <point x="56" y="171"/>
      <point x="38" y="124"/>
      <point x="33" y="108" type="curve"/>
      <point x="50" y="94" type="line"/>
      <point x="518" y="-56" type="line"/>
      <point x="546" y="-41"/>
    </contour>
  </outline>
</glyph>
<glyph name="SubGTOrEqTo" format="2">
  <advance width="629"/>
  <unicode hex="E22C"/>
  <outline>
    <contour>
      <point x="64" y="387"/>
      <point x="43" y="372" type="curve"/>
      <point x="55" y="349" type="line"/>
      <point x="450" y="223" type="line"/>
      <point x="64" y="99" type="line"/>
      <point x="57" y="86"/>
      <point x="49" y="56"/>
      <point x="43" y="41" type="curve"/>
      <point x="60" y="26" type="line"/>
      <point x="565" y="186" type="line"/>
      <point x="575" y="205"/>
      <point x="582" y="228"/>
      <point x="587" y="247" type="curve"/>
      <point x="570" y="261" type="line"/>
      <point x="102" y="411" type="line"/>
      <point x="85" y="399"/>
    </contour>
    <contour>
      <point x="582" y="-46"/>
      <point x="587" y="-29" type="curve"/>
      <point x="569" y="-14" type="line"/>
      <point x="64" y="-14" type="line"/>
      <point x="56" y="-30"/>
      <point x="48" y="-48"/>
      <point x="43" y="-64" type="curve"/>
      <point x="60" y="-80" type="line"/>
      <point x="566" y="-80" type="line"/>
      <point x="572" y="-65"/>
    </contour>
  </outline>
</glyph>
<glyph name="SubLTOrEqTo" format="2">
  <advance width="629"/>
  <unicode hex="E22D"/>
  <outline>
    <contour>
      <point x="528" y="26" type="line"/>
      <point x="556" y="41"/>
      <point x="566" y="49"/>
      <point x="587" y="65" type="curve"/>
      <point x="575" y="87" type="line"/>
      <point x="178" y="213" type="line"/>
      <point x="566" y="336" type="line"/>
      <point x="572" y="351"/>
      <point x="582" y="380"/>
      <point x="587" y="396" type="curve"/>
      <point x="569" y="411" type="line"/>
      <point x="64" y="249" type="line"/>
      <point x="55" y="231"/>
      <point x="48" y="212"/>
      <point x="43" y="194" type="curve"/>
      <point x="48" y="188"/>
      <point x="55" y="180"/>
      <point x="60" y="176" type="curve"/>
    </contour>
    <contour>
      <point x="60" y="-80" type="line"/>
      <point x="566" y="-80" type="line"/>
      <point x="572" y="-65"/>
      <point x="582" y="-46"/>
      <point x="587" y="-29" type="curve"/>
      <point x="569" y="-14" type="line"/>
      <point x="64" y="-14" type="line"/>
      <point x="56" y="-30"/>
      <point x="48" y="-48"/>
      <point x="43" y="-64" type="curve"/>
    </contour>
  </outline>
</glyph>
<glyph name="SubNotGTSgn" format="2">
  <advance width="629"/>
  <unicode hex="E22E"/>
  <outline>
    <contour>
      <point x="592" y="185" type="curve"/>
      <point x="575" y="199" type="line"/>
      <point x="107" y="349" type="line"/>
      <point x="90" y="337"/>
      <point x="64" y="315"/>
      <point x="43" y="300" type="curve"/>
      <point x="55" y="277" type="line"/>
      <point x="450" y="151" type="line"/>
      <point x="64" y="27" type="line"/>
      <point x="57" y="14"/>
      <point x="44" y="-26"/>
      <point x="38" y="-41" type="curve"/>
      <point x="55" y="-56" type="line"/>
      <point x="560" y="104" type="line"/>
      <point x="568" y="122"/>
      <point x="587" y="170"/>
    </contour>
    <contour>
      <point x="156" y="-110" type="curve"/>
      <point x="525" y="393" type="line"/>
      <point x="505" y="413" type="line"/>
      <point x="476" y="407"/>
      <point x="428" y="396"/>
      <point x="402" y="383" type="curve"/>
      <point x="34" y="-120" type="line"/>
      <point x="51" y="-141" type="line"/>
      <point x="74" y="-135"/>
      <point x="139" y="-121"/>
    </contour>
  </outline>
</glyph>
<glyph name="SubNotLTSgn" format="2">
  <advance width="629"/>
  <unicode hex="E22F"/>
  <outline>
    <contour>
      <point x="582" y="318"/>
      <point x="587" y="334" type="curve"/>
      <point x="569" y="349" type="line"/>
      <point x="64" y="187" type="line"/>
      <point x="56" y="171"/>
      <point x="48" y="134"/>
      <point x="43" y="118" type="curve"/>
      <point x="60" y="104" type="line"/>
      <point x="566" y="264" type="line"/>
      <point x="572" y="279"/>
    </contour>
    <contour>
      <point x="566" y="-13"/>
      <point x="587" y="3" type="curve"/>
      <point x="575" y="25" type="line"/>
      <point x="64" y="187" type="line"/>
      <point x="56" y="171"/>
      <point x="48" y="134"/>
      <point x="43" y="118" type="curve"/>
      <point x="60" y="104" type="line"/>
      <point x="528" y="-46" type="line"/>
      <point x="556" y="-31"/>
    </contour>
    <contour>
      <point x="216" y="-86" type="curve"/>
      <point x="585" y="437" type="line"/>
      <point x="565" y="457" type="line"/>
      <point x="536" y="451"/>
      <point x="498" y="440"/>
      <point x="472" y="427" type="curve"/>
      <point x="104" y="-96" type="line"/>
      <point x="121" y="-117" type="line"/>
      <point x="144" y="-111"/>
      <point x="199" y="-97"/>
    </contour>
  </outline>
</glyph>
<glyph name="SubFullStop" format="2">
  <advance width="328"/>
  <unicode hex="E230"/>
  <outline>
    <contour>
      <point x="268" y="-181"/>
      <point x="268" y="-126" type="curve"/>
      <point x="268" y="-83"/>
      <point x="235" y="-53"/>
      <point x="189" y="-53" type="curve" smooth="yes"/>
      <point x="136" y="-53"/>
      <point x="82" y="-103"/>
      <point x="82" y="-157" type="curve" smooth="yes"/>
      <point x="82" y="-200"/>
      <point x="112" y="-229"/>
      <point x="162" y="-229" type="curve" smooth="yes"/>
      <point x="216" y="-229"/>
    </contour>
  </outline>
</glyph>
<glyph name="SubComma" format="2">
  <advance width="328"/>
  <unicode hex="E231"/>
  <outline>
    <contour>
      <point x="273" y="-221"/>
      <point x="273" y="-158" type="curve"/>
      <point x="273" y="-113"/>
      <point x="261" y="-81"/>
      <point x="216" y="-63" type="curve"/>
      <point x="183" y="-61"/>
      <point x="78" y="-98"/>
      <point x="62" y="-117" type="curve"/>
      <point x="73" y="-145" type="line"/>
      <point x="133" y="-141"/>
      <point x="158" y="-165"/>
      <point x="158" y="-200" type="curve" smooth="yes"/>
      <point x="158" y="-269"/>
      <point x="136" y="-310"/>
      <point x="85" y="-362" type="curve"/>
      <point x="116" y="-383" type="line"/>
      <point x="214" y="-321"/>
    </contour>
  </outline>
</glyph>
<glyph name="SubColon" format="2">
  <advance width="328"/>
  <unicode hex="E232"/>
  <outline>
    <contour>
      <point x="268" y="-181"/>
      <point x="268" y="-126" type="curve"/>
      <point x="268" y="-83"/>
      <point x="235" y="-48"/>
      <point x="189" y="-48" type="curve" smooth="yes"/>
      <point x="136" y="-48"/>
      <point x="82" y="-103"/>
      <point x="82" y="-157" type="curve" smooth="yes"/>
      <point x="82" y="-200"/>
      <point x="112" y="-234"/>
      <point x="162" y="-234" type="curve" smooth="yes"/>
      <point x="216" y="-234"/>
    </contour>
    <contour>
      <point x="268" y="254"/>
      <point x="268" y="309" type="curve"/>
      <point x="268" y="352"/>
      <point x="235" y="387"/>
      <point x="189" y="387" type="curve" smooth="yes"/>
      <point x="136" y="387"/>
      <point x="82" y="332"/>
      <point x="82" y="278" type="curve" smooth="yes"/>
      <point x="82" y="235"/>
      <point x="112" y="201"/>
      <point x="162" y="201" type="curve" smooth="yes"/>
      <point x="216" y="201"/>
    </contour>
  </outline>
</glyph>
<glyph name="SubDblSolidus" format="2">
  <advance width="944"/>
  <unicode hex="E234"/>
  <outline>
    <contour>
      <point x="148" y="-370" type="curve"/>
      <point x="636" y="747" type="line"/>
      <point x="610" y="760" type="line"/>
      <point x="584" y="754"/>
      <point x="550" y="744"/>
      <point x="525" y="731" type="curve"/>
      <point x="34" y="-386" type="line"/>
      <point x="60" y="-401" type="line"/>
      <point x="83" y="-395"/>
      <point x="129" y="-381"/>
    </contour>
    <contour>
      <point x="420" y="-370" type="curve"/>
      <point x="909" y="747" type="line"/>
      <point x="883" y="760" type="line"/>
      <point x="856" y="754"/>
      <point x="822" y="744"/>
      <point x="797" y="731" type="curve"/>
      <point x="307" y="-386" type="line"/>
      <point x="332" y="-401" type="line"/>
      <point x="356" y="-395"/>
      <point x="401" y="-381"/>
    </contour>
  </outline>
</glyph>
<glyph name="SubPerpendicular" format="2">
  <advance width="707"/>
  <unicode hex="E235"/>
  <outline>
    <contour>
      <point x="328" y="368"/>
      <point x="310" y="360" type="curve"/>
      <point x="310" y="-150" type="line"/>
      <point x="328" y="-175" type="line"/>
      <point x="347" y="-172"/>
      <point x="381" y="-153"/>
      <point x="397" y="-147" type="curve"/>
      <point x="397" y="366" type="line"/>
      <point x="380" y="380" type="line"/>
      <point x="356" y="375"/>
    </contour>
    <contour>
      <point x="27" y="-179"/>
      <point x="21" y="-197" type="curve"/>
      <point x="38" y="-210" type="line"/>
      <point x="666" y="-210" type="line"/>
      <point x="673" y="-196"/>
      <point x="682" y="-174"/>
      <point x="687" y="-147" type="curve"/>
      <point x="669" y="-133" type="line"/>
      <point x="43" y="-133" type="line"/>
      <point x="36" y="-145"/>
    </contour>
  </outline>
</glyph>
<glyph name="SubDegreeSgn" format="2">
  <advance width="513"/>
  <unicode hex="E236"/>
  <outline>
    <contour>
      <point x="425" y="329"/>
      <point x="425" y="427" type="curve"/>
      <point x="425" y="488"/>
      <point x="361" y="541"/>
      <point x="283" y="541" type="curve" smooth="yes"/>
      <point x="190" y="541"/>
      <point x="88" y="468"/>
      <point x="88" y="369" type="curve" smooth="yes"/>
      <point x="88" y="307"/>
      <point x="148" y="255"/>
      <point x="230" y="255" type="curve" smooth="yes"/>
      <point x="321" y="255"/>
    </contour>
    <contour>
      <point x="334" y="444"/>
      <point x="334" y="397" type="curve"/>
      <point x="334" y="342"/>
      <point x="293" y="311"/>
      <point x="248" y="311" type="curve" smooth="yes"/>
      <point x="202" y="311"/>
      <point x="180" y="354"/>
      <point x="180" y="399" type="curve" smooth="yes"/>
      <point x="180" y="452"/>
      <point x="218" y="485"/>
      <point x="265" y="485" type="curve" smooth="yes"/>
      <point x="310" y="485"/>
    </contour>
  </outline>
</glyph>
<glyph name="WSPSubEqualSlash" format="2">
  <advance width="679"/>
  <unicode hex="E240"/>
  <outline>
    <contour>
      <point x="591" y="91" type="line"/>
      <point x="596" y="105"/>
      <point x="606" y="126"/>
      <point x="611" y="142" type="curve"/>
      <point x="594" y="157" type="line"/>
      <point x="90" y="157" type="line"/>
      <point x="81" y="142"/>
      <point x="73" y="122"/>
      <point x="68" y="106" type="curve"/>
      <point x="85" y="91" type="line"/>
    </contour>
    <contour>
      <point x="591" y="-107" type="line"/>
      <point x="596" y="-92"/>
      <point x="606" y="-73"/>
      <point x="611" y="-56" type="curve"/>
      <point x="594" y="-41" type="line"/>
      <point x="90" y="-41" type="line"/>
      <point x="81" y="-57"/>
      <point x="73" y="-75"/>
      <point x="68" y="-91" type="curve"/>
      <point x="85" y="-107" type="line"/>
    </contour>
    <contour>
      <point x="110" y="-500" type="line"/>
      <point x="133" y="-494"/>
      <point x="154" y="-480"/>
      <point x="173" y="-469" type="curve"/>
      <point x="595" y="541" type="line"/>
      <point x="569" y="554" type="line"/>
      <point x="542" y="548"/>
      <point x="533" y="539"/>
      <point x="508" y="525" type="curve"/>
      <point x="84" y="-485" type="line"/>
    </contour>
  </outline>
</glyph>
<glyph name="WSPSubBoxSlash" format="2">
  <advance width="679"/>
  <unicode hex="E241"/>
  <outline>
    <contour>
      <point x="114" y="-198" type="line"/>
      <point x="132" y="-194"/>
      <point x="154" y="-189"/>
      <point x="172" y="-182" type="curve"/>
      <point x="172" y="203" type="line"/>
      <point x="154" y="216" type="line"/>
      <point x="136" y="213"/>
      <point x="113" y="176"/>
      <point x="98" y="171" type="curve"/>
      <point x="98" y="-187" type="line"/>
    </contour>
    <contour>
      <point x="561" y="159" type="line"/>
      <point x="567" y="170"/>
      <point x="576" y="193"/>
      <point x="581" y="209" type="curve"/>
      <point x="564" y="222" type="line"/>
      <point x="118" y="222" type="line"/>
      <point x="111" y="208"/>
      <point x="103" y="188"/>
      <point x="98" y="171" type="curve"/>
      <point x="115" y="159" type="line"/>
    </contour>
    <contour>
      <point x="581" y="-150" type="curve"/>
      <point x="581" y="209" type="line"/>
      <point x="564" y="218" type="line"/>
      <point x="546" y="215"/>
      <point x="522" y="211"/>
      <point x="507" y="206" type="curve"/>
      <point x="507" y="-187" type="line"/>
      <point x="524" y="-200" type="line"/>
      <point x="541" y="-196"/>
      <point x="564" y="-157"/>
    </contour>
    <contour>
      <point x="561" y="-200" type="line"/>
      <point x="567" y="-189"/>
      <point x="576" y="-166"/>
      <point x="581" y="-150" type="curve"/>
      <point x="564" y="-137" type="line"/>
      <point x="118" y="-137" type="line"/>
      <point x="111" y="-151"/>
      <point x="103" y="-171"/>
      <point x="98" y="-187" type="curve"/>
      <point x="115" y="-200" type="line"/>
    </contour>
    <contour>
      <point x="110" y="-500" type="line"/>
      <point x="133" y="-494"/>
      <point x="154" y="-480"/>
      <point x="173" y="-469" type="curve"/>
      <point x="595" y="541" type="line"/>
      <point x="569" y="554" type="line"/>
      <point x="542" y="548"/>
      <point x="533" y="539"/>
      <point x="508" y="525" type="curve"/>
      <point x="84" y="-485" type="line"/>
    </contour>
  </outline>
</glyph>
<glyph name="WSPSubCircleSlash" format="2">
  <advance width="679"/>
  <unicode hex="E242"/>
  <outline>
    <contour>
      <point x="340" y="-218" type="curve" smooth="yes"/>
      <point x="488" y="-218"/>
      <point x="608" y="-115"/>
      <point x="608" y="12" type="curve" smooth="yes"/>
      <point x="608" y="139"/>
      <point x="488" y="242"/>
      <point x="340" y="242" type="curve" smooth="yes"/>
      <point x="191" y="242"/>
      <point x="71" y="139"/>
      <point x="71" y="12" type="curve" smooth="yes"/>
      <point x="71" y="-115"/>
      <point x="191" y="-218"/>
    </contour>
    <contour>
      <point x="340" y="-154" type="curve" smooth="yes"/>
      <point x="232" y="-154"/>
      <point x="146" y="-80"/>
      <point x="146" y="12" type="curve" smooth="yes"/>
      <point x="146" y="104"/>
      <point x="232" y="177"/>
      <point x="340" y="177" type="curve" smooth="yes"/>
      <point x="447" y="177"/>
      <point x="533" y="104"/>
      <point x="533" y="12" type="curve" smooth="yes"/>
      <point x="533" y="-80"/>
      <point x="447" y="-154"/>
    </contour>
    <contour>
      <point x="110" y="-500" type="line"/>
      <point x="133" y="-494"/>
      <point x="154" y="-480"/>
      <point x="173" y="-469" type="curve"/>
      <point x="595" y="541" type="line"/>
      <point x="569" y="554" type="line"/>
      <point x="542" y="548"/>
      <point x="533" y="539"/>
      <point x="508" y="525" type="curve"/>
      <point x="84" y="-485" type="line"/>
    </contour>
  </outline>
</glyph>
<glyph name="WSPSubFlagSlash" format="2">
  <advance width="840"/>
  <unicode hex="E243"/>
  <outline>
    <contour>
      <point x="340" y="-218" type="curve" smooth="yes"/>
      <point x="488" y="-218"/>
      <point x="608" y="-115"/>
      <point x="608" y="12" type="curve" smooth="yes"/>
      <point x="608" y="139"/>
      <point x="488" y="242"/>
      <point x="340" y="242" type="curve" smooth="yes"/>
      <point x="191" y="242"/>
      <point x="71" y="139"/>
      <point x="71" y="12" type="curve" smooth="yes"/>
      <point x="71" y="-115"/>
      <point x="191" y="-218"/>
    </contour>
    <contour>
      <point x="340" y="-154" type="curve" smooth="yes"/>
      <point x="232" y="-154"/>
      <point x="146" y="-80"/>
      <point x="146" y="12" type="curve" smooth="yes"/>
      <point x="146" y="104"/>
      <point x="232" y="177"/>
      <point x="340" y="177" type="curve" smooth="yes"/>
      <point x="447" y="177"/>
      <point x="533" y="104"/>
      <point x="533" y="12" type="curve" smooth="yes"/>
      <point x="533" y="-80"/>
      <point x="447" y="-154"/>
    </contour>
    <contour>
      <point x="110" y="-500" type="line"/>
      <point x="133" y="-494"/>
      <point x="154" y="-480"/>
      <point x="173" y="-469" type="curve"/>
      <point x="595" y="541" type="line"/>
      <point x="569" y="554" type="line"/>
      <point x="542" y="548"/>
      <point x="533" y="539"/>
      <point x="508" y="525" type="curve"/>
      <point x="84" y="-485" type="line"/>
    </contour>
    <contour>
      <point x="820" y="493" type="line"/>
      <point x="826" y="504"/>
      <point x="835" y="527"/>
      <point x="840" y="543" type="curve"/>
      <point x="823" y="556" type="line"/>
      <point x="522" y="556" type="line"/>
      <point x="514" y="542"/>
      <point x="507" y="522"/>
      <point x="502" y="506" type="curve"/>
      <point x="519" y="493" type="line"/>
    </contour>
  </outline>
</glyph>
<glyph name="SubVertLine" format="2">
  <advance width="350"/>
  <unicode hex="E250"/>
  <outline>
    <contour>
      <point x="207" y="-481"/>
      <point x="224" y="-469" type="curve"/>
      <point x="224" y="789" type="line"/>
      <point x="199" y="802" type="line"/>
      <point x="172" y="796"/>
      <point x="152" y="786"/>
      <point x="126" y="773" type="curve"/>
      <point x="126" y="-486" type="line"/>
      <point x="150" y="-500" type="line"/>
      <point x="174" y="-493"/>
    </contour>
  </outline>
</glyph>
<glyph name="WSPLtnSubSmLBaseline" format="2">
  <advance width="411"/>
  <unicode hex="E30C"/>
  <outline>
    <contour>
      <point x="226" y="-218" type="curve" smooth="yes"/>
      <point x="262" y="-218"/>
      <point x="331" y="-196"/>
      <point x="426" y="-119" type="curve"/>
      <point x="414" y="-88" type="line"/>
      <point x="354" y="-125"/>
      <point x="307" y="-136"/>
      <point x="297" y="-136" type="curve" smooth="yes"/>
      <point x="255" y="-136"/>
      <point x="245" y="-126"/>
      <point x="245" y="-18" type="curve" smooth="yes"/>
      <point x="245" y="712" type="line"/>
      <point x="220" y="730" type="line"/>
      <point x="175" y="709"/>
      <point x="100" y="689"/>
      <point x="41" y="682" type="curve"/>
      <point x="41" y="658" type="line"/>
      <point x="142" y="650"/>
      <point x="140" y="638"/>
      <point x="140" y="556" type="curve" smooth="yes"/>
      <point x="140" y="-78" type="line" smooth="yes"/>
      <point x="140" y="-174"/>
      <point x="156" y="-218"/>
    </contour>
  </outline>
</glyph>
<glyph name="GrSubSmAlpha" format="2">
  <advance width="753"/>
  <unicode hex="E340"/>
  <anchor x="357" y="-260" name="L"/>
  <anchor x="364" y="430" name="U"/>
  <outline>
    <contour>
      <point x="267" y="-218" type="curve" smooth="yes"/>
      <point x="332" y="-218"/>
      <point x="415" y="-163"/>
      <point x="486" y="-44" type="curve"/>
      <point x="505" y="-174"/>
      <point x="521" y="-218"/>
      <point x="559" y="-218" type="curve" smooth="yes"/>
      <point x="598" y="-218"/>
      <point x="654" y="-192"/>
      <point x="718" y="-145" type="curve"/>
      <point x="715" y="-132"/>
      <point x="712" y="-125"/>
      <point x="710" y="-118" type="curve"/>
      <point x="676" y="-129"/>
      <point x="644" y="-134"/>
      <point x="629" y="-134" type="curve" smooth="yes"/>
      <point x="606" y="-134"/>
      <point x="588" y="-120"/>
      <point x="552" y="81" type="curve"/>
      <point x="601" y="263"/>
      <point x="644" y="320"/>
      <point x="715" y="354" type="curve"/>
      <point x="710" y="360"/>
      <point x="708" y="368"/>
      <point x="701" y="376" type="curve"/>
      <point x="657" y="365"/>
      <point x="596" y="357"/>
      <point x="556" y="350" type="curve"/>
      <point x="559" y="303"/>
      <point x="547" y="241"/>
      <point x="529" y="177" type="curve"/>
      <point x="493" y="309"/>
      <point x="421" y="376"/>
      <point x="336" y="376" type="curve" smooth="yes"/>
      <point x="176" y="376"/>
      <point x="56" y="221"/>
      <point x="56" y="47" type="curve" smooth="yes"/>
      <point x="56" y="-127"/>
      <point x="155" y="-218"/>
    </contour>
    <contour>
      <point x="293" y="-129" type="curve" smooth="yes"/>
      <point x="205" y="-129"/>
      <point x="154" y="-18"/>
      <point x="154" y="96" type="curve" smooth="yes"/>
      <point x="154" y="243"/>
      <point x="229" y="313"/>
      <point x="300" y="313" type="curve" smooth="yes"/>
      <point x="383" y="313"/>
      <point x="447" y="230"/>
      <point x="472" y="50" type="curve"/>
      <point x="432" y="-37"/>
      <point x="365" y="-129"/>
    </contour>
  </outline>
</glyph>
<glyph name="GrSubSmDelta" format="2">
  <advance width="687"/>
  <unicode hex="E343"/>
  <anchor x="354" y="-280" name="L"/>
  <anchor x="381" y="800" name="U"/>
  <outline>
    <contour>
      <point x="346" y="-218" type="curve" smooth="yes"/>
      <point x="488" y="-218"/>
      <point x="631" y="-74"/>
      <point x="631" y="68" type="curve" smooth="yes"/>
      <point x="631" y="368"/>
      <point x="236" y="495"/>
      <point x="236" y="639" type="curve" smooth="yes"/>
      <point x="236" y="658"/>
      <point x="244" y="667"/>
      <point x="260" y="667" type="curve" smooth="yes"/>
      <point x="344" y="667"/>
      <point x="479" y="594"/>
      <point x="513" y="594" type="curve" smooth="yes"/>
      <point x="531" y="594"/>
      <point x="565" y="630"/>
      <point x="633" y="686" type="curve"/>
      <point x="623" y="700"/>
      <point x="620" y="709"/>
      <point x="613" y="714" type="curve"/>
      <point x="601" y="709"/>
      <point x="589" y="707"/>
      <point x="575" y="707" type="curve" smooth="yes"/>
      <point x="494" y="707"/>
      <point x="405" y="732"/>
      <point x="279" y="732" type="curve" smooth="yes"/>
      <point x="202" y="732"/>
      <point x="138" y="680"/>
      <point x="138" y="618" type="curve" smooth="yes"/>
      <point x="138" y="406"/>
      <point x="503" y="318"/>
      <point x="503" y="27" type="curve" smooth="yes"/>
      <point x="503" y="-63"/>
      <point x="442" y="-132"/>
      <point x="384" y="-133" type="curve" smooth="yes"/>
      <point x="280" y="-135"/>
      <point x="199" y="-24"/>
      <point x="197" y="86" type="curve" smooth="yes"/>
      <point x="195" y="189"/>
      <point x="241" y="282"/>
      <point x="360" y="323" type="curve"/>
      <point x="361" y="326"/>
      <point x="360" y="334"/>
      <point x="360" y="338" type="curve" smooth="yes"/>
      <point x="360" y="349"/>
      <point x="355" y="371"/>
      <point x="348" y="382" type="curve"/>
      <point x="180" y="331"/>
      <point x="67" y="210"/>
      <point x="67" y="53" type="curve" smooth="yes"/>
      <point x="67" y="-90"/>
      <point x="170" y="-218"/>
    </contour>
  </outline>
</glyph>
<glyph name="GrSubSmEpsilon" format="2">
  <advance width="603"/>
  <unicode hex="E344"/>
  <anchor x="340" y="430" name="U"/>
  <outline>
    <contour>
      <point x="533" y="286"/>
      <point x="568" y="339" type="curve"/>
      <point x="561" y="347"/>
      <point x="556" y="354"/>
      <point x="546" y="358" type="curve"/>
      <point x="540" y="357"/>
      <point x="511" y="353"/>
      <point x="505" y="353" type="curve" smooth="yes"/>
      <point x="454" y="353"/>
      <point x="405" y="376"/>
      <point x="322" y="376" type="curve" smooth="yes"/>
      <point x="230" y="376"/>
      <point x="77" y="308"/>
      <point x="77" y="206" type="curve" smooth="yes"/>
      <point x="77" y="147"/>
      <point x="119" y="109"/>
      <point x="188" y="87" type="curve"/>
      <point x="109" y="58"/>
      <point x="49" y="4"/>
      <point x="49" y="-66" type="curve" smooth="yes"/>
      <point x="49" y="-153"/>
      <point x="146" y="-218"/>
      <point x="287" y="-218" type="curve" smooth="yes"/>
      <point x="410" y="-218"/>
      <point x="483" y="-189"/>
      <point x="578" y="-117" type="curve"/>
      <point x="561" y="-85" type="line"/>
      <point x="471" y="-129"/>
      <point x="406" y="-140"/>
      <point x="341" y="-140" type="curve" smooth="yes"/>
      <point x="235" y="-140"/>
      <point x="158" y="-89"/>
      <point x="158" y="-34" type="curve" smooth="yes"/>
      <point x="158" y="8"/>
      <point x="224" y="73"/>
      <point x="359" y="73" type="curve" smooth="yes"/>
      <point x="382" y="73"/>
      <point x="400" y="70"/>
      <point x="427" y="64" type="curve"/>
      <point x="463" y="120" type="line"/>
      <point x="449" y="132" type="line"/>
      <point x="421" y="127"/>
      <point x="386" y="123"/>
      <point x="361" y="123" type="curve" smooth="yes"/>
      <point x="231" y="123"/>
      <point x="168" y="177"/>
      <point x="168" y="227" type="curve" smooth="yes"/>
      <point x="168" y="278"/>
      <point x="211" y="316"/>
      <point x="293" y="316" type="curve" smooth="yes"/>
      <point x="369" y="316"/>
      <point x="457" y="256"/>
      <point x="477" y="256" type="curve" smooth="yes"/>
      <point x="490" y="256"/>
    </contour>
  </outline>
</glyph>
<glyph name="GrSubSmZeta" format="2">
  <advance width="573"/>
  <unicode hex="E345"/>
  <outline>
    <contour>
      <point x="360" y="497"/>
      <point x="566" y="629" type="curve"/>
      <point x="564" y="640"/>
      <point x="557" y="665"/>
      <point x="556" y="675" type="curve"/>
      <point x="402" y="657"/>
      <point x="298" y="657"/>
      <point x="250" y="657" type="curve" smooth="yes"/>
      <point x="190" y="657"/>
      <point x="172" y="711"/>
      <point x="166" y="728" type="curve"/>
      <point x="162" y="728"/>
      <point x="158" y="729"/>
      <point x="154" y="729" type="curve" smooth="yes"/>
      <point x="134" y="729"/>
      <point x="124" y="726"/>
      <point x="115" y="724" type="curve"/>
      <point x="120" y="696"/>
      <point x="134" y="599"/>
      <point x="134" y="599" type="curve"/>
      <point x="137" y="577"/>
      <point x="186" y="569"/>
      <point x="210" y="569" type="curve" smooth="yes"/>
      <point x="242" y="569"/>
      <point x="329" y="574"/>
      <point x="428" y="600" type="curve"/>
      <point x="204" y="409"/>
      <point x="46" y="219"/>
      <point x="46" y="12" type="curve" smooth="yes"/>
      <point x="46" y="-268"/>
      <point x="432" y="-154"/>
      <point x="432" y="-293" type="curve" smooth="yes"/>
      <point x="432" y="-333"/>
      <point x="414" y="-384"/>
      <point x="344" y="-463" type="curve"/>
      <point x="352" y="-472"/>
      <point x="372" y="-480"/>
      <point x="385" y="-484" type="curve"/>
      <point x="520" y="-368"/>
      <point x="561" y="-306"/>
      <point x="561" y="-247" type="curve" smooth="yes"/>
      <point x="561" y="-69"/>
      <point x="178" y="-175"/>
      <point x="178" y="48" type="curve" smooth="yes"/>
      <point x="178" y="257"/>
    </contour>
  </outline>
</glyph>
<glyph name="GrSubSmEta" format="2">
  <advance width="765"/>
  <unicode hex="E346"/>
  <anchor x="194" y="-260" name="L"/>
  <anchor x="413" y="430" name="U"/>
  <outline>
    <contour>
      <point x="613" y="376"/>
      <point x="508" y="376" type="curve" smooth="yes"/>
      <point x="421" y="376"/>
      <point x="333" y="318"/>
      <point x="242" y="206" type="curve"/>
      <point x="243" y="206"/>
      <point x="236" y="355"/>
      <point x="236" y="355" type="curve"/>
      <point x="236" y="355"/>
      <point x="211" y="376"/>
      <point x="211" y="376" type="curve"/>
      <point x="150" y="353"/>
      <point x="105" y="336"/>
      <point x="38" y="328" type="curve"/>
      <point x="38" y="304" type="line"/>
      <point x="139" y="296"/>
      <point x="141" y="293"/>
      <point x="141" y="209" type="curve" smooth="yes"/>
      <point x="141" y="207"/>
      <point x="141" y="-66"/>
      <point x="141" y="-68" type="curve"/>
      <point x="141" y="-104"/>
      <point x="137" y="-168"/>
      <point x="134" y="-200" type="curve"/>
      <point x="161" y="-218" type="line"/>
      <point x="195" y="-205"/>
      <point x="228" y="-197"/>
      <point x="260" y="-187" type="curve"/>
      <point x="252" y="-146"/>
      <point x="246" y="-114"/>
      <point x="246" y="-58" type="curve"/>
      <point x="246" y="-58"/>
      <point x="246" y="130"/>
      <point x="246" y="129" type="curve"/>
      <point x="349" y="267"/>
      <point x="416" y="298"/>
      <point x="469" y="298" type="curve" smooth="yes"/>
      <point x="542" y="298"/>
      <point x="551" y="238"/>
      <point x="551" y="160" type="curve" smooth="yes"/>
      <point x="551" y="159"/>
      <point x="551" y="-271"/>
      <point x="551" y="-273" type="curve" smooth="yes"/>
      <point x="551" y="-319"/>
      <point x="549" y="-415"/>
      <point x="547" y="-447" type="curve"/>
      <point x="574" y="-464" type="line"/>
      <point x="607" y="-451"/>
      <point x="649" y="-439"/>
      <point x="689" y="-427" type="curve"/>
      <point x="659" y="-397"/>
      <point x="656" y="-317"/>
      <point x="656" y="-171" type="curve" smooth="yes"/>
      <point x="656" y="-159"/>
      <point x="656" y="207"/>
      <point x="656" y="214" type="curve" smooth="yes"/>
      <point x="656" y="319"/>
    </contour>
  </outline>
</glyph>
<glyph name="GrSubSmTheta" format="2">
  <advance width="716"/>
  <unicode hex="E347"/>
  <anchor x="353" y="-260" name="L"/>
  <anchor x="353" y="772" name="U"/>
  <outline>
    <contour>
      <point x="664" y="-19"/>
      <point x="662" y="227" type="curve" smooth="yes"/>
      <point x="660" y="473"/>
      <point x="561" y="670"/>
      <point x="365" y="670" type="curve" smooth="yes"/>
      <point x="187" y="670"/>
      <point x="52" y="459"/>
      <point x="53" y="214" type="curve"/>
      <point x="53" y="-32"/>
      <point x="155" y="-218"/>
      <point x="344" y="-218" type="curve" smooth="yes"/>
      <point x="532" y="-218"/>
    </contour>
    <contour>
      <point x="498" y="-136"/>
      <point x="368" y="-136" type="curve" smooth="yes"/>
      <point x="254" y="-136"/>
      <point x="196" y="7"/>
      <point x="186" y="197" type="curve"/>
      <point x="294" y="205"/>
      <point x="409" y="205"/>
      <point x="530" y="198" type="curve"/>
      <point x="537" y="-29"/>
    </contour>
    <contour>
      <point x="228" y="588"/>
      <point x="350" y="588" type="curve" smooth="yes"/>
      <point x="454" y="588"/>
      <point x="510" y="455"/>
      <point x="526" y="272" type="curve"/>
      <point x="414" y="266"/>
      <point x="314" y="263"/>
      <point x="185" y="273" type="curve"/>
      <point x="186" y="491"/>
    </contour>
  </outline>
</glyph>
<glyph name="GrSubSmIota" format="2">
  <advance width="422"/>
  <unicode hex="E348"/>
  <anchor x="207" y="430" name="U"/>
  <outline>
    <contour>
      <point x="320" y="-202"/>
      <point x="405" y="-145" type="curve"/>
      <point x="398" y="-107" type="line"/>
      <point x="340" y="-132"/>
      <point x="315" y="-137"/>
      <point x="301" y="-137" type="curve" smooth="yes"/>
      <point x="282" y="-137"/>
      <point x="268" y="-128"/>
      <point x="270" y="-17" type="curve" smooth="yes"/>
      <point x="277" y="352" type="line"/>
      <point x="254" y="376" type="line"/>
      <point x="193" y="353"/>
      <point x="109" y="336"/>
      <point x="49" y="327" type="curve"/>
      <point x="49" y="293" type="line"/>
      <point x="143" y="293"/>
      <point x="147" y="275"/>
      <point x="145" y="191" type="curve" smooth="yes"/>
      <point x="139" y="-78" type="line" smooth="yes"/>
      <point x="137" y="-175"/>
      <point x="165" y="-218"/>
      <point x="230" y="-218" type="curve" smooth="yes"/>
      <point x="260" y="-218"/>
    </contour>
  </outline>
</glyph>
<glyph name="GrSubSmKappa" format="2">
  <advance width="732"/>
  <unicode hex="E349"/>
  <outline>
    <contour>
      <point x="662" y="370"/>
      <point x="657" y="376" type="curve"/>
      <point x="583" y="376"/>
      <point x="519" y="357"/>
      <point x="238" y="50" type="curve"/>
      <point x="238" y="93"/>
      <point x="238" y="356"/>
      <point x="238" y="356" type="curve"/>
      <point x="238" y="356"/>
      <point x="218" y="376"/>
      <point x="218" y="376" type="curve"/>
      <point x="172" y="360"/>
      <point x="99" y="337"/>
      <point x="30" y="328" type="curve"/>
      <point x="30" y="304" type="line"/>
      <point x="133" y="296"/>
      <point x="133" y="291"/>
      <point x="133" y="204" type="curve" smooth="yes"/>
      <point x="133" y="134"/>
      <point x="133" y="31"/>
      <point x="133" y="-49" type="curve" smooth="yes"/>
      <point x="133" y="-113"/>
      <point x="130" y="-174"/>
      <point x="124" y="-200" type="curve"/>
      <point x="150" y="-219" type="line"/>
      <point x="178" y="-208"/>
      <point x="225" y="-193"/>
      <point x="249" y="-185" type="curve"/>
      <point x="244" y="-153"/>
      <point x="238" y="-72"/>
      <point x="238" y="-25" type="curve"/>
      <point x="486" y="227"/>
      <point x="524" y="251"/>
      <point x="608" y="262" type="curve"/>
      <point x="629" y="281"/>
      <point x="652" y="319"/>
      <point x="671" y="359" type="curve"/>
      <point x="672" y="357"/>
    </contour>
    <contour>
      <point x="646" y="-192"/>
      <point x="722" y="-151" type="curve"/>
      <point x="720" y="-143"/>
      <point x="717" y="-133"/>
      <point x="715" y="-124" type="curve"/>
      <point x="678" y="-135"/>
      <point x="661" y="-141"/>
      <point x="629" y="-141" type="curve" smooth="yes"/>
      <point x="556" y="-141"/>
      <point x="497" y="137"/>
      <point x="408" y="137" type="curve" smooth="yes"/>
      <point x="383" y="137"/>
      <point x="251" y="126"/>
      <point x="169" y="-82" type="curve"/>
      <point x="181" y="-96"/>
      <point x="195" y="-95"/>
      <point x="195" y="-95" type="curve"/>
      <point x="210" y="-33"/>
      <point x="309" y="62"/>
      <point x="358" y="62" type="curve" smooth="yes"/>
      <point x="431" y="62"/>
      <point x="481" y="-219"/>
      <point x="557" y="-219" type="curve" smooth="yes"/>
      <point x="582" y="-219"/>
    </contour>
  </outline>
</glyph>
<glyph name="GrSubSmLamda" format="2">
  <advance width="758"/>
  <unicode hex="E34A"/>
  <anchor x="389" y="-260" name="L"/>
  <anchor x="389" y="814" name="U"/>
  <outline>
    <contour>
      <point x="695" y="-190"/>
      <point x="765" y="-145" type="curve"/>
      <point x="758" y="-118" type="line"/>
      <point x="712" y="-136"/>
      <point x="700" y="-140"/>
      <point x="678" y="-140" type="curve" smooth="yes"/>
      <point x="626" y="-140"/>
      <point x="566" y="24"/>
      <point x="491" y="261" type="curve" smooth="yes"/>
      <point x="362" y="672"/>
      <point x="332" y="706"/>
      <point x="267" y="706" type="curve" smooth="yes"/>
      <point x="228" y="706"/>
      <point x="173" y="680"/>
      <point x="79" y="598" type="curve"/>
      <point x="96" y="567" type="line"/>
      <point x="141" y="598"/>
      <point x="173" y="610"/>
      <point x="206" y="610" type="curve" smooth="yes"/>
      <point x="256" y="610"/>
      <point x="298" y="571"/>
      <point x="400" y="246" type="curve" smooth="yes"/>
      <point x="522" y="-143"/>
      <point x="547" y="-218"/>
      <point x="621" y="-218" type="curve" smooth="yes"/>
      <point x="652" y="-218"/>
    </contour>
    <contour>
      <point x="322" y="181"/>
      <point x="400" y="361" type="curve"/>
      <point x="396" y="373"/>
      <point x="377" y="453"/>
      <point x="357" y="468" type="curve"/>
      <point x="302" y="300"/>
      <point x="163" y="-36"/>
      <point x="14" y="-199" type="curve"/>
      <point x="35" y="-218" type="line"/>
      <point x="68" y="-210"/>
      <point x="138" y="-193"/>
      <point x="174" y="-184" type="curve"/>
      <point x="251" y="23"/>
    </contour>
  </outline>
</glyph>
<glyph name="GrSubSmMu" format="2">
  <advance width="773"/>
  <unicode hex="E34B"/>
  <outline>
    <contour>
      <point x="760" y="-151" type="curve"/>
      <point x="752" y="-123" type="line"/>
      <point x="722" y="-133"/>
      <point x="699" y="-140"/>
      <point x="678" y="-140" type="curve" smooth="yes"/>
      <point x="659" y="-140"/>
      <point x="651" y="-114"/>
      <point x="651" y="-39" type="curve" smooth="yes"/>
      <point x="651" y="-15"/>
      <point x="651" y="242"/>
      <point x="651" y="255" type="curve"/>
      <point x="652" y="305"/>
      <point x="659" y="332"/>
      <point x="662" y="353" type="curve"/>
      <point x="662" y="353"/>
      <point x="643" y="376"/>
      <point x="643" y="376" type="curve"/>
      <point x="605" y="363"/>
      <point x="560" y="350"/>
      <point x="519" y="340" type="curve"/>
      <point x="532" y="325"/>
      <point x="546" y="275"/>
      <point x="546" y="249" type="curve" smooth="yes"/>
      <point x="546" y="230"/>
      <point x="546" y="-53"/>
      <point x="546" y="-70" type="curve" smooth="yes"/>
      <point x="546" y="-148"/>
      <point x="562" y="-218"/>
      <point x="604" y="-218" type="curve" smooth="yes"/>
      <point x="636" y="-218"/>
      <point x="704" y="-181"/>
    </contour>
    <contour>
      <point x="589" y="-42" type="curve"/>
      <point x="578" y="12" type="line"/>
      <point x="488" y="-108"/>
      <point x="423" y="-122"/>
      <point x="366" y="-122" type="curve" smooth="yes"/>
      <point x="288" y="-122"/>
      <point x="238" y="-36"/>
      <point x="238" y="20" type="curve" smooth="yes"/>
      <point x="238" y="28"/>
      <point x="238" y="345"/>
      <point x="238" y="350" type="curve"/>
      <point x="230" y="359"/>
      <point x="212" y="376"/>
      <point x="211" y="376" type="curve"/>
      <point x="162" y="354"/>
      <point x="115" y="347"/>
      <point x="43" y="336" type="curve"/>
      <point x="43" y="312" type="line"/>
      <point x="131" y="305"/>
      <point x="133" y="300"/>
      <point x="133" y="239" type="curve" smooth="yes"/>
      <point x="133" y="231"/>
      <point x="133" y="77"/>
      <point x="133" y="65" type="curve" smooth="yes"/>
      <point x="133" y="-102"/>
      <point x="243" y="-218"/>
      <point x="343" y="-218" type="curve" smooth="yes"/>
      <point x="407" y="-218"/>
      <point x="498" y="-158"/>
    </contour>
    <contour>
      <point x="191" y="2"/>
      <point x="191" y="75" type="curve"/>
      <point x="186" y="107"/>
      <point x="133" y="169"/>
      <point x="133" y="169" type="curve"/>
      <point x="133" y="126"/>
      <point x="133" y="-465"/>
      <point x="133" y="-483" type="curve"/>
      <point x="160" y="-500" type="line"/>
      <point x="183" y="-490"/>
      <point x="260" y="-466"/>
      <point x="288" y="-458" type="curve"/>
      <point x="239" y="-408"/>
      <point x="191" y="-308"/>
      <point x="191" y="-130" type="curve"/>
      <point x="192" y="-37"/>
    </contour>
  </outline>
</glyph>
<glyph name="GrSubSmNu" format="2">
  <advance width="728"/>
  <unicode hex="E34C"/>
  <outline>
    <contour>
      <point x="649" y="194"/>
      <point x="682" y="357" type="curve"/>
      <point x="677" y="362"/>
      <point x="667" y="372"/>
      <point x="660" y="376" type="curve"/>
      <point x="622" y="368"/>
      <point x="561" y="349"/>
      <point x="518" y="338" type="curve"/>
      <point x="552" y="230"/>
      <point x="524" y="71"/>
      <point x="394" y="-85" type="curve"/>
      <point x="347" y="89"/>
      <point x="277" y="237"/>
      <point x="247" y="299" type="curve" smooth="yes"/>
      <point x="217" y="356"/>
      <point x="188" y="376"/>
      <point x="166" y="376" type="curve"/>
      <point x="125" y="357"/>
      <point x="66" y="338"/>
      <point x="7" y="326" type="curve"/>
      <point x="7" y="293" type="line"/>
      <point x="7" y="293"/>
      <point x="63" y="295"/>
      <point x="84" y="287" type="curve" smooth="yes"/>
      <point x="101" y="280"/>
      <point x="125" y="263"/>
      <point x="139" y="236" type="curve" smooth="yes"/>
      <point x="176" y="161"/>
      <point x="251" y="-1"/>
      <point x="307" y="-200" type="curve"/>
      <point x="335" y="-219" type="line"/>
      <point x="353" y="-211"/>
      <point x="395" y="-200"/>
      <point x="410" y="-193" type="curve"/>
      <point x="585" y="60"/>
    </contour>
  </outline>
</glyph>
<glyph name="GrSubSmXi" format="2">
  <advance width="628"/>
  <unicode hex="E34D"/>
  <outline>
    <contour>
      <point x="364" y="597"/>
      <point x="598" y="652" type="curve"/>
      <point x="596" y="665"/>
      <point x="592" y="697"/>
      <point x="584" y="710" type="curve"/>
      <point x="439" y="700"/>
      <point x="364" y="697"/>
      <point x="290" y="697" type="curve" smooth="yes"/>
      <point x="241" y="697"/>
      <point x="226" y="708"/>
      <point x="203" y="760" type="curve"/>
      <point x="190" y="760"/>
      <point x="168" y="749"/>
      <point x="156" y="745" type="curve"/>
      <point x="187" y="628"/>
      <point x="193" y="615"/>
      <point x="230" y="615" type="curve" smooth="yes"/>
      <point x="246" y="615"/>
      <point x="349" y="625"/>
      <point x="395" y="634" type="curve"/>
      <point x="225" y="574"/>
      <point x="134" y="506"/>
      <point x="134" y="425" type="curve" smooth="yes"/>
      <point x="134" y="376"/>
      <point x="172" y="315"/>
      <point x="312" y="291" type="curve"/>
      <point x="155" y="242"/>
      <point x="46" y="111"/>
      <point x="46" y="-8" type="curve" smooth="yes"/>
      <point x="46" y="-296"/>
      <point x="491" y="-167"/>
      <point x="491" y="-333" type="curve" smooth="yes"/>
      <point x="491" y="-367"/>
      <point x="472" y="-402"/>
      <point x="414" y="-463" type="curve"/>
      <point x="423" y="-472"/>
      <point x="441" y="-480"/>
      <point x="456" y="-484" type="curve"/>
      <point x="581" y="-381"/>
      <point x="623" y="-315"/>
      <point x="623" y="-268" type="curve" smooth="yes"/>
      <point x="623" y="-90"/>
      <point x="171" y="-174"/>
      <point x="171" y="19" type="curve" smooth="yes"/>
      <point x="171" y="131"/>
      <point x="289" y="260"/>
      <point x="536" y="286" type="curve"/>
      <point x="533" y="302"/>
      <point x="533" y="329"/>
      <point x="531" y="344" type="curve"/>
      <point x="515" y="343"/>
      <point x="497" y="341"/>
      <point x="477" y="341" type="curve" smooth="yes"/>
      <point x="370" y="341"/>
      <point x="262" y="362"/>
      <point x="262" y="445" type="curve" smooth="yes"/>
      <point x="262" y="527"/>
    </contour>
  </outline>
</glyph>
<glyph name="GrSubSmOmicron" format="2">
  <advance width="714"/>
  <unicode hex="E34E"/>
  <anchor x="375" y="430" name="U"/>
  <outline>
    <contour>
      <point x="654" y="-69"/>
      <point x="654" y="91" type="curve"/>
      <point x="654" y="255"/>
      <point x="542" y="376"/>
      <point x="371" y="376" type="curve" smooth="yes"/>
      <point x="201" y="376"/>
      <point x="59" y="225"/>
      <point x="59" y="66" type="curve" smooth="yes"/>
      <point x="59" y="-97"/>
      <point x="175" y="-218"/>
      <point x="344" y="-218" type="curve" smooth="yes"/>
      <point x="509" y="-218"/>
    </contour>
    <contour>
      <point x="546" y="200"/>
      <point x="546" y="73" type="curve"/>
      <point x="546" y="-64"/>
      <point x="489" y="-152"/>
      <point x="370" y="-152" type="curve" smooth="yes"/>
      <point x="273" y="-152"/>
      <point x="168" y="-43"/>
      <point x="168" y="84" type="curve" smooth="yes"/>
      <point x="168" y="212"/>
      <point x="222" y="310"/>
      <point x="351" y="310" type="curve" smooth="yes"/>
      <point x="447" y="310"/>
    </contour>
  </outline>
</glyph>
<glyph name="GrSubSmPi" format="2">
  <advance width="754"/>
  <unicode hex="E34F"/>
  <anchor x="404" y="-260" name="L"/>
  <anchor x="404" y="430" name="U"/>
  <outline>
    <contour>
      <point x="597" y="269" type="curve" smooth="yes"/>
      <point x="641" y="269"/>
      <point x="692" y="302"/>
      <point x="741" y="359" type="curve"/>
      <point x="721" y="376" type="line"/>
      <point x="692" y="359"/>
      <point x="659" y="358"/>
      <point x="620" y="358" type="curve" smooth="yes"/>
      <point x="493" y="358"/>
      <point x="389" y="358"/>
      <point x="176" y="358" type="curve" smooth="yes"/>
      <point x="118" y="358"/>
      <point x="68" y="315"/>
      <point x="14" y="260" type="curve"/>
      <point x="30" y="238" type="line"/>
      <point x="83" y="270"/>
      <point x="114" y="276"/>
      <point x="173" y="276" type="curve" smooth="yes"/>
      <point x="357" y="276"/>
      <point x="441" y="269"/>
    </contour>
    <contour>
      <point x="554" y="-219" type="curve" smooth="yes"/>
      <point x="595" y="-219"/>
      <point x="636" y="-202"/>
      <point x="732" y="-134" type="curve"/>
      <point x="717" y="-108" type="line"/>
      <point x="653" y="-129"/>
      <point x="631" y="-132"/>
      <point x="603" y="-132" type="curve" smooth="yes"/>
      <point x="560" y="-132"/>
      <point x="542" y="-72"/>
      <point x="542" y="74" type="curve" smooth="yes"/>
      <point x="542" y="152"/>
      <point x="545" y="240"/>
      <point x="559" y="317" type="curve"/>
      <point x="484" y="310" type="line"/>
      <point x="464" y="116"/>
      <point x="456" y="16"/>
      <point x="456" y="-40" type="curve" smooth="yes"/>
      <point x="456" y="-150"/>
      <point x="489" y="-219"/>
    </contour>
    <contour>
      <point x="264" y="-20" type="curve" smooth="yes"/>
      <point x="264" y="110"/>
      <point x="272" y="241"/>
      <point x="285" y="345" type="curve"/>
      <point x="285" y="345"/>
      <point x="234" y="338"/>
      <point x="214" y="331" type="curve"/>
      <point x="178" y="-61"/>
      <point x="171" y="-101"/>
      <point x="91" y="-198" type="curve"/>
      <point x="91" y="-198"/>
      <point x="106" y="-214"/>
      <point x="111" y="-219" type="curve"/>
      <point x="153" y="-209"/>
      <point x="246" y="-184"/>
      <point x="271" y="-170" type="curve"/>
      <point x="266" y="-126"/>
      <point x="264" y="-77"/>
    </contour>
  </outline>
</glyph>
<glyph name="GrSubSmSigma" format="2">
  <advance width="686"/>
  <unicode hex="E351"/>
  <anchor x="336" y="-260" name="L"/>
  <anchor x="336" y="430" name="U"/>
  <outline>
    <contour>
      <point x="564" y="273" type="curve" smooth="yes"/>
      <point x="612" y="273"/>
      <point x="629" y="282"/>
      <point x="686" y="359" type="curve"/>
      <point x="668" y="376" type="line"/>
      <point x="640" y="358"/>
      <point x="636" y="358"/>
      <point x="580" y="358" type="curve" smooth="yes"/>
      <point x="502" y="358"/>
      <point x="444" y="358"/>
      <point x="365" y="358" type="curve" smooth="yes"/>
      <point x="189" y="358"/>
      <point x="56" y="204"/>
      <point x="56" y="57" type="curve" smooth="yes"/>
      <point x="56" y="-88"/>
      <point x="169" y="-218"/>
      <point x="322" y="-218" type="curve" smooth="yes"/>
      <point x="503" y="-218"/>
      <point x="606" y="-41"/>
      <point x="606" y="54" type="curve" smooth="yes"/>
      <point x="606" y="143"/>
      <point x="562" y="207"/>
      <point x="458" y="271" type="curve"/>
      <point x="440" y="280"/>
      <point x="385" y="285"/>
      <point x="383" y="285" type="curve"/>
      <point x="384" y="285" type="line"/>
      <point x="434" y="245"/>
      <point x="503" y="149"/>
      <point x="503" y="28" type="curve" smooth="yes"/>
      <point x="503" y="-54"/>
      <point x="472" y="-149"/>
      <point x="354" y="-149" type="curve" smooth="yes"/>
      <point x="235" y="-149"/>
      <point x="154" y="-10"/>
      <point x="154" y="107" type="curve" smooth="yes"/>
      <point x="154" y="195"/>
      <point x="203" y="277"/>
      <point x="309" y="277" type="curve" smooth="yes"/>
      <point x="350" y="277"/>
      <point x="496" y="273"/>
    </contour>
  </outline>
</glyph>
<glyph name="GrSubSmTau" format="2">
  <advance width="616"/>
  <unicode hex="E352"/>
  <outline>
    <contour>
      <point x="569" y="296"/>
      <point x="617" y="348" type="curve"/>
      <point x="598" y="376" type="line"/>
      <point x="577" y="361"/>
      <point x="542" y="358"/>
      <point x="496" y="358" type="curve" smooth="yes"/>
      <point x="431" y="358"/>
      <point x="363" y="358"/>
      <point x="182" y="358" type="curve" smooth="yes"/>
      <point x="122" y="358"/>
      <point x="66" y="309"/>
      <point x="21" y="263" type="curve"/>
      <point x="36" y="232" type="line"/>
      <point x="83" y="257"/>
      <point x="111" y="267"/>
      <point x="149" y="267" type="curve" smooth="yes"/>
      <point x="178" y="267" type="line" smooth="yes"/>
      <point x="252" y="267"/>
      <point x="407" y="261"/>
      <point x="481" y="261" type="curve" smooth="yes"/>
      <point x="530" y="261"/>
    </contour>
    <contour>
      <point x="438" y="-185"/>
      <point x="543" y="-124" type="curve"/>
      <point x="526" y="-87" type="line"/>
      <point x="451" y="-114"/>
      <point x="413" y="-124"/>
      <point x="378" y="-124" type="curve" smooth="yes"/>
      <point x="324" y="-124"/>
      <point x="318" y="-36"/>
      <point x="318" y="15" type="curve" smooth="yes"/>
      <point x="318" y="94"/>
      <point x="319" y="195"/>
      <point x="328" y="324" type="curve"/>
      <point x="238" y="327" type="line"/>
      <point x="225" y="179"/>
      <point x="200" y="41"/>
      <point x="200" y="-63" type="curve" smooth="yes"/>
      <point x="200" y="-136"/>
      <point x="239" y="-218"/>
      <point x="316" y="-218" type="curve" smooth="yes"/>
      <point x="376" y="-218"/>
    </contour>
  </outline>
</glyph>
<glyph name="GrSubSmUpsilon" format="2">
  <advance width="728"/>
  <unicode hex="E353"/>
  <anchor x="388" y="430" name="U"/>
  <outline>
    <contour>
      <point x="327" y="-219" type="curve" smooth="yes"/>
      <point x="529" y="-219"/>
      <point x="680" y="-3"/>
      <point x="681" y="164" type="curve"/>
      <point x="682" y="284"/>
      <point x="642" y="360"/>
      <point x="583" y="376" type="curve"/>
      <point x="547" y="369"/>
      <point x="465" y="343"/>
      <point x="430" y="329" type="curve"/>
      <point x="442" y="297" type="line"/>
      <point x="525" y="281"/>
      <point x="564" y="229"/>
      <point x="563" y="132" type="curve" smooth="yes"/>
      <point x="563" y="29"/>
      <point x="497" y="-135"/>
      <point x="371" y="-135" type="curve" smooth="yes"/>
      <point x="299" y="-135"/>
      <point x="242" y="-85"/>
      <point x="242" y="57" type="curve" smooth="yes"/>
      <point x="242" y="188"/>
      <point x="263" y="312"/>
      <point x="251" y="353" type="curve"/>
      <point x="251" y="353"/>
      <point x="231" y="376"/>
      <point x="231" y="376" type="curve"/>
      <point x="168" y="353"/>
      <point x="103" y="341"/>
      <point x="38" y="336" type="curve"/>
      <point x="38" y="302" type="line"/>
      <point x="117" y="300"/>
      <point x="126" y="284"/>
      <point x="126" y="241" type="curve" smooth="yes"/>
      <point x="126" y="153"/>
      <point x="117" y="106"/>
      <point x="117" y="21" type="curve" smooth="yes"/>
      <point x="117" y="-159"/>
      <point x="237" y="-219"/>
    </contour>
  </outline>
</glyph>
<glyph name="GrSubPhiSym" format="2">
  <advance width="976"/>
  <unicode hex="E354"/>
  <outline>
    <contour>
      <point x="797" y="367"/>
      <point x="534" y="380" type="curve"/>
      <point x="540" y="454"/>
      <point x="545" y="543"/>
      <point x="554" y="600" type="curve"/>
      <point x="552" y="605"/>
      <point x="543" y="615"/>
      <point x="536" y="620" type="curve"/>
      <point x="503" y="611"/>
      <point x="459" y="600"/>
      <point x="419" y="582" type="curve"/>
      <point x="425" y="534"/>
      <point x="430" y="436"/>
      <point x="434" y="379" type="curve"/>
      <point x="198" y="363"/>
      <point x="56" y="238"/>
      <point x="56" y="81" type="curve" smooth="yes"/>
      <point x="56" y="-97"/>
      <point x="220" y="-207"/>
      <point x="433" y="-218" type="curve"/>
      <point x="427" y="-312"/>
      <point x="421" y="-407"/>
      <point x="410" y="-474" type="curve"/>
      <point x="419" y="-482"/>
      <point x="422" y="-486"/>
      <point x="432" y="-490" type="curve"/>
      <point x="467" y="-477"/>
      <point x="505" y="-466"/>
      <point x="540" y="-456" type="curve"/>
      <point x="536" y="-407"/>
      <point x="528" y="-292"/>
      <point x="526" y="-219" type="curve"/>
      <point x="731" y="-211"/>
      <point x="920" y="-103"/>
      <point x="918" y="81" type="curve" smooth="yes"/>
      <point x="917" y="236"/>
    </contour>
    <contour>
      <point x="805" y="216"/>
      <point x="805" y="66" type="curve" smooth="yes"/>
      <point x="805" y="-59"/>
      <point x="709" y="-166"/>
      <point x="524" y="-171" type="curve"/>
      <point x="524" y="-124"/>
      <point x="522" y="-76"/>
      <point x="522" y="-27" type="curve" smooth="yes"/>
      <point x="522" y="90"/>
      <point x="526" y="213"/>
      <point x="532" y="331" type="curve"/>
      <point x="685" y="315"/>
    </contour>
    <contour>
      <point x="246" y="326"/>
      <point x="437" y="335" type="curve"/>
      <point x="441" y="257"/>
      <point x="444" y="176"/>
      <point x="444" y="95" type="curve" smooth="yes"/>
      <point x="444" y="6"/>
      <point x="440" y="-82"/>
      <point x="436" y="-167" type="curve"/>
      <point x="266" y="-143"/>
      <point x="165" y="-33"/>
      <point x="165" y="91" type="curve" smooth="yes"/>
      <point x="165" y="201"/>
    </contour>
  </outline>
</glyph>
<glyph name="GrSubSmPsi" format="2">
  <advance width="946"/>
  <unicode hex="E357"/>
  <outline>
    <contour>
      <point x="558" y="441"/>
      <point x="581" y="600" type="curve"/>
      <point x="579" y="605"/>
      <point x="569" y="615"/>
      <point x="563" y="620" type="curve"/>
      <point x="530" y="611"/>
      <point x="473" y="595"/>
      <point x="428" y="579" type="curve"/>
      <point x="444" y="452"/>
      <point x="455" y="258"/>
      <point x="455" y="93" type="curve" smooth="yes"/>
      <point x="455" y="-114"/>
      <point x="441" y="-335"/>
      <point x="418" y="-474" type="curve"/>
      <point x="428" y="-482"/>
      <point x="430" y="-486"/>
      <point x="441" y="-490" type="curve"/>
      <point x="474" y="-479"/>
      <point x="538" y="-461"/>
      <point x="568" y="-452" type="curve"/>
      <point x="555" y="-365"/>
      <point x="546" y="-178"/>
      <point x="546" y="-27" type="curve" smooth="yes"/>
      <point x="546" y="188"/>
    </contour>
    <contour>
      <point x="871" y="321"/>
      <point x="844" y="369" type="curve"/>
      <point x="831" y="372"/>
      <point x="828" y="372"/>
      <point x="815" y="377" type="curve"/>
      <point x="784" y="361"/>
      <point x="721" y="328"/>
      <point x="691" y="309" type="curve"/>
      <point x="750" y="270"/>
      <point x="772" y="191"/>
      <point x="772" y="125" type="curve" smooth="yes"/>
      <point x="772" y="-14"/>
      <point x="681" y="-148"/>
      <point x="522" y="-148" type="curve" smooth="yes"/>
      <point x="306" y="-148"/>
      <point x="258" y="-36"/>
      <point x="258" y="90" type="curve" smooth="yes"/>
      <point x="258" y="149"/>
      <point x="268" y="223"/>
      <point x="268" y="284" type="curve" smooth="yes"/>
      <point x="268" y="352"/>
      <point x="254" y="368"/>
      <point x="232" y="376" type="curve"/>
      <point x="191" y="358"/>
      <point x="121" y="344"/>
      <point x="41" y="336" type="curve"/>
      <point x="41" y="302" type="line"/>
      <point x="125" y="297"/>
      <point x="143" y="272"/>
      <point x="143" y="235" type="curve" smooth="yes"/>
      <point x="143" y="177"/>
      <point x="134" y="118"/>
      <point x="134" y="63" type="curve" smooth="yes"/>
      <point x="134" y="-76"/>
      <point x="223" y="-224"/>
      <point x="494" y="-224" type="curve" smooth="yes"/>
      <point x="760" y="-224"/>
      <point x="886" y="17"/>
      <point x="886" y="192" type="curve" smooth="yes"/>
      <point x="886" y="249"/>
    </contour>
  </outline>
</glyph>
<glyph name="GrSubSmOmega" format="2">
  <advance width="1004"/>
  <unicode hex="E358"/>
  <anchor x="503" y="-260" name="L"/>
  <anchor x="524" y="430" name="U"/>
  <outline>
    <contour>
      <point x="941" y="-105"/>
      <point x="941" y="81" type="curve" smooth="yes"/>
      <point x="941" y="204"/>
      <point x="853" y="324"/>
      <point x="750" y="380" type="curve"/>
      <point x="741" y="377"/>
      <point x="715" y="368"/>
      <point x="706" y="363" type="curve"/>
      <point x="790" y="264"/>
      <point x="830" y="179"/>
      <point x="830" y="65" type="curve" smooth="yes"/>
      <point x="830" y="-44"/>
      <point x="774" y="-146"/>
      <point x="684" y="-146" type="curve" smooth="yes"/>
      <point x="582" y="-146"/>
      <point x="553" y="-62"/>
      <point x="550" y="18" type="curve" smooth="yes"/>
      <point x="548" y="111"/>
      <point x="569" y="180"/>
      <point x="569" y="180" type="curve"/>
      <point x="569" y="180"/>
      <point x="556" y="192"/>
      <point x="549" y="200" type="curve"/>
      <point x="519" y="189"/>
      <point x="486" y="178"/>
      <point x="447" y="165" type="curve"/>
      <point x="454" y="141"/>
      <point x="463" y="73"/>
      <point x="464" y="14" type="curve" smooth="yes"/>
      <point x="463" y="-64"/>
      <point x="405" y="-146"/>
      <point x="338" y="-146" type="curve" smooth="yes"/>
      <point x="235" y="-146"/>
      <point x="175" y="-39"/>
      <point x="175" y="75" type="curve" smooth="yes"/>
      <point x="175" y="171"/>
      <point x="208" y="267"/>
      <point x="312" y="363" type="curve"/>
      <point x="305" y="368"/>
      <point x="275" y="376"/>
      <point x="268" y="380" type="curve"/>
      <point x="148" y="317"/>
      <point x="63" y="183"/>
      <point x="63" y="54" type="curve" smooth="yes"/>
      <point x="63" y="-118"/>
      <point x="167" y="-218"/>
      <point x="295" y="-218" type="curve" smooth="yes"/>
      <point x="418" y="-218"/>
      <point x="475" y="-147"/>
      <point x="505" y="-76" type="curve"/>
      <point x="526" y="-150"/>
      <point x="580" y="-218"/>
      <point x="685" y="-218" type="curve" smooth="yes"/>
      <point x="801" y="-218"/>
    </contour>
  </outline>
</glyph>
<glyph name="GrSubCapAlpha" format="2">
  <advance width="853"/>
  <unicode hex="E360"/>
  <anchor x="161" y="556" name="G"/>
  <anchor x="413" y="-260" name="L"/>
  <anchor x="413" y="622" name="U"/>
  <outline>
    <contour>
      <point x="267" y="62" type="line"/>
      <point x="546" y="62" type="line"/>
      <point x="622" y="-123" type="line"/>
      <point x="634" y="-149"/>
      <point x="615" y="-161"/>
      <point x="543" y="-164" type="curve"/>
      <point x="543" y="-200" type="line"/>
      <point x="839" y="-200" type="line"/>
      <point x="839" y="-164" type="line"/>
      <point x="778" y="-158"/>
      <point x="765" y="-146"/>
      <point x="757" y="-123" type="curve"/>
      <point x="463" y="590" type="line"/>
      <point x="438" y="579"/>
      <point x="381" y="557"/>
      <point x="359" y="537" type="curve"/>
      <point x="101" y="-123" type="line"/>
      <point x="90" y="-147"/>
      <point x="63" y="-155"/>
      <point x="0" y="-164" type="curve"/>
      <point x="0" y="-200" type="line"/>
      <point x="291" y="-200" type="line"/>
      <point x="291" y="-164" type="line"/>
      <point x="215" y="-157"/>
      <point x="181" y="-148"/>
      <point x="189" y="-123" type="curve"/>
    </contour>
    <contour>
      <point x="521" y="126" type="line"/>
      <point x="288" y="126" type="line"/>
      <point x="403" y="420" type="line"/>
    </contour>
  </outline>
</glyph>
<glyph name="GrSubCapBeta" format="2">
  <advance width="788"/>
  <unicode hex="E361"/>
  <outline>
    <contour>
      <point x="721" y="-123"/>
      <point x="721" y="14" type="curve"/>
      <point x="721" y="125"/>
      <point x="620" y="214"/>
      <point x="500" y="234" type="curve"/>
      <point x="582" y="261"/>
      <point x="644" y="326"/>
      <point x="644" y="412" type="curve" smooth="yes"/>
      <point x="644" y="513"/>
      <point x="516" y="574"/>
      <point x="328" y="574" type="curve" smooth="yes"/>
      <point x="227" y="574"/>
      <point x="102" y="555"/>
      <point x="29" y="538" type="curve"/>
      <point x="34" y="491" type="line"/>
      <point x="113" y="503"/>
      <point x="216" y="514"/>
      <point x="289" y="514" type="curve" smooth="yes"/>
      <point x="470" y="514"/>
      <point x="515" y="462"/>
      <point x="515" y="383" type="curve" smooth="yes"/>
      <point x="515" y="314"/>
      <point x="484" y="239"/>
      <point x="272" y="239" type="curve" smooth="yes"/>
      <point x="204" y="239" type="line"/>
      <point x="211" y="171" type="line"/>
      <point x="255" y="177"/>
      <point x="302" y="185"/>
      <point x="364" y="185" type="curve" smooth="yes"/>
      <point x="526" y="185"/>
      <point x="586" y="81"/>
      <point x="586" y="-7" type="curve" smooth="yes"/>
      <point x="586" y="-92"/>
      <point x="510" y="-148"/>
      <point x="376" y="-148" type="curve" smooth="yes"/>
      <point x="334" y="-148"/>
      <point x="280" y="-144"/>
      <point x="251" y="-131" type="curve"/>
      <point x="86" y="-200" type="line"/>
      <point x="86" y="-200"/>
      <point x="309" y="-208"/>
      <point x="391" y="-208" type="curve" smooth="yes"/>
      <point x="580" y="-208"/>
    </contour>
    <contour>
      <point x="34" y="-200" type="line"/>
      <point x="350" y="-200" type="line"/>
      <point x="350" y="-164" type="line"/>
      <point x="282" y="-153"/>
      <point x="258" y="-137"/>
      <point x="258" y="-128" type="curve" smooth="yes"/>
      <point x="258" y="539" type="line"/>
      <point x="126" y="516" type="line"/>
      <point x="126" y="-128" type="line" smooth="yes"/>
      <point x="126" y="-138"/>
      <point x="97" y="-153"/>
      <point x="34" y="-164" type="curve"/>
    </contour>
  </outline>
</glyph>
<glyph name="GrSubCapGamma" format="2">
  <advance width="681"/>
  <unicode hex="E362"/>
  <anchor x="370" y="-260" name="L"/>
  <anchor x="370" y="622" name="U"/>
  <outline>
    <contour>
      <point x="647" y="500"/>
      <point x="650" y="541" type="curve"/>
      <point x="628" y="556" type="line"/>
      <point x="232" y="556" type="line"/>
      <point x="212" y="502" type="line"/>
      <point x="532" y="502" type="line" smooth="yes"/>
      <point x="568" y="502"/>
      <point x="575" y="460"/>
      <point x="580" y="358" type="curve"/>
      <point x="614" y="358" type="line"/>
      <point x="628" y="404"/>
    </contour>
    <contour>
      <point x="34" y="-200" type="line"/>
      <point x="386" y="-200" type="line"/>
      <point x="386" y="-174" type="line"/>
      <point x="274" y="-158"/>
      <point x="248" y="-148"/>
      <point x="248" y="-138" type="curve" smooth="yes"/>
      <point x="248" y="506" type="line" smooth="yes"/>
      <point x="248" y="517"/>
      <point x="287" y="519"/>
      <point x="350" y="530" type="curve"/>
      <point x="350" y="556" type="line"/>
      <point x="232" y="556" type="line"/>
      <point x="34" y="556" type="line"/>
      <point x="34" y="530" type="line"/>
      <point x="102" y="519"/>
      <point x="136" y="503"/>
      <point x="136" y="493" type="curve" smooth="yes"/>
      <point x="136" y="-138" type="line" smooth="yes"/>
      <point x="136" y="-148"/>
      <point x="97" y="-163"/>
      <point x="34" y="-174" type="curve"/>
    </contour>
  </outline>
</glyph>
<glyph name="GrSubCapDelta" format="2">
  <advance width="821"/>
  <unicode hex="E363"/>
  <outline>
    <contour>
      <point x="751" y="-200" type="line"/>
      <point x="766" y="-169" type="line"/>
      <point x="766" y="-169"/>
      <point x="526" y="354"/>
      <point x="428" y="590" type="curve"/>
      <point x="405" y="579"/>
      <point x="368" y="562"/>
      <point x="347" y="542" type="curve"/>
      <point x="262" y="333"/>
      <point x="41" y="-169"/>
      <point x="41" y="-169" type="curve"/>
      <point x="52" y="-200" type="line"/>
    </contour>
    <contour>
      <point x="617" y="-100"/>
      <point x="617" y="-100" type="curve"/>
      <point x="629" y="-131"/>
      <point x="631" y="-131"/>
      <point x="539" y="-131" type="curve" smooth="yes"/>
      <point x="232" y="-131" type="line" smooth="yes"/>
      <point x="144" y="-131"/>
      <point x="144" y="-131"/>
      <point x="156" y="-100" type="curve"/>
      <point x="156" y="-100"/>
      <point x="298" y="227"/>
      <point x="383" y="429" type="curve"/>
      <point x="460" y="249"/>
    </contour>
  </outline>
</glyph>
<glyph name="GrSubCapEpsilon" format="2">
  <advance width="711"/>
  <unicode hex="E364"/>
  <anchor x="0" y="556" name="G"/>
  <outline>
    <contour>
      <point x="620" y="500"/>
      <point x="622" y="541" type="curve"/>
      <point x="599" y="556" type="line"/>
      <point x="232" y="556" type="line"/>
      <point x="222" y="492" type="line"/>
      <point x="495" y="492" type="line" smooth="yes"/>
      <point x="529" y="492"/>
      <point x="548" y="470"/>
      <point x="552" y="396" type="curve"/>
      <point x="594" y="396" type="line"/>
      <point x="605" y="427"/>
    </contour>
    <contour>
      <point x="535" y="207"/>
      <point x="550" y="229" type="curve"/>
      <point x="532" y="246" type="line"/>
      <point x="228" y="246" type="line"/>
      <point x="209" y="186" type="line"/>
      <point x="344" y="186" type="line" smooth="yes"/>
      <point x="423" y="186"/>
      <point x="454" y="176"/>
      <point x="483" y="153" type="curve"/>
      <point x="503" y="165"/>
    </contour>
    <contour>
      <point x="661" y="-113"/>
      <point x="668" y="-44" type="curve"/>
      <point x="628" y="-33" type="line"/>
      <point x="588" y="-126"/>
      <point x="558" y="-136"/>
      <point x="472" y="-136" type="curve" smooth="yes"/>
      <point x="391" y="-136" type="line" smooth="yes"/>
      <point x="278" y="-136"/>
      <point x="258" y="-121"/>
      <point x="258" y="-98" type="curve" smooth="yes"/>
      <point x="258" y="496" type="line" smooth="yes"/>
      <point x="258" y="507"/>
      <point x="297" y="509"/>
      <point x="350" y="520" type="curve"/>
      <point x="350" y="556" type="line"/>
      <point x="232" y="556" type="line"/>
      <point x="34" y="556" type="line"/>
      <point x="34" y="520" type="line"/>
      <point x="92" y="509"/>
      <point x="126" y="493"/>
      <point x="126" y="483" type="curve" smooth="yes"/>
      <point x="126" y="-128" type="line" smooth="yes"/>
      <point x="126" y="-138"/>
      <point x="97" y="-153"/>
      <point x="34" y="-164" type="curve"/>
      <point x="34" y="-200" type="line"/>
      <point x="639" y="-200" type="line"/>
      <point x="647" y="-177"/>
    </contour>
  </outline>
</glyph>
<glyph name="GrSubCapZeta" format="2">
  <advance width="749"/>
  <unicode hex="E365"/>
  <outline>
    <contour>
      <point x="691" y="-66"/>
      <point x="694" y="-14" type="curve"/>
      <point x="645" y="-6" type="line"/>
      <point x="610" y="-104"/>
      <point x="589" y="-130"/>
      <point x="549" y="-130" type="curve" smooth="yes"/>
      <point x="213" y="-130" type="line"/>
      <point x="687" y="520" type="line"/>
      <point x="669" y="556" type="line"/>
      <point x="238" y="556" type="line" smooth="yes"/>
      <point x="183" y="556"/>
      <point x="156" y="556"/>
      <point x="105" y="566" type="curve"/>
      <point x="85" y="375" type="line"/>
      <point x="135" y="368" type="line"/>
      <point x="155" y="451"/>
      <point x="198" y="486"/>
      <point x="228" y="486" type="curve" smooth="yes"/>
      <point x="519" y="486" type="line"/>
      <point x="41" y="-163" type="line"/>
      <point x="62" y="-200" type="line"/>
      <point x="685" y="-200" type="line"/>
      <point x="687" y="-143"/>
    </contour>
  </outline>
</glyph>
<glyph name="GrSubCapEta" format="2">
  <advance width="937"/>
  <unicode hex="E366"/>
  <anchor x="0" y="556" name="G"/>
  <anchor x="462" y="-260" name="L"/>
  <outline>
    <contour>
      <point x="573" y="-200" type="line"/>
      <point x="889" y="-200" type="line"/>
      <point x="889" y="-164" type="line"/>
      <point x="822" y="-153"/>
      <point x="798" y="-137"/>
      <point x="798" y="-128" type="curve" smooth="yes"/>
      <point x="798" y="483" type="line" smooth="yes"/>
      <point x="798" y="494"/>
      <point x="826" y="509"/>
      <point x="889" y="520" type="curve"/>
      <point x="889" y="556" type="line"/>
      <point x="573" y="556" type="line"/>
      <point x="573" y="520" type="line"/>
      <point x="640" y="509"/>
      <point x="666" y="493"/>
      <point x="666" y="483" type="curve" smooth="yes"/>
      <point x="666" y="-128" type="line" smooth="yes"/>
      <point x="666" y="-138"/>
      <point x="636" y="-153"/>
      <point x="573" y="-164" type="curve"/>
    </contour>
    <contour>
      <point x="239" y="164" type="line"/>
      <point x="680" y="164" type="line"/>
      <point x="680" y="228" type="line"/>
      <point x="239" y="228" type="line"/>
    </contour>
    <contour>
      <point x="34" y="-200" type="line"/>
      <point x="350" y="-200" type="line"/>
      <point x="350" y="-164" type="line"/>
      <point x="282" y="-153"/>
      <point x="258" y="-137"/>
      <point x="258" y="-128" type="curve" smooth="yes"/>
      <point x="258" y="483" type="line" smooth="yes"/>
      <point x="258" y="494"/>
      <point x="287" y="509"/>
      <point x="350" y="520" type="curve"/>
      <point x="350" y="556" type="line"/>
      <point x="34" y="556" type="line"/>
      <point x="34" y="520" type="line"/>
      <point x="102" y="509"/>
      <point x="126" y="493"/>
      <point x="126" y="483" type="curve" smooth="yes"/>
      <point x="126" y="-128" type="line" smooth="yes"/>
      <point x="126" y="-138"/>
      <point x="97" y="-153"/>
      <point x="34" y="-164" type="curve"/>
    </contour>
  </outline>
</glyph>
<glyph name="GrSubCapTheta" format="2">
  <advance width="886"/>
  <unicode hex="E367"/>
  <anchor x="431" y="-260" name="L"/>
  <anchor x="431" y="622" name="U"/>
  <outline>
    <contour>
      <point x="823" y="-29"/>
      <point x="823" y="188" type="curve" smooth="yes"/>
      <point x="823" y="384"/>
      <point x="695" y="574"/>
      <point x="457" y="574" type="curve" smooth="yes"/>
      <point x="234" y="574"/>
      <point x="49" y="385"/>
      <point x="49" y="167" type="curve" smooth="yes"/>
      <point x="49" y="-34"/>
      <point x="186" y="-218"/>
      <point x="416" y="-218" type="curve" smooth="yes"/>
      <point x="634" y="-218"/>
    </contour>
    <contour>
      <point x="715" y="343"/>
      <point x="715" y="177" type="curve" smooth="yes"/>
      <point x="715" y="-34"/>
      <point x="599" y="-146"/>
      <point x="438" y="-146" type="curve" smooth="yes"/>
      <point x="287" y="-146"/>
      <point x="158" y="5"/>
      <point x="158" y="185" type="curve" smooth="yes"/>
      <point x="158" y="380"/>
      <point x="261" y="505"/>
      <point x="438" y="505" type="curve" smooth="yes"/>
      <point x="603" y="505"/>
    </contour>
    <contour>
      <point x="615" y="81" type="line"/>
      <point x="635" y="297" type="line"/>
      <point x="605" y="297" type="line"/>
      <point x="592" y="240"/>
      <point x="561" y="229"/>
      <point x="549" y="229" type="curve" smooth="yes"/>
      <point x="330" y="229" type="line" smooth="yes"/>
      <point x="317" y="229"/>
      <point x="301" y="243"/>
      <point x="288" y="297" type="curve"/>
      <point x="258" y="297" type="line"/>
      <point x="237" y="81" type="line"/>
      <point x="267" y="81" type="line"/>
      <point x="279" y="139"/>
      <point x="305" y="151"/>
      <point x="317" y="151" type="curve" smooth="yes"/>
      <point x="535" y="151" type="line" smooth="yes"/>
      <point x="547" y="151"/>
      <point x="572" y="135"/>
      <point x="585" y="81" type="curve"/>
    </contour>
  </outline>
</glyph>
<glyph name="GrSubCapIota" format="2">
  <advance width="454"/>
  <unicode hex="E368"/>
  <anchor x="14" y="556" name="G"/>
  <anchor x="220" y="622" name="U"/>
  <outline>
    <contour>
      <point x="63" y="-200" type="line"/>
      <point x="378" y="-200" type="line"/>
      <point x="378" y="-174" type="line"/>
      <point x="311" y="-163"/>
      <point x="276" y="-147"/>
      <point x="276" y="-138" type="curve" smooth="yes"/>
      <point x="276" y="493" type="line" smooth="yes"/>
      <point x="276" y="504"/>
      <point x="315" y="519"/>
      <point x="378" y="530" type="curve"/>
      <point x="378" y="556" type="line"/>
      <point x="63" y="556" type="line"/>
      <point x="63" y="530" type="line"/>
      <point x="130" y="519"/>
      <point x="164" y="503"/>
      <point x="164" y="493" type="curve" smooth="yes"/>
      <point x="164" y="-138" type="line" smooth="yes"/>
      <point x="164" y="-148"/>
      <point x="126" y="-163"/>
      <point x="63" y="-174" type="curve"/>
    </contour>
  </outline>
</glyph>
